<svg width="23" height="30" viewBox="0 0 23 30" fill="none" xmlns="http://www.w3.org/2000/svg">
<path d="M11.5 22.6349C13.0813 22.6349 14.375 21.3617 14.375 19.8056C14.375 18.2494 13.0813 16.9762 11.5 16.9762C9.91875 16.9762 8.625 18.2494 8.625 19.8056C8.625 21.3617 9.91875 22.6349 11.5 22.6349ZM20.125 9.90278H18.6875V7.07341C18.6875 3.16889 15.4675 0 11.5 0C7.5325 0 4.3125 3.16889 4.3125 7.07341H7.04375C7.04375 4.65431 9.04187 2.6879 11.5 2.6879C13.9581 2.6879 15.9563 4.65431 15.9563 7.07341V9.90278H2.875C1.29375 9.90278 0 11.176 0 12.7321V26.879C0 28.4351 1.29375 29.7083 2.875 29.7083H20.125C21.7062 29.7083 23 28.4351 23 26.879V12.7321C23 11.176 21.7062 9.90278 20.125 9.90278ZM20.125 26.879H2.875V12.7321H20.125V26.879Z" fill="white"/>
</svg>
