<svg width="23" height="32" viewBox="0 0 23 32" fill="none" xmlns="http://www.w3.org/2000/svg">
<path d="M11.1562 24.381C12.6687 24.381 13.9062 23.0095 13.9062 21.3333C13.9062 19.6571 12.6687 18.2857 11.1562 18.2857C9.64375 18.2857 8.40625 19.6571 8.40625 21.3333C8.40625 23.0095 9.64375 24.381 11.1562 24.381ZM19.4062 10.6667H18.0312V7.61905C18.0312 3.41333 14.9513 0 11.1562 0C7.36125 0 4.28125 3.41333 4.28125 7.61905V10.6667H2.90625C1.39375 10.6667 0.15625 12.0381 0.15625 13.7143V28.9524C0.15625 30.6286 1.39375 32 2.90625 32H19.4062C20.9188 32 22.1562 30.6286 22.1562 28.9524V13.7143C22.1562 12.0381 20.9188 10.6667 19.4062 10.6667ZM6.89375 7.61905C6.89375 5.01333 8.805 2.89524 11.1562 2.89524C13.5075 2.89524 15.4188 5.01333 15.4188 7.61905V10.6667H6.89375V7.61905ZM19.4062 28.9524H2.90625V13.7143H19.4062V28.9524Z" fill="white"/>
</svg>
