<svg width="45" height="34" viewBox="0 0 45 34" fill="none" xmlns="http://www.w3.org/2000/svg">
<g clip-path="url(#clip0_5791_87603)">
<path d="M22.5346 34C15.6853 34 8.83401 34 1.98477 34C0.538634 34 0.00209585 33.4779 0 32.0546C0 22.0168 0 11.9811 0 1.94333C0 0.522089 0.540729 0 1.98687 0C15.6623 0 29.3377 0 43.0131 0C44.4593 0 44.9958 0.522089 44.9979 1.9454C45 11.9811 45 22.0189 44.9979 32.0546C44.9979 33.4758 44.4593 33.9979 43.0131 33.9979C36.1869 33.9979 29.3629 33.9979 22.5367 33.9979L22.5346 34ZM22.5052 3.98196C18.4728 3.98196 14.4404 3.98196 10.408 3.98196C9.17773 3.98196 8.87593 4.26787 8.87383 5.44878C8.86964 13.1558 8.86964 20.8649 8.87383 28.5719C8.87383 29.7156 9.18402 30.0139 10.3577 30.0139C18.4456 30.016 26.5356 30.016 34.6234 30.0139C35.8307 30.0139 36.1199 29.7218 36.1199 28.5119C36.122 20.8276 36.122 13.1434 36.1199 5.46122C36.1199 4.27201 35.8202 3.98404 34.5983 3.98404C30.5659 3.97989 26.5335 3.98404 22.501 3.98404L22.5052 3.98196ZM4.41386 1.85424C4.05128 1.85424 3.6887 1.8501 3.32402 1.85424C2.44167 1.86667 2.06232 2.23338 2.04345 3.12425C2.02878 3.84108 2.02878 4.55999 2.04345 5.27683C2.06232 6.15733 2.44376 6.56133 3.31354 6.58826C4.06385 6.61105 4.81417 6.61313 5.56448 6.58826C6.39444 6.55926 6.78636 6.15526 6.81361 5.32241C6.83666 4.65322 6.82618 3.98196 6.8178 3.31278C6.80732 2.19402 6.4657 1.85632 5.3549 1.85217C5.04052 1.85217 4.72614 1.85217 4.41176 1.85217L4.41386 1.85424ZM40.6008 1.85424C40.2382 1.85424 39.8756 1.85217 39.511 1.85424C38.6056 1.86253 38.2115 2.21266 38.1843 3.08488C38.1612 3.84937 38.1591 4.61593 38.1885 5.38042C38.2178 6.16355 38.6202 6.55719 39.4208 6.58826C40.1209 6.6152 40.8251 6.60277 41.5272 6.59448C42.5709 6.58205 42.944 6.20084 42.9586 5.14838C42.9628 4.83761 42.9586 4.52684 42.9586 4.21607C42.9586 2.64152 42.1727 1.85424 40.6008 1.85424ZM4.45159 32.1458C4.81417 32.1458 5.17675 32.1499 5.54143 32.1458C6.39025 32.1333 6.78846 31.7728 6.81361 30.9358C6.83876 30.1465 6.84085 29.3551 6.80732 28.5678C6.77798 27.8572 6.38815 27.4532 5.67347 27.418C4.85189 27.3786 4.02613 27.3786 3.20665 27.418C2.45214 27.4532 2.07489 27.8634 2.05184 28.6175C2.02878 29.382 2.03088 30.1486 2.04765 30.9151C2.0686 31.7894 2.45424 32.1375 3.36384 32.1478C3.72642 32.152 4.089 32.1478 4.45368 32.1478L4.45159 32.1458ZM40.54 32.1458C40.9278 32.1458 41.3155 32.152 41.7011 32.1458C42.5437 32.1313 42.9251 31.7625 42.9544 30.9213C42.9691 30.5381 42.9586 30.1548 42.9586 29.7736C42.9586 27.4511 42.9104 27.4055 40.5694 27.4055C38.2346 27.4055 38.178 27.4615 38.178 29.7798C38.178 31.3585 38.9653 32.1478 40.54 32.1478V32.1458ZM2.04136 12.6897C2.04136 13.0481 2.03507 13.4086 2.04136 13.767C2.06022 14.7138 2.46053 15.1116 3.41414 15.1219C4.11625 15.1302 4.81836 15.1344 5.52047 15.1199C6.35462 15.1033 6.78217 14.7055 6.80942 13.8975C6.83666 13.133 6.83666 12.3665 6.81151 11.5999C6.78636 10.7712 6.37138 10.3838 5.54352 10.3672C5.15579 10.3589 4.76806 10.3796 4.38242 10.363C2.06651 10.2677 1.98058 10.62 2.04136 12.6876V12.6897ZM40.6218 10.3672C40.2592 10.3672 39.8945 10.363 39.5319 10.3672C38.6077 10.3776 38.2032 10.7546 38.1822 11.6662C38.1654 12.4307 38.1591 13.1993 38.1906 13.9638C38.2199 14.662 38.6349 15.0867 39.3265 15.1136C40.1481 15.1447 40.9739 15.1447 41.7954 15.1136C42.5269 15.0867 42.9209 14.6579 42.9524 13.9162C42.9691 13.5101 42.9482 13.1019 42.9607 12.6959C43.0173 10.622 42.9335 10.2657 40.6239 10.3672H40.6218ZM4.3929 23.6328C4.75548 23.6328 5.12016 23.637 5.48274 23.6328C6.37348 23.6224 6.78846 23.2495 6.81361 22.3897C6.83666 21.6004 6.84085 20.809 6.80732 20.0217C6.77798 19.3276 6.35462 18.9112 5.6567 18.8864C4.83513 18.8574 4.00936 18.8553 3.18779 18.8864C2.48777 18.9133 2.08537 19.3359 2.04974 20.0279C2.02669 20.4568 2.04974 20.8898 2.03926 21.3207C1.98267 23.3842 2.0728 23.7343 4.395 23.6328H4.3929ZM40.5254 23.6328C40.9131 23.6328 41.3008 23.639 41.6865 23.6328C42.5227 23.6162 42.9314 23.233 42.9524 22.4063C42.9712 21.617 42.9733 20.8276 42.9482 20.0383C42.9251 19.3421 42.5164 18.9174 41.8185 18.8905C40.9969 18.8574 40.1712 18.8615 39.3496 18.8905C38.6496 18.9154 38.2367 19.3276 38.1885 20.0175C38.1591 20.4464 38.1843 20.8794 38.1738 21.3083C38.1256 23.322 38.178 23.7488 40.5233 23.6349L40.5254 23.6328Z" fill="white"/>
<path d="M16.0878 16.98C16.0878 14.7714 16.0836 12.5629 16.0878 10.3544C16.0899 9.3413 16.6725 8.99117 17.5486 9.5029C21.3463 11.7197 25.1377 13.9469 28.9228 16.1803C29.7486 16.6671 29.7318 17.3405 28.8893 17.8377C25.123 20.0586 21.3547 22.2754 17.58 24.484C16.6704 25.0164 16.0878 24.6663 16.0878 23.6055C16.0836 21.397 16.0878 19.1885 16.0878 16.98Z" fill="white"/>
</g>
<defs>
<clipPath id="clip0_5791_87603">
<rect width="45" height="34" fill="white"/>
</clipPath>
</defs>
</svg>
