<svg width="104" height="28" viewBox="0 0 104 28" fill="none" xmlns="http://www.w3.org/2000/svg">
<path d="M66.0092 22.0191C64.3977 22.0191 63.0303 20.9137 62.5131 19.3688H72.3577C72.4398 18.9248 72.4797 18.4676 72.4797 18.0036C72.4797 14.0636 69.4964 10.8672 65.8116 10.8672C62.1269 10.8672 59.1436 14.0636 59.1436 18.0036C59.1436 21.9437 62.1269 25.1401 65.8116 25.1401C68.3976 25.1401 70.6396 23.5619 71.7472 21.2556L69.1657 20.1235C68.5086 21.26 67.3455 22.0191 66.0114 22.0191H66.0092V22.0191ZM66.0092 13.9881C67.6673 13.9881 69.0724 15.1579 69.5519 16.7739H62.4643C62.946 15.1579 64.3488 13.9881 66.007 13.9881H66.0092Z" fill="#384049"/>
<path d="M37.2946 4.38672H39.9561C40.0071 4.38672 40.0515 4.4178 40.0715 4.46441L45.4055 17.1946L50.9971 4.42445C51.0082 4.40226 51.0304 4.38672 51.0548 4.38672H53.8095C53.8405 4.38672 53.8672 4.40892 53.8716 4.43999L57.2323 24.3888C57.2456 24.4665 57.1857 24.5353 57.108 24.5353H53.3633C53.3011 24.5353 53.2479 24.4887 53.239 24.4287L51.4366 12.1203L46.0448 24.4598C46.0248 24.5064 45.9804 24.5353 45.9294 24.5353H44.7618C44.7108 24.5353 44.6641 24.5042 44.6464 24.4576L39.4944 12.1203L37.45 24.4309C37.4389 24.4909 37.3878 24.5353 37.3257 24.5353H33.581C33.5033 24.5353 33.4434 24.4642 33.4567 24.3866L37.1681 4.48883C37.1792 4.42889 37.2302 4.38672 37.2924 4.38672H37.2946Z" fill="#384049"/>
<path d="M94.3753 4.35938C95.5895 4.35938 96.5884 5.35604 96.5884 6.56357C96.5884 7.77111 95.5873 8.76777 94.3753 8.76777C93.1633 8.76777 92.1622 7.77111 92.1622 6.56357C92.1622 5.35604 93.1633 4.35938 94.3753 4.35938ZM96.2244 11.5868V24.4169C96.2244 24.4857 96.1689 24.5434 96.0978 24.5434H92.6528C92.584 24.5434 92.5263 24.488 92.5263 24.4169V11.5868C92.5263 11.518 92.5818 11.4603 92.6528 11.4603H96.0978C96.1666 11.4603 96.2244 11.5158 96.2244 11.5868Z" fill="#384049"/>
<path d="M101.787 4.35938C103.001 4.35938 104 5.35604 104 6.56357C104 7.77111 102.999 8.76777 101.787 8.76777C100.575 8.76777 99.5739 7.77111 99.5739 6.56357C99.5739 5.35604 100.575 4.35938 101.787 4.35938ZM103.636 11.5868V24.4169C103.636 24.4857 103.58 24.5434 103.509 24.5434H100.064C99.9956 24.5434 99.9379 24.488 99.9379 24.4169V11.5868C99.9379 11.518 99.9934 11.4603 100.064 11.4603H103.509C103.578 11.4603 103.636 11.5158 103.636 11.5868Z" fill="#384049"/>
<path d="M84.8747 4.4859V11.9709C83.8492 11.3249 82.6439 10.9542 81.3564 10.9542C77.5873 10.9542 74.533 14.1395 74.533 18.0685C74.533 21.9974 77.5873 25.1827 81.3564 25.1827C82.6439 25.1827 83.8492 24.812 84.8747 24.1661V24.4302C84.8747 24.4991 84.9302 24.5568 85.0012 24.5568H88.4485C88.5173 24.5568 88.575 24.5013 88.575 24.4302V4.4859C88.575 4.41709 88.5195 4.35938 88.4485 4.35938H85.0012C84.9324 4.35938 84.8747 4.41487 84.8747 4.4859ZM81.5518 22.084C79.4963 22.084 77.8293 20.286 77.8293 18.0685C77.8293 15.851 79.4963 14.053 81.5518 14.053C83.0035 14.053 84.2598 14.9542 84.8747 16.2638C85.13 16.8077 85.2765 17.4203 85.2765 18.0729C85.2765 18.7255 85.1322 19.3382 84.8747 19.882C84.2621 21.1916 83.0057 22.0929 81.5518 22.0929V22.0862V22.084Z" fill="#384049"/>
<path d="M23.4256 8.17976C24.7775 8.17976 25.874 7.08765 25.874 5.74027C25.874 4.39289 24.7775 3.30078 23.4256 3.30078C22.0738 3.30078 20.9795 4.39289 20.9795 5.74027C20.9795 7.08765 22.076 8.17976 23.4256 8.17976Z" fill="#02CAE8"/>
<path d="M3.49904 23.9244C4.81091 23.9244 5.87638 22.8634 5.87638 21.556C5.87638 20.2485 4.81313 19.1875 3.49904 19.1875C2.18496 19.1875 1.1217 20.2485 1.1217 21.556C1.1217 22.8634 2.18496 23.9244 3.49904 23.9244Z" fill="#0758E4"/>
<path d="M22.569 23.9407C25.7299 21.044 27.2726 16.8509 26.8553 12.7C26.853 12.6778 26.8331 12.66 26.8109 12.66H20.2582L18.5956 8.11622C18.5801 8.07182 18.5379 8.04297 18.4913 8.04297H16.0962C16.0518 8.04297 16.0118 8.06961 15.9941 8.10956L10.9397 19.9075C10.9087 19.9807 10.9619 20.0628 11.0419 20.0628H13.8787C13.9231 20.0628 13.963 20.0362 13.9808 19.9963L17.175 12.5202L18.3448 15.3836C18.3625 15.4258 18.3981 15.4458 18.4425 15.4458L23.7432 15.4525C23.4213 17.8009 22.3004 20.0207 20.4824 21.6833L20.4868 21.6877C17.488 24.4335 13.1639 25.1927 9.41479 23.61C9.38371 23.5967 9.34819 23.61 9.33488 23.6411C9.1684 24.0273 8.18727 26.3092 8.18727 26.3092C8.16285 26.3647 8.18727 26.4313 8.24498 26.4557C9.92977 27.1616 11.6723 27.4879 13.437 27.4879C16.7599 27.4879 20.0362 26.267 22.5712 23.9452H22.569V23.9407Z" fill="#02CAE8"/>
<path d="M17.0306 0.986309C17.095 1.00407 17.1349 1.08176 17.1083 1.14391L15.9762 3.78984C15.954 3.84089 15.9052 3.86753 15.8519 3.85421C12.5401 3.08396 9.00181 3.97186 6.44246 6.31368C4.65557 7.94963 3.54126 10.1139 3.1972 12.4091L7.9541 12.4135C7.99849 12.4135 8.03845 12.4402 8.0562 12.4801L8.62668 13.792L10.5934 9.27259L11.1505 7.99402C11.1683 7.95406 11.2082 7.92743 11.2526 7.92743H14.0362C14.1161 7.92743 14.1694 8.00956 14.1383 8.08059L9.07062 19.8674C9.05287 19.9073 9.01291 19.934 8.96852 19.934H8.30259C8.2582 19.934 8.21824 19.9073 8.20049 19.8674L6.18275 15.1993L3.15502 15.1882L0.0962266 15.1904C0.0740292 15.1904 0.0540516 15.1726 0.0518318 15.1505C-0.309985 11.0506 1.23273 6.92189 4.35812 4.05621C7.79649 0.908618 12.6044 -0.214568 17.0306 0.986309Z" fill="#0758E4"/>
<path d="M8.18713 26.3017C8.18713 26.3017 9.297 23.718 9.35694 23.5781Z" fill="#2DBAD5"/>
</svg>
