<svg width="79" height="56" viewBox="0 0 79 56" fill="none"
    xmlns="http://www.w3.org/2000/svg">
    <rect x="79" y="56" width="79" height="56" rx="28" transform="rotate(-180 79 56)" fill="#5C6BC0"/>
    <path d="M21.9393 26.9393C21.3536 27.5251 21.3536 28.4749 21.9393 29.0607L31.4853 38.6066C32.0711 39.1924 33.0208 39.1924 33.6066 38.6066C34.1924 38.0208 34.1924 37.0711 33.6066 36.4853L25.1213 28L33.6066 19.5147C34.1924 18.9289 34.1924 17.9792 33.6066 17.3934C33.0208 16.8076 32.0711 16.8076 31.4853 17.3934L21.9393 26.9393ZM55 26.5L23 26.5L23 29.5L55 29.5L55 26.5Z" fill="white"/>
</svg>
