<svg width="16" height="14" viewBox="0 0 16 14" fill="none" xmlns="http://www.w3.org/2000/svg">
<path d="M0 7.10177C0 6.64921 0.342208 6.28234 0.764344 6.28234H14.5225C14.9447 6.28234 15.2869 6.64921 15.2869 7.10177C15.2869 7.55433 14.9447 7.92121 14.5225 7.92121H0.764344C0.342208 7.92121 0 7.55433 0 7.10177Z" fill="#D5D5D5"/>
<path fill-rule="evenodd" clip-rule="evenodd" d="M9.14121 0.240007C9.43971 -0.0800023 9.92366 -0.0800023 10.2222 0.240007L15.6269 6.03429C16.1244 6.56764 16.1244 7.43237 15.6269 7.96571L10.2222 13.76C9.92366 14.08 9.43971 14.08 9.14121 13.76C8.84272 13.44 8.84272 12.9211 9.14121 12.6011L14.3658 7L9.14121 1.39886C8.84272 1.07885 8.84272 0.560016 9.14121 0.240007Z" fill="#D5D5D5"/>
</svg>
