<svg width="24" height="18" viewBox="0 0 24 18" fill="none" xmlns="http://www.w3.org/2000/svg">
<path d="M0 9.13085C0 8.54898 0.513312 8.07729 1.14652 8.07729H21.7838C22.417 8.07729 22.9303 8.54898 22.9303 9.13085C22.9303 9.71271 22.417 10.1844 21.7838 10.1844H1.14652C0.513313 10.1844 0 9.71271 0 9.13085Z" fill="#999999"/>
<path fill-rule="evenodd" clip-rule="evenodd" d="M13.7118 0.30858C14.1596 -0.10286 14.8855 -0.10286 15.3332 0.30858L23.4403 7.75837C24.1866 8.4441 24.1866 9.5559 23.4403 10.2416L15.3332 17.6914C14.8855 18.1029 14.1596 18.1029 13.7118 17.6914C13.2641 17.28 13.2641 16.6129 13.7118 16.2015L21.5487 9L13.7118 1.79854C13.2641 1.3871 13.2641 0.720021 13.7118 0.30858Z" fill="#999999"/>
</svg>
