<svg width="24" height="24" viewBox="0 0 24 24" fill="none"
    xmlns="http://www.w3.org/2000/svg">
    <rect x="3.5" y="3.5" width="13.0305" height="12.1802" rx="3.5" stroke="#999999"/>
    <rect x="7.67682" y="6.40112" width="14.0305" height="14.0305" rx="4" fill="#999999"/>
    <path d="M10.2278 10.4405C10.2278 10.0883 10.5133 9.80273 10.8656 9.80273H18.5186C18.8708 9.80273 19.1563 10.0883 19.1563 10.4405V10.4405C19.1563 10.7927 18.8708 11.0782 18.5186 11.0782H10.8656C10.5133 11.0782 10.2278 10.7927 10.2278 10.4405V10.4405Z" fill="#EFF3F6"/>
    <path d="M10.2278 13.4168C10.2278 13.0646 10.5133 12.7791 10.8656 12.7791H18.5186C18.8708 12.7791 19.1563 13.0646 19.1563 13.4168V13.4168C19.1563 13.769 18.8708 14.0546 18.5186 14.0546H10.8656C10.5133 14.0546 10.2278 13.769 10.2278 13.4168V13.4168Z" fill="#EFF3F6"/>
    <path d="M10.2278 16.3926C10.2278 16.0404 10.5133 15.7549 10.8656 15.7549H18.5186C18.8708 15.7549 19.1563 16.0404 19.1563 16.3926V16.3926C19.1563 16.7449 18.8708 17.0304 18.5186 17.0304H10.8656C10.5133 17.0304 10.2278 16.7449 10.2278 16.3926V16.3926Z" fill="#EFF3F6"/>
</svg>
