<svg width="36" height="36" viewBox="0 0 36 36" fill="none" xmlns="http://www.w3.org/2000/svg">
<circle cx="18" cy="18" r="18" fill="#EFF3F6"/>
<path d="M15.7 28L15.2 24.85C14.8833 24.7333 14.55 24.575 14.2 24.375C13.85 24.175 13.5417 23.9667 13.275 23.75L10.325 25.1L8 21L10.7 19.025C10.6667 18.875 10.6458 18.7042 10.6375 18.5125C10.6292 18.3208 10.625 18.15 10.625 18C10.625 17.85 10.6292 17.6792 10.6375 17.4875C10.6458 17.2958 10.6667 17.125 10.7 16.975L8 15L10.325 10.9L13.275 12.25C13.5417 12.0333 13.85 11.825 14.2 11.625C14.55 11.425 14.8833 11.275 15.2 11.175L15.7 8H20.3L20.8 11.15C21.1167 11.2667 21.4542 11.4208 21.8125 11.6125C22.1708 11.8042 22.475 12.0167 22.725 12.25L25.675 10.9L28 15L25.3 16.925C25.3333 17.0917 25.3542 17.2708 25.3625 17.4625C25.3708 17.6542 25.375 17.8333 25.375 18C25.375 18.1667 25.3708 18.3417 25.3625 18.525C25.3542 18.7083 25.3333 18.8833 25.3 19.05L28 21L25.675 25.1L22.725 23.75C22.4583 23.9667 22.1542 24.1792 21.8125 24.3875C21.4708 24.5958 21.1333 24.75 20.8 24.85L20.3 28H15.7ZM18 21.25C18.9 21.25 19.6667 20.9333 20.3 20.3C20.9333 19.6667 21.25 18.9 21.25 18C21.25 17.1 20.9333 16.3333 20.3 15.7C19.6667 15.0667 18.9 14.75 18 14.75C17.1 14.75 16.3333 15.0667 15.7 15.7C15.0667 16.3333 14.75 17.1 14.75 18C14.75 18.9 15.0667 19.6667 15.7 20.3C16.3333 20.9333 17.1 21.25 18 21.25Z" fill="#5C6BC0"/>
</svg>
