<svg width="40" height="40" viewBox="0 0 40 40" fill="none" xmlns="http://www.w3.org/2000/svg">
<path fill-rule="evenodd" clip-rule="evenodd" d="M23.3144 3.32636C20.0163 2.67062 16.5978 3.00777 13.4914 4.29513C10.3849 5.5825 7.72999 7.76226 5.86251 10.5587C3.99503 13.3551 2.99886 16.6426 3 20.0052C3.00154 24.5118 4.79244 28.8333 7.97903 32.0199C11.1656 35.2065 15.4871 36.9973 19.9936 36.9989C23.3563 37 26.6438 36.0038 29.4402 34.1364C32.2366 32.2689 34.4164 29.614 35.7038 26.5075C36.9911 23.4011 37.3282 19.9826 36.6725 16.6844C36.0168 13.3863 34.3976 10.3568 32.0199 7.97903C29.6421 5.60127 26.6125 3.9821 23.3144 3.32636ZM12.3428 1.52369C15.9975 0.0091368 20.0193 -0.387509 23.8995 0.383957C27.7796 1.15542 31.3438 3.06033 34.1412 5.85771C36.9386 8.65509 38.8434 12.2193 39.6149 16.0994C40.3864 19.9796 39.9897 24.0014 38.4752 27.6561C36.9606 31.3108 34.3962 34.4342 31.1063 36.6312C27.8163 38.8282 23.9487 40.0002 19.9926 39.9989C14.6908 39.9971 9.60667 37.8901 5.85771 34.1412C2.10876 30.3922 0.00180837 25.3081 1.15891e-06 20.0063C-0.00134531 16.0502 1.17063 12.1826 3.36767 8.89262C5.56472 5.60268 8.68813 3.03824 12.3428 1.52369ZM19.2203 14.1273C19.7021 14.8012 19.5462 15.7381 18.8722 16.2198L15.6737 18.506H28.8365C29.6649 18.506 30.3365 19.1776 30.3365 20.006C30.3365 20.8344 29.6649 21.506 28.8365 21.506H15.6877L18.8715 23.7786C19.5457 24.2599 19.7022 25.1967 19.2209 25.871C18.7396 26.5453 17.8028 26.7017 17.1285 26.2204L10.1285 21.2236C9.73424 20.9422 9.50015 20.4877 9.5 20.0032C9.49985 19.5188 9.73366 19.0641 10.1278 18.7824L17.1278 13.7792C17.8017 13.2975 18.7386 13.4533 19.2203 14.1273Z" fill="white"/>
</svg>
