<svg width="40" height="40" viewBox="0 0 40 40" fill="none" xmlns="http://www.w3.org/2000/svg">
<path fill-rule="evenodd" clip-rule="evenodd" d="M23.3144 3.32636C20.0163 2.67062 16.5978 3.00777 13.4914 4.29513C10.3849 5.5825 7.72999 7.76226 5.86251 10.5587C3.99503 13.3551 2.99886 16.6426 3 20.0052C3.00154 24.5118 4.79244 28.8333 7.97903 32.0199C11.1656 35.2065 15.4871 36.9973 19.9936 36.9989C23.3563 37 26.6438 36.0038 29.4402 34.1364C32.2366 32.2689 34.4164 29.614 35.7038 26.5075C36.9911 23.4011 37.3282 19.9826 36.6725 16.6844C36.0168 13.3863 34.3976 10.3568 32.0199 7.97903C29.6421 5.60127 26.6125 3.9821 23.3144 3.32636ZM12.3428 1.52369C15.9975 0.0091368 20.0193 -0.387509 23.8995 0.383957C27.7796 1.15542 31.3438 3.06033 34.1412 5.85771C36.9386 8.65509 38.8434 12.2193 39.6149 16.0994C40.3864 19.9796 39.9897 24.0014 38.4752 27.6561C36.9606 31.3108 34.3962 34.4342 31.1063 36.6312C27.8163 38.8282 23.9487 40.0002 19.9926 39.9989C14.6908 39.9971 9.60667 37.8901 5.85771 34.1412C2.10876 30.3922 0.00180837 25.3081 1.15891e-06 20.0063C-0.00134531 16.0502 1.17063 12.1826 3.36767 8.89262C5.56472 5.60268 8.68813 3.03824 12.3428 1.52369ZM12.4863 20.0132C12.4855 19.1848 13.1564 18.5125 13.9849 18.5117L18.4863 18.5073V14.0059C18.4863 13.1774 19.1579 12.5059 19.9863 12.5059C20.8148 12.5059 21.4863 13.1774 21.4863 14.0059V18.5044L25.9849 18.5C26.8133 18.4992 27.4855 19.1701 27.4863 19.9985C27.4871 20.827 26.8162 21.4992 25.9878 21.5L21.4863 21.5044V26.0059C21.4863 26.8343 20.8148 27.5059 19.9863 27.5059C19.1579 27.5059 18.4863 26.8343 18.4863 26.0059V21.5073L13.9878 21.5117C13.1594 21.5125 12.4871 20.8416 12.4863 20.0132Z" fill="white"/>
</svg>
