<svg width="40" height="40" viewBox="0 0 40 40" fill="none"
    xmlns="http://www.w3.org/2000/svg">
    <path fill-rule="evenodd" clip-rule="evenodd" d="M13.4914 4.29513C16.5978 3.00777 20.0163 2.67062 23.3144 3.32636C26.6125 3.9821 29.6421 5.60127 32.0199 7.97903C34.3976 10.3568 36.0168 13.3863 36.6725 16.6844C37.3282 19.9826 36.9911 23.4011 35.7038 26.5075C34.4164 29.614 32.2366 32.2689 29.4402 34.1364C26.6438 36.0038 23.3563 37 19.9936 36.9989C15.4871 36.9973 11.1656 35.2065 7.97903 32.0199C4.79244 28.8333 3.00154 24.5118 3 20.0052C2.99886 16.6426 3.99503 13.3551 5.86251 10.5587C7.72999 7.76226 10.3849 5.5825 13.4914 4.29513ZM23.8995 0.383957C20.0193 -0.387509 15.9975 0.0091368 12.3428 1.52369C8.68813 3.03824 5.56472 5.60268 3.36767 8.89262C1.17063 12.1826 -0.00134531 16.0502 1.15891e-06 20.0063C0.00180837 25.3081 2.10876 30.3922 5.85771 34.1412C9.60667 37.8901 14.6908 39.9971 19.9926 39.9989C23.9487 40.0002 27.8163 38.8282 31.1063 36.6312C34.3962 34.4342 36.9606 31.3108 38.4752 27.6561C39.9897 24.0014 40.3864 19.9796 39.6149 16.0994C38.8434 12.2193 36.9386 8.65509 34.1412 5.85771C31.3438 3.06033 27.7796 1.15542 23.8995 0.383957ZM13.9849 18.5117C13.1564 18.5125 12.4855 19.1848 12.4863 20.0132C12.4871 20.8416 13.1594 21.5125 13.9878 21.5117L25.9878 21.5C26.8162 21.4992 27.4871 20.827 27.4863 19.9985C27.4855 19.1701 26.8133 18.4992 25.9849 18.5L13.9849 18.5117Z" fill="white"/>
</svg>
