<svg width="40" height="40" viewBox="0 0 40 40" fill="none"
    xmlns="http://www.w3.org/2000/svg">
    <path fill-rule="evenodd" clip-rule="evenodd" d="M20 40C31.0457 40 40 31.0457 40 20C40 8.9543 31.0457 0 20 0C8.9543 0 0 8.9543 0 20C0 31.0457 8.9543 40 20 40ZM14.4488 6.60471C17.0985 5.50662 20.0144 5.21905 22.8276 5.77838C25.6408 6.33771 28.2249 7.7188 30.2531 9.74696C32.2812 11.7751 33.6623 14.3592 34.2216 17.1724C34.7809 19.9856 34.4934 22.9015 33.3953 25.5512C32.2972 28.2009 30.438 30.4655 28.0527 32.0584C27.6673 32.3158 27.2709 32.5537 26.8651 32.7719L25.026 16.7716C24.91 15.7621 24.0553 15 23.0391 15H22.5962L20.7685 10.4744C20.4224 9.61746 19.1986 9.64841 18.8963 10.5218L17.3462 15H16.5671C15.5335 15 14.6702 15.7876 14.5755 16.8169L13.1097 32.7583C11.8841 32.0965 10.7497 31.2558 9.74696 30.2531C7.02889 27.535 5.50131 23.8489 5.5 20.005C5.49902 17.1367 6.34873 14.3326 7.94163 11.9473C9.53454 9.56206 11.7991 7.70279 14.4488 6.60471ZM23.0391 17L24.9505 33.6288C23.3703 34.2027 21.6939 34.5006 19.9951 34.5C18.2881 34.4994 16.6122 34.1979 15.0384 33.6247L16.5671 17H23.0391ZM23.4126 2.83597C20.0174 2.16092 16.4982 2.50799 13.3003 3.83327C10.1023 5.15854 7.36927 7.40249 5.4468 10.2813C3.52433 13.16 2.49882 16.5443 2.5 20.006C2.50158 24.6452 4.34522 29.094 7.62564 32.3744C10.9061 35.6548 15.3548 37.4984 19.994 37.5C23.4557 37.5012 26.84 36.4757 29.7188 34.5532C32.5975 32.6307 34.8415 29.8977 36.1667 26.6997C37.492 23.5018 37.8391 19.9826 37.164 16.5874C36.489 13.1922 34.8222 10.0734 32.3744 7.62564C29.9266 5.17786 26.8078 3.51102 23.4126 2.83597Z" fill="white"/>
</svg>
