<svg width="14" height="14" viewBox="0 0 14 14" fill="none" xmlns="http://www.w3.org/2000/svg">
<path d="M1.57539 12.3563C2.40244 13.23 3.48847 13.667 4.5753 13.6666C5.66174 13.6666 6.74817 13.2296 7.57521 12.3563L12.7803 6.85804C13.9617 5.61011 13.9617 3.57945 12.7803 2.33153C12.2082 1.72677 11.447 1.39387 10.6377 1.39387C9.82848 1.39387 9.06729 1.72677 8.49519 2.33153L3.71836 7.37701C3.00969 8.1256 3.00969 9.34408 3.71836 10.0931C4.42743 10.8417 5.58093 10.8417 6.2896 10.0931L9.43496 6.77055C9.67172 6.52045 9.67172 6.11543 9.43496 5.86533C9.1982 5.61523 8.81477 5.61523 8.57801 5.86533L5.43265 9.18787C5.1963 9.43754 4.81206 9.43754 4.5753 9.18787C4.33895 8.9382 4.33895 8.5319 4.5753 8.28266L9.35213 3.23632C9.69555 2.87355 10.1521 2.67381 10.6377 2.67381C11.1234 2.67381 11.5799 2.87355 11.9234 3.23632C12.6324 3.98533 12.6324 5.20338 11.9234 5.95239L6.71787 11.4507C5.53649 12.6986 3.61412 12.6986 2.43234 11.4507C1.86023 10.8464 1.54509 10.0427 1.54509 9.18745C1.54509 8.33216 1.86023 7.52852 2.43274 6.92419L7.63784 1.42588C7.8746 1.17578 7.8746 0.770336 7.63784 0.520665C7.40108 0.270994 7.01765 0.270568 6.78089 0.520665L1.57539 6.01897C0.774207 6.86529 0.333008 7.99073 0.333008 9.18745C0.333008 10.3842 0.774207 11.51 1.57539 12.3563Z" fill="#999999"/>
</svg>
