<svg width="24" height="24" viewBox="0 0 24 24" fill="none" xmlns="http://www.w3.org/2000/svg">
<g clip-path="url(#clip0_6450_99659)">
<path d="M5.65063 23.6359C3.49922 23.5508 1.88602 22.5887 0.896959 20.6551C0.416745 19.7165 0.276499 18.7045 0.413808 17.6573C0.564334 16.5102 1.02986 15.51 1.8427 14.6838C2.90005 13.6094 3.96915 12.5474 5.0287 11.4752C5.33416 11.1661 5.74682 11.1426 6.02584 11.2887C6.50973 11.5428 6.59857 12.1788 6.20501 12.5739C5.55371 13.2275 4.90021 13.8781 4.24891 14.531C3.79513 14.9863 3.32666 15.4284 2.89564 15.9043C2.17679 16.6989 1.87868 17.6529 1.98148 18.7133C2.12466 20.1924 3.13135 21.4387 4.54629 21.8602C5.95535 22.2795 7.2183 21.9755 8.26684 20.94C10.0555 19.1731 11.8317 17.3944 13.5991 15.6062C14.3584 14.838 14.6873 13.8899 14.6212 12.8103C14.561 11.8307 14.1535 11.0126 13.4449 10.3428C13.1865 10.0983 12.8927 9.90217 12.5704 9.74575C12.0917 9.51368 11.9316 8.96583 12.2128 8.55237C12.4595 8.19031 12.906 8.10512 13.3487 8.33793C14.5772 8.98419 15.4436 9.95284 15.9194 11.2586C16.2241 12.0936 16.2976 12.9565 16.1683 13.8363C15.9936 15.0267 15.4598 16.0292 14.6102 16.8759C12.8604 18.6186 11.1195 20.3709 9.36898 22.1136C8.68905 22.7907 7.87841 23.2438 6.94442 23.4736C6.52074 23.5779 6.09413 23.6404 5.65063 23.6359Z" fill="white"/>
<path d="M23.6366 5.90592C23.6234 6.95242 23.2195 8.11642 22.356 9.09609C21.911 9.60062 21.4176 10.0618 20.9425 10.5399C20.2795 11.2067 19.6142 11.8706 18.9483 12.5345C18.6501 12.8319 18.2338 12.8797 17.9071 12.6579C17.512 12.3906 17.4254 11.839 17.7419 11.4836C17.9922 11.2023 18.2669 10.9431 18.5334 10.6765C19.3763 9.83268 20.2281 8.99695 21.06 8.14286C21.527 7.66404 21.8141 7.07947 21.958 6.42366C22.0601 5.95806 22.0755 5.49172 21.9925 5.02539C21.8831 4.40997 21.6401 3.8489 21.2473 3.35906C20.723 2.70546 20.0585 2.25675 19.2427 2.06434C18.0253 1.77719 16.9055 2.0188 15.9657 2.84646C15.2776 3.45159 14.6528 4.12796 14.0029 4.77643C12.8039 5.97274 11.6033 7.16759 10.4124 8.37199C9.91599 8.87431 9.59365 9.47797 9.45487 10.1764C9.19641 11.4799 9.55473 12.5999 10.4594 13.556C10.7604 13.874 10.7597 14.3829 10.4513 14.684C10.1392 14.9888 9.6355 14.9873 9.3249 14.6796C8.60458 13.9665 8.13024 13.1154 7.9129 12.1247C7.58909 10.6515 7.838 9.27822 8.65084 8.00847C8.92326 7.58252 9.28599 7.23663 9.63991 6.88192C11.256 5.26259 12.8707 3.6418 14.4839 2.01954C15.1058 1.39457 15.8137 0.899598 16.6581 0.636687C17.048 0.515514 17.457 0.428856 17.8637 0.390668C19.3426 0.2504 20.6576 0.669735 21.7936 1.62811C22.5388 2.25675 23.0602 3.04401 23.37 3.96713C23.5529 4.51205 23.6403 5.07606 23.6351 5.90812L23.6366 5.90592Z" fill="white"/>
</g>
<defs>
<clipPath id="clip0_6450_99659">
<rect width="23.2727" height="23.2727" fill="white" transform="translate(0.36377 0.363281)"/>
</clipPath>
</defs>
</svg>
