<svg width="24" height="24" viewBox="0 0 24 24" fill="none" xmlns="http://www.w3.org/2000/svg">
<path fill-rule="evenodd" clip-rule="evenodd" d="M12 21C16.9706 21 21 16.9706 21 12C21 7.02944 16.9706 3 12 3C7.02944 3 3 7.02944 3 12C3 16.9706 7.02944 21 12 21ZM12.0001 8.39568C12.6651 8.39568 13.2065 7.85952 13.2065 7.19955C13.2065 6.53843 12.6651 6 12.0001 6C11.3351 6 10.7937 6.53843 10.7937 7.20068C10.7937 7.85952 11.3351 8.39568 12.0001 8.39568ZM14.1415 16.1389H12.8585V10.9299C12.8585 10.4166 12.4739 10 12 10H9.85845C9.38459 10 9 10.4166 9 10.9299C9 11.4433 9.38459 11.8599 9.85845 11.8599H11.1415V17.0701C11.1415 17.5834 11.5261 18 12 18H14.1415C14.6154 18 15 17.5834 15 17.0701C15 16.5555 14.6154 16.1389 14.1415 16.1389Z" fill="#5C6BC0"/>
</svg>
