<svg width="16" height="16" viewBox="0 0 16 16" fill="none" xmlns="http://www.w3.org/2000/svg">
<path fill-rule="evenodd" clip-rule="evenodd" d="M7.86364 1C7.03521 1 6.36364 1.67157 6.36364 2.5V3.15385H3C2.44772 3.15385 2 3.60156 2 4.15385C2 4.70613 2.44772 5.15385 3 5.15385H13C13.5523 5.15385 14 4.70613 14 4.15385C14 3.60156 13.5523 3.15385 13 3.15385H9.36364V2.5C9.36364 1.67157 8.69206 1 7.86364 1ZM3.09091 6.38462H12.9091V13C12.9091 14.1046 12.0137 15 10.9091 15H5.09091C3.98634 15 3.09091 14.1046 3.09091 13V6.38462Z" fill="white"/>
<path fill-rule="evenodd" clip-rule="evenodd" d="M7.5 8C7.22386 8 7 8.22386 7 8.5V12.5C7 12.7761 7.22386 13 7.5 13C7.77614 13 8 12.7761 8 12.5V8.5C8 8.22386 7.77614 8 7.5 8ZM10.5 8C10.2239 8 10 8.22386 10 8.5V12.5C10 12.7761 10.2239 13 10.5 13C10.7761 13 11 12.7761 11 12.5V8.5C11 8.22386 10.7761 8 10.5 8Z" fill="#EFF3F6"/>
</svg>
