<svg width="128" height="160" viewBox="0 0 128 160" fill="none" xmlns="http://www.w3.org/2000/svg">
<path d="M59.6446 109.354L57.0529 91.0884L58.8527 87.4496C56.837 87.0533 54.8932 86.4408 53.0214 85.5762L50.3218 91.1244L52.9135 109.39C56.729 111.084 63.7121 112.597 64.9 112.597C66.0518 112.489 67.2037 112.309 68.3195 112.02C65.6919 111.372 62.0563 110.399 59.6446 109.354Z" fill="#D6E0F2"/>
<path d="M11.3746 150.03V123.982C11.3746 116.777 18.8976 109.499 31.856 103.843C31.4961 103.086 31.2441 102.293 31.1361 101.465C14.4702 107.409 4.60742 115.696 4.60742 123.982V150.03C4.60742 152.228 7.70303 155.254 9.93476 155.254H16.6659C14.5062 155.254 11.3746 152.228 11.3746 150.03Z" fill="#D6E0F2"/>
<path d="M84.6974 13.5574C83.7975 13.3052 82.8617 13.1972 81.9258 13.1611C82.5377 13.7376 83.3656 13.9537 84.1935 13.7015C84.3735 13.6295 84.5175 13.5935 84.6974 13.5574Z" fill="#D4E1F4"/>
<path d="M59.6805 80.2806C51.2575 75.0566 50.2856 64.7167 50.1777 62.6992C50.1417 61.4022 49.0978 60.3934 47.802 60.3934H47.766C44.8503 60.4294 40.5669 55.8539 38.9111 48.9366C38.4071 46.775 39.091 45.1177 40.0269 44.6494C40.8908 44.181 41.8627 45.0096 42.3306 45.55C43.1585 46.5228 44.7063 46.6309 45.6782 45.8022C46.5421 45.0096 46.7221 43.7487 46.1102 42.7759C45.3183 40.7223 44.2744 27.8605 44.2744 25.5908C44.2744 15.395 51.6535 6.74833 61.6962 5.09106C60.5804 4.91092 59.4285 4.83887 58.3126 4.83887C46.8661 4.83887 37.5432 14.134 37.5432 25.6268C37.5432 27.9326 38.5151 40.7584 39.379 42.8119C40.0989 43.9288 39.739 45.3699 38.6231 46.0905C37.6512 46.7029 36.3554 46.5228 35.5995 45.6581C35.1315 45.1177 34.2317 44.3251 33.2958 44.7574C32.3599 45.2258 31.676 46.847 32.1799 49.0447C33.8357 55.962 38.0832 60.5375 41.0348 60.5015H41.0708C42.3666 60.5015 43.4105 61.5103 43.4465 62.8073C43.5545 64.8248 44.4904 75.1647 52.9493 80.3887C56.2249 82.4063 60.2924 83.415 65.0438 83.415C66.1597 83.415 67.2755 83.343 68.3914 83.1989C65.2958 82.8746 62.3441 81.9019 59.6805 80.2806Z" fill="#D6E0F2"/>
<path d="M107.41 145.85C108.058 145.994 108.706 146.066 109.318 146.066C114.609 146.066 118.893 141.743 118.893 136.447C118.893 132.124 115.977 128.305 111.802 127.188C111.406 117.388 109.102 107.337 105.539 99.9151C104.963 98.7261 103.559 98.2578 102.407 98.7982C101.255 99.3386 100.751 100.78 101.291 101.933C104.567 108.742 106.69 118.001 107.086 127.08C101.939 128.341 98.7715 133.493 99.9593 138.645C100.823 142.283 103.739 145.094 107.41 145.85ZM104.495 135.438C104.963 133.169 106.942 131.511 109.246 131.511C109.57 131.511 109.894 131.547 110.218 131.619C112.846 132.16 114.573 134.718 114.034 137.348C113.494 139.978 110.938 141.707 108.31 141.167C105.683 140.662 103.991 138.068 104.495 135.438Z" fill="#A8DBA7"/>
<path d="M12.2023 145.022C13.5341 145.13 14.614 144.157 14.722 142.824C14.83 141.527 13.8581 140.41 12.5262 140.302C11.8423 140.266 11.2664 139.69 11.2304 139.005L16.1258 122C16.1618 121.82 16.1978 121.676 16.2338 121.532C16.3058 120.739 16.9537 120.199 17.7096 120.235L26.0965 120.847C26.8885 120.919 27.4284 121.568 27.3924 122.324C27.3924 122.504 27.3924 122.649 27.4284 122.829L29.8761 140.338C29.7321 141.023 29.0842 141.491 28.4363 141.419C27.1044 141.311 26.0246 142.32 25.9166 143.617C25.8086 144.914 26.7805 146.03 28.1123 146.103C28.2563 146.103 28.4003 146.103 28.5442 146.103C31.7478 146.103 34.4115 143.617 34.6275 140.446C34.6275 140.266 34.6275 140.122 34.5915 139.942L32.1438 122.324C32.2158 119.046 29.7321 116.308 26.4925 116.092L25.3406 116.019C26.8165 110.363 28.9402 104.635 31.0279 100.96C31.6759 99.8071 31.2799 98.402 30.128 97.7535C28.9762 97.105 27.5724 97.5013 26.9244 98.6542C24.1168 103.662 21.8851 110.543 20.5892 115.731L18.1055 115.551C14.83 115.299 12.0223 117.677 11.5904 120.955L6.65898 138.032C6.62298 138.212 6.58699 138.357 6.55099 138.501C6.33502 141.851 8.85471 144.806 12.2023 145.022Z" fill="#A8DBA7"/>
<path d="M57.7368 159.973C57.9888 160.009 58.2407 160.009 58.4927 159.973H118.173C122.961 159.973 128 154.857 128 150.03V123.982C128 113.317 117.237 103.194 99.2036 96.8169C98.2677 94.8353 96.5399 93.142 94.2722 91.9531C93.5883 91.5928 88.6569 89.8275 84.2655 88.2783L81.5658 82.9823C88.6929 77.434 90.7447 68.9315 91.3566 64.8604C96.324 63.5634 100.859 57.7269 102.695 50.017C103.631 46.054 102.299 42.2711 99.3116 40.6859C98.5557 40.2896 97.7278 40.0374 96.8999 39.9653C98.3397 34.9575 99.7435 28.3644 99.7435 26.8513C99.7435 16.6555 91.5006 8.40516 81.3138 8.40516C80.09 8.40516 78.9021 8.54927 77.7143 8.76544C68.4634 -1.82667 52.3375 -2.9075 41.7548 6.38762C36.2115 11.2513 33.0439 18.2407 33.0439 25.5903C33.0439 26.6711 33.2958 30.9945 33.7278 35.2457C33.9078 37.1191 34.0517 38.6323 34.2317 39.8572C33.2238 39.8212 32.252 40.0734 31.3521 40.5418C28.2925 42.127 26.8526 45.9819 27.8245 50.0891C29.6603 57.799 34.1957 63.5994 39.1631 64.9324C39.703 69.0396 41.6468 77.6502 48.9899 83.1984L46.1822 88.8908C40.6029 90.6561 37.4713 91.7009 36.9314 91.9892C35.0956 92.8898 33.5118 94.331 32.4319 96.0603C11.8425 102.797 0 112.957 0 123.982V150.03C0 154.893 5.14736 159.973 10.0427 159.973H57.7368ZM60.1125 155.254L53.7413 114.687C58.1327 116.164 63.4241 117.244 64.9359 117.244C66.5557 117.244 72.099 116.128 76.6344 114.578L70.3712 155.254H60.1125ZM52.9134 109.354L50.3217 91.0885L53.0214 85.5402C56.5489 87.1975 60.6884 88.0261 65.2598 88.0261C69.8673 88.0261 74.0068 87.1615 77.6063 85.4321L80.198 90.5481L77.4623 109.138C73.5388 110.94 66.3037 112.489 64.9719 112.489C63.676 112.525 56.7289 110.976 52.9134 109.354ZM98.9876 104.383C99.3836 103.662 99.7075 102.906 99.8515 102.077C114.394 107.661 123.285 115.911 123.285 123.982V150.03C123.285 152.299 120.369 155.254 118.173 155.254H76.6344L97.9078 121.532C99.5276 119.19 100.247 116.524 99.7795 114.29C99.5276 112.849 98.7357 111.588 97.5478 110.76C96.7559 110.255 95.856 109.823 94.9921 109.463C96.5399 107.949 97.9078 106.22 98.9876 104.383ZM81.9977 110.76L84.5534 93.3942C88.225 94.6912 91.6086 95.9162 92.1845 96.1684C93.7323 96.961 94.8481 98.1859 95.2081 99.4469C95.4601 100.348 95.3521 101.284 94.8841 102.113C92.9764 105.572 88.9809 108.562 88.9449 108.598C87.901 109.39 87.649 110.868 88.4769 111.912C88.8009 112.345 89.2688 112.669 89.8088 112.777C91.2126 113.137 93.9123 113.966 94.9921 114.687C95.1361 114.831 95.2081 114.975 95.2081 115.155C95.3521 115.911 95.1361 117.353 94.0562 118.866C94.0202 118.902 94.0202 118.938 93.9843 118.974L76.4544 146.751L81.9977 110.76ZM43.6265 62.7348C43.5905 61.4378 42.5467 60.429 41.2508 60.429C38.3352 60.465 34.0517 55.8895 32.396 48.9722C31.892 46.8106 32.5759 45.1533 33.5118 44.6849C34.3757 44.2166 35.3476 45.0452 35.8155 45.5856C36.6434 46.5584 38.1912 46.6665 39.1631 45.8378C40.027 45.0452 40.207 43.7843 39.5951 42.8115C38.8032 40.7579 37.7593 27.8961 37.7593 25.6263C37.7593 14.1696 47.0461 4.83843 58.5287 4.83843C64.9719 4.83843 71.0191 7.82872 74.9786 12.9446C75.5906 13.7372 76.5624 14.0255 77.4983 13.7372C84.7694 11.6116 92.4005 15.7908 94.4882 23.0684C94.8481 24.3294 95.0281 25.5903 95.0281 26.9233C95.0281 28.6887 92.0765 40.9381 91.0686 42.7394C90.3127 43.7842 90.5647 45.2614 91.6086 46.054C92.5444 46.7385 93.8763 46.5944 94.6682 45.7658C95.0641 45.3695 96.072 44.4327 97.0799 44.9732C97.9078 45.4415 98.6277 46.9186 98.0877 49.0803C96.4319 55.9976 92.1845 60.5731 89.2328 60.5371C87.937 60.501 86.8571 61.5098 86.8571 62.8068C86.7132 64.8244 85.5973 75.1283 77.3183 80.3522C74.0427 82.4058 70.0113 83.4506 65.2598 83.4506C60.5084 83.4506 56.4409 82.4418 53.1654 80.4243C44.7064 75.0562 43.7345 64.7163 43.6265 62.7348ZM35.9595 99.4108C36.3195 98.1499 37.4353 96.961 39.0191 96.1323C39.5951 95.8801 42.6187 94.8714 45.9303 93.8266L48.5219 112.057C48.5219 112.129 48.5219 112.165 48.5579 112.237L53.9573 146.427L37.2193 119.262C37.1834 119.226 37.1834 119.19 37.1474 119.154C36.1395 117.713 35.8155 116.2 35.9955 115.299C35.9955 115.119 36.1035 114.939 36.2115 114.795C37.3273 114.038 40.027 113.173 41.4308 112.813C42.6907 112.489 43.4466 111.192 43.1226 109.895C42.9786 109.39 42.6907 108.922 42.2587 108.598C41.1429 107.769 37.9393 104.995 36.3195 102.041C35.8155 101.32 35.6715 100.348 35.9595 99.4108ZM4.64342 150.03V123.982C4.64342 115.731 14.4702 107.373 31.1721 101.464C31.3161 102.509 31.64 103.518 32.18 104.419C33.2958 106.292 34.6277 108.057 36.1755 109.571C35.2756 109.895 34.3757 110.363 33.5478 110.904C32.324 111.732 31.5321 113.029 31.3161 114.434C30.8841 116.74 31.5681 119.442 33.1879 121.784L53.8493 155.254H9.97075C7.73903 155.254 4.64342 152.227 4.64342 150.03Z" fill="#5C6BC0"/>
<path d="M56.0451 48.648C57.9336 48.648 59.4646 47.1156 59.4646 45.2254C59.4646 43.3351 57.9336 41.8027 56.0451 41.8027C54.1565 41.8027 52.6255 43.3351 52.6255 45.2254C52.6255 47.1156 54.1565 48.648 56.0451 48.648Z" fill="#5C6BC0"/>
<path d="M73.8629 48.648C75.7515 48.648 77.2825 47.1156 77.2825 45.2254C77.2825 43.3351 75.7515 41.8027 73.8629 41.8027C71.9744 41.8027 70.4434 43.3351 70.4434 45.2254C70.4434 47.1156 71.9744 48.648 73.8629 48.648Z" fill="#5C6BC0"/>
<path fill-rule="evenodd" clip-rule="evenodd" d="M79.2894 59.9075C79.7159 60.5792 79.5177 61.4698 78.8466 61.8968C74.2252 64.8368 69.5452 66.4072 64.8398 66.4314C60.127 66.4557 55.5092 64.928 51.0233 61.8719C50.366 61.424 50.1958 60.5276 50.6433 59.8696C51.0907 59.2117 51.9863 59.0414 52.6437 59.4892C56.7247 62.2695 60.7819 63.5701 64.825 63.5493C68.8754 63.5284 73.0323 62.1806 77.3019 59.4643C77.973 59.0374 78.8628 59.2358 79.2894 59.9075Z" fill="#5C6BC0"/>
<path d="M30.4883 29.2289C30.8842 20.9425 34.1958 13.1606 39.6671 7.64833C50.8977 -3.59227 67.9596 -2.29528 77.7864 10.5666C79.0462 10.2783 80.342 10.1342 81.6019 10.1342C91.4286 10.1342 99.5276 18.4206 100.931 29.2289H86.2093L83.5816 23.6446L80.558 29.2289H30.4883Z" fill="#5C6BC0"/>
</svg>
