<svg width="128" height="160" viewBox="0 0 128 160" fill="none" xmlns="http://www.w3.org/2000/svg">
<path d="M59.6446 109.334L57.0529 91.0612L58.8527 87.421C56.837 87.0246 54.8932 86.4119 53.0214 85.5469L50.3218 91.0973L52.9135 109.37C56.729 111.064 63.7121 112.578 64.9 112.578C66.0518 112.47 67.2037 112.29 68.3195 112.001C65.6919 111.353 62.0563 110.38 59.6446 109.334Z" fill="#D6E0F2"/>
<path d="M11.3746 150.025V123.967C11.3746 116.759 18.8976 109.479 31.856 103.82C31.4961 103.063 31.2441 102.27 31.1361 101.441C14.4702 107.388 4.60742 115.678 4.60742 123.967V150.025C4.60742 152.224 7.70303 155.252 9.93476 155.252H16.6659C14.5062 155.252 11.3746 152.224 11.3746 150.025Z" fill="#D6E0F2"/>
<path d="M84.6974 13.5C83.7975 13.2477 82.8617 13.1396 81.9258 13.1035C82.5377 13.6802 83.3656 13.8964 84.1935 13.6441C84.3735 13.5721 84.5175 13.536 84.6974 13.5Z" fill="#D4E1F4"/>
<path d="M59.6805 80.2485C51.2575 75.0224 50.2856 64.6785 50.1777 62.6602C50.1417 61.3627 49.0978 60.3535 47.802 60.3535H47.766C44.8503 60.3895 40.5669 55.8123 38.9111 48.8923C38.4071 46.7298 39.091 45.0719 40.0269 44.6033C40.8908 44.1348 41.8627 44.9637 42.3306 45.5044C43.1585 46.4775 44.7063 46.5856 45.6782 45.7567C46.5421 44.9637 46.7221 43.7023 46.1102 42.7292C45.3183 40.6748 44.2744 27.8079 44.2744 25.5373C44.2744 15.3375 51.6535 6.68755 61.6962 5.02963C60.5804 4.84943 59.4285 4.77734 58.3126 4.77734C46.8661 4.77734 37.5432 14.0761 37.5432 25.5734C37.5432 27.88 38.5151 40.7108 39.379 42.7652C40.0989 43.8825 39.739 45.3242 38.6231 46.045C37.6512 46.6577 36.3554 46.4775 35.5995 45.6125C35.1315 45.0719 34.2317 44.2789 33.2958 44.7114C32.3599 45.18 31.676 46.8019 32.1799 49.0004C33.8357 55.9204 38.0832 60.4977 41.0348 60.4616H41.0708C42.3666 60.4616 43.4105 61.4708 43.4465 62.7683C43.5545 64.7866 44.4904 75.1306 52.9493 80.3566C56.2249 82.3749 60.2924 83.3841 65.0438 83.3841C66.1597 83.3841 67.2755 83.312 68.3914 83.1678C65.2958 82.8435 62.3441 81.8703 59.6805 80.2485Z" fill="#D6E0F2"/>
<path d="M107.41 145.844C108.058 145.988 108.706 146.06 109.318 146.06C114.609 146.06 118.893 141.735 118.893 136.437C118.893 132.112 115.977 128.292 111.802 127.175C111.406 117.371 109.102 107.316 105.539 99.8912C104.963 98.7018 103.559 98.2333 102.407 98.7739C101.255 99.3145 100.751 100.756 101.291 101.91C104.567 108.721 106.69 117.984 107.086 127.067C101.939 128.328 98.7715 133.482 99.9593 138.636C100.823 142.276 103.739 145.087 107.41 145.844ZM104.495 135.428C104.963 133.158 106.942 131.5 109.246 131.5C109.57 131.5 109.894 131.536 110.218 131.608C112.846 132.148 114.573 134.707 114.034 137.338C113.494 139.969 110.938 141.699 108.31 141.159C105.683 140.654 103.991 138.059 104.495 135.428Z" fill="#A8DBA7"/>
<path d="M12.2023 145.016C13.5341 145.124 14.614 144.151 14.722 142.817C14.83 141.52 13.8581 140.402 12.5262 140.294C11.8423 140.258 11.2664 139.682 11.2304 138.997L16.1258 121.985C16.1618 121.805 16.1978 121.661 16.2338 121.517C16.3058 120.724 16.9537 120.183 17.7096 120.219L26.0965 120.832C26.8885 120.904 27.4284 121.553 27.3924 122.31C27.3924 122.49 27.3924 122.634 27.4284 122.814L29.8761 140.33C29.7321 141.015 29.0842 141.484 28.4363 141.412C27.1044 141.303 26.0246 142.313 25.9166 143.61C25.8086 144.908 26.7805 146.025 28.1123 146.097C28.2563 146.097 28.4003 146.097 28.5442 146.097C31.7478 146.097 34.4115 143.61 34.6275 140.439C34.6275 140.258 34.6275 140.114 34.5915 139.934L32.1438 122.31C32.2158 119.03 29.7321 116.291 26.4925 116.074L25.3406 116.002C26.8165 110.344 28.9402 104.613 31.0279 100.937C31.6759 99.7836 31.2799 98.3779 30.128 97.7292C28.9762 97.0804 27.5724 97.4769 26.9244 98.6302C24.1168 103.64 21.8851 110.524 20.5892 115.714L18.1055 115.534C14.83 115.281 12.0223 117.66 11.5904 120.94L6.65898 138.024C6.62298 138.204 6.58699 138.348 6.55099 138.492C6.33502 141.844 8.85471 144.8 12.2023 145.016Z" fill="#A8DBA7"/>
<path d="M57.7368 159.973C57.9888 160.009 58.2407 160.009 58.4927 159.973H118.173C122.961 159.973 128 154.855 128 150.025V123.967C128 113.299 117.237 103.171 99.2036 96.792C98.2677 94.8097 96.5399 93.1158 94.2722 91.9264C93.5883 91.566 88.6569 89.8 84.2655 88.2502L81.5658 82.952C88.6929 77.4016 90.7447 68.8958 91.3566 64.8231C96.324 63.5256 100.859 57.6869 102.695 49.974C103.631 46.0094 102.299 42.225 99.3116 40.6392C98.5557 40.2427 97.7278 39.9904 96.8999 39.9184C98.3397 34.9086 99.7435 28.313 99.7435 26.7992C99.7435 16.5994 91.5006 8.34591 81.3138 8.34591C80.09 8.34591 78.9021 8.49008 77.7143 8.70633C68.4634 -1.88991 52.3375 -2.97115 41.7548 6.32758C36.2115 11.1932 33.0439 18.1853 33.0439 25.5378C33.0439 26.619 33.2958 30.944 33.7278 35.1969C33.9078 37.0711 34.0517 38.5848 34.2317 39.8102C33.2238 39.7742 32.252 40.0265 31.3521 40.495C28.2925 42.0809 26.8526 45.9373 27.8245 50.0461C29.6603 57.759 34.1957 63.5617 39.1631 64.8952C39.703 69.0039 41.6468 77.6179 48.9899 83.1683L46.1822 88.8629C40.6029 90.6289 37.4713 91.6741 36.9314 91.9624C35.0956 92.8635 33.5118 94.3052 32.4319 96.0352C11.8425 102.775 0 112.939 0 123.967V150.025C0 154.891 5.14736 159.973 10.0427 159.973H57.7368ZM60.1125 155.252L53.7413 114.669C58.1327 116.146 63.4241 117.228 64.9359 117.228C66.5557 117.228 72.099 116.11 76.6344 114.561L70.3712 155.252H60.1125ZM52.9134 109.335L50.3217 91.0614L53.0214 85.511C56.5489 87.1689 60.6884 87.9979 65.2598 87.9979C69.8673 87.9979 74.0068 87.1329 77.6063 85.4029L80.198 90.5208L77.4623 109.118C73.5388 110.92 66.3037 112.47 64.9719 112.47C63.676 112.506 56.7289 110.956 52.9134 109.335ZM98.9876 104.361C99.3836 103.64 99.7075 102.883 99.8515 102.054C114.394 107.641 123.285 115.894 123.285 123.967V150.025C123.285 152.296 120.369 155.252 118.173 155.252H76.6344L97.9078 121.517C99.5276 119.174 100.247 116.507 99.7795 114.272C99.5276 112.831 98.7357 111.569 97.5478 110.74C96.7559 110.236 95.856 109.803 94.9921 109.443C96.5399 107.929 97.9078 106.199 98.9876 104.361ZM81.9977 110.74L84.5534 93.3681C88.225 94.6656 91.6086 95.891 92.1845 96.1433C93.7323 96.9362 94.8481 98.1616 95.2081 99.4231C95.4601 100.324 95.3521 101.261 94.8841 102.09C92.9764 105.55 88.9809 108.542 88.9449 108.578C87.901 109.371 87.649 110.848 88.4769 111.893C88.8009 112.326 89.2688 112.65 89.8088 112.758C91.2126 113.119 93.9123 113.948 94.9921 114.669C95.1361 114.813 95.2081 114.957 95.2081 115.137C95.3521 115.894 95.1361 117.336 94.0562 118.85C94.0202 118.886 94.0202 118.922 93.9843 118.958L76.4544 146.746L81.9977 110.74ZM43.6265 62.6967C43.5905 61.3992 42.5467 60.39 41.2508 60.39C38.3352 60.426 34.0517 55.8488 32.396 48.9288C31.892 46.7663 32.5759 45.1084 33.5118 44.6398C34.3757 44.1713 35.3476 45.0002 35.8155 45.5409C36.6434 46.514 38.1912 46.6221 39.1631 45.7931C40.027 45.0002 40.207 43.7388 39.5951 42.7657C38.8032 40.7113 37.7593 27.8444 37.7593 25.5738C37.7593 14.1126 47.0461 4.77779 58.5287 4.77779C64.9719 4.77779 71.0191 7.76925 74.9786 12.8872C75.5906 13.6801 76.5624 13.9684 77.4983 13.6801C84.7694 11.5536 92.4005 15.7344 94.4882 23.0148C94.8481 24.2763 95.0281 25.5378 95.0281 26.8713C95.0281 28.6373 92.0765 40.8915 91.0686 42.6936C90.3127 43.7388 90.5647 45.2165 91.6086 46.0094C92.5444 46.6942 93.8763 46.55 94.6682 45.7211C95.0641 45.3246 96.072 44.3875 97.0799 44.9282C97.9078 45.3967 98.6277 46.8744 98.0877 49.0369C96.4319 55.9569 92.1845 60.5342 89.2328 60.4981C87.937 60.4621 86.8571 61.4712 86.8571 62.7687C86.7132 64.7871 85.5973 75.095 77.3183 80.321C74.0427 82.3754 70.0113 83.4206 65.2598 83.4206C60.5084 83.4206 56.4409 82.4114 53.1654 80.3931C44.7064 75.0229 43.7345 64.679 43.6265 62.6967ZM35.9595 99.387C36.3195 98.1256 37.4353 96.9362 39.0191 96.1072C39.5951 95.8549 42.6187 94.8458 45.9303 93.8006L48.5219 112.038C48.5219 112.11 48.5219 112.146 48.5579 112.218L53.9573 146.421L37.2193 119.246C37.1834 119.21 37.1834 119.174 37.1474 119.138C36.1395 117.696 35.8155 116.182 35.9955 115.281C35.9955 115.101 36.1035 114.921 36.2115 114.777C37.3273 114.02 40.027 113.155 41.4308 112.795C42.6907 112.47 43.4466 111.173 43.1226 109.875C42.9786 109.371 42.6907 108.902 42.2587 108.578C41.1429 107.749 37.9393 104.973 36.3195 102.018C35.8155 101.297 35.6715 100.324 35.9595 99.387ZM4.64342 150.025V123.967C4.64342 115.714 14.4702 107.352 31.1721 101.441C31.3161 102.487 31.64 103.496 32.18 104.397C33.2958 106.271 34.6277 108.037 36.1755 109.551C35.2756 109.875 34.3757 110.344 33.5478 110.884C32.324 111.713 31.5321 113.011 31.3161 114.416C30.8841 116.723 31.5681 119.426 33.1879 121.769L53.8493 155.252H9.97075C7.73903 155.252 4.64342 152.224 4.64342 150.025Z" fill="#5C6BC0"/>
<path d="M56.0451 48.6047C57.9336 48.6047 59.4646 47.0718 59.4646 45.1808C59.4646 43.2898 57.9336 41.7568 56.0451 41.7568C54.1565 41.7568 52.6255 43.2898 52.6255 45.1808C52.6255 47.0718 54.1565 48.6047 56.0451 48.6047Z" fill="#5C6BC0"/>
<path d="M73.8629 48.6047C75.7515 48.6047 77.2825 47.0718 77.2825 45.1808C77.2825 43.2898 75.7515 41.7568 73.8629 41.7568C71.9744 41.7568 70.4434 43.2898 70.4434 45.1808C70.4434 47.0718 71.9744 48.6047 73.8629 48.6047Z" fill="#5C6BC0"/>
<path d="M64.7272 66.4021C60.073 66.4021 55.4944 64.8776 51.0237 61.8321C50.365 61.3851 50.1958 60.4877 50.6422 59.8282C51.0885 59.1686 51.9848 58.9992 52.6435 59.4461C60.6453 64.8992 68.7083 64.8884 77.3005 59.4209C77.97 58.992 78.8627 59.1938 79.2874 59.8642C79.7122 60.5346 79.5142 61.4284 78.8447 61.8537C74.0861 64.8884 69.367 66.4021 64.7272 66.4021Z" fill="#5C6BC0"/>
<path d="M33.2598 27.5564C33.6197 19.8075 36.7153 12.491 41.8627 7.33708C52.3734 -3.18707 68.3554 -1.96165 77.5342 10.0762C78.7221 9.82395 79.9099 9.67979 81.0978 9.67979C90.3126 9.67979 97.8717 17.4287 99.2035 27.5564C78.1101 13.6444 56.1529 13.32 33.2598 27.5564Z" fill="#5C6BC0"/>
</svg>
