<svg width="52" height="64" viewBox="0 0 52 64" fill="none" xmlns="http://www.w3.org/2000/svg">
<path d="M24.2303 43.7416L23.1774 36.4352L23.9086 34.9797C23.0897 34.8212 22.3 34.5762 21.5396 34.2303L20.4429 36.4496L21.4957 43.756C23.0458 44.4334 25.8827 45.0386 26.3653 45.0386C26.8332 44.9954 27.3011 44.9233 27.7545 44.808C26.687 44.5486 25.21 44.1595 24.2303 43.7416Z" fill="#F2F7FF"/>
<path d="M4.62025 60.0118V49.5926C4.62025 46.7104 7.67649 43.7994 12.9408 41.5368C12.7946 41.2342 12.6922 40.9171 12.6484 40.5857C5.87784 42.9635 1.87109 46.2781 1.87109 49.5926V60.0118C1.87109 60.8908 3.12869 62.1014 4.03532 62.1014H6.76986C5.89247 62.1014 4.62025 60.8908 4.62025 60.0118Z" fill="#F2F7FF"/>
<path d="M24.2448 32.112C20.823 30.0224 20.4282 25.8864 20.3843 25.0794C20.3697 24.5606 19.9456 24.1571 19.4192 24.1571H19.4046C18.2201 24.1715 16.4799 22.3413 15.8073 19.5744C15.6025 18.7097 15.8804 18.0468 16.2606 17.8595C16.6115 17.6721 17.0064 18.0036 17.1965 18.2198C17.5328 18.6089 18.1616 18.6521 18.5564 18.3206C18.9074 18.0036 18.9805 17.4992 18.7319 17.1101C18.4102 16.2887 17.9861 11.144 17.9861 10.2361C17.9861 6.15773 20.9839 2.69909 25.0637 2.03618C24.6104 1.96412 24.1425 1.9353 23.6892 1.9353C19.039 1.9353 15.2516 5.65335 15.2516 10.2505C15.2516 11.1728 15.6464 16.3031 15.9974 17.1245C16.2898 17.5713 16.1436 18.1477 15.6903 18.4359C15.2955 18.6809 14.769 18.6089 14.4619 18.263C14.2718 18.0468 13.9063 17.7298 13.5261 17.9027C13.1459 18.0901 12.868 18.7386 13.0727 19.6176C13.7454 22.3846 15.4709 24.2148 16.67 24.2003H16.6847C17.2111 24.2003 17.6352 24.6039 17.6498 25.1227C17.6937 25.9297 18.0739 30.0656 21.5103 32.1552C22.841 32.9623 24.4934 33.3658 26.4237 33.3658C26.877 33.3658 27.3303 33.3369 27.7836 33.2793C26.5261 33.1496 25.327 32.7605 24.2448 32.112Z" fill="#F2F7FF"/>
<path d="M43.6351 58.3401C43.8983 58.3977 44.1616 58.4265 44.4102 58.4265C46.5598 58.4265 48.2999 56.6972 48.2999 54.5788C48.2999 52.8495 47.1154 51.3219 45.4192 50.8752C45.2583 46.9554 44.3224 42.9347 42.8747 39.966C42.6408 39.4904 42.0705 39.3031 41.6025 39.5193C41.1346 39.7354 40.9298 40.3119 41.1492 40.773C42.4799 43.4967 43.3427 47.2003 43.5035 50.8319C41.4124 51.3363 40.1256 53.3971 40.6081 55.4579C40.9591 56.9134 42.1436 58.0374 43.6351 58.3401ZM42.4507 54.1753C42.6408 53.2674 43.445 52.6045 44.3809 52.6045C44.5125 52.6045 44.6441 52.6189 44.7757 52.6477C45.8432 52.8639 46.5451 53.8871 46.3258 54.9391C46.1064 55.9911 45.0682 56.6828 44.0007 56.4666C42.9332 56.2649 42.2459 55.2273 42.4507 54.1753Z" fill="#02CAE8"/>
<path d="M4.95684 58.0086C5.4979 58.0519 5.9366 57.6628 5.98047 57.1296C6.02434 56.6108 5.62951 56.164 5.08845 56.1208C4.81061 56.1064 4.57664 55.8758 4.56202 55.602L6.55077 48.8C6.56539 48.7279 6.58002 48.6703 6.59464 48.6127C6.62388 48.2956 6.8871 48.0794 7.19419 48.0939L10.6014 48.3388C10.9231 48.3677 11.1424 48.6271 11.1278 48.9297C11.1278 49.0018 11.1278 49.0594 11.1424 49.1315L12.1368 56.1352C12.0783 56.409 11.8151 56.5964 11.5519 56.5675C11.0108 56.5243 10.5721 56.9278 10.5283 57.4466C10.4844 57.9654 10.8792 58.4122 11.4203 58.441C11.4788 58.441 11.5373 58.441 11.5958 58.441C12.8972 58.441 13.9793 57.4466 14.0671 56.1784C14.0671 56.1064 14.0671 56.0487 14.0525 55.9767L13.0581 48.9297C13.0873 47.6183 12.0783 46.5231 10.7622 46.4366L10.2943 46.4078C10.8939 44.1452 11.7566 41.8539 12.6048 40.384C12.868 39.9228 12.7071 39.3608 12.2392 39.1014C11.7712 38.842 11.2009 39.0005 10.9377 39.4616C9.79711 41.4648 8.89048 44.2173 8.36404 46.2925L7.35504 46.2204C6.02433 46.1195 4.88373 47.0707 4.70825 48.3821L2.70487 55.2129C2.69025 55.285 2.67563 55.3426 2.66101 55.4002C2.57327 56.7405 3.59689 57.9222 4.95684 58.0086Z" fill="#02CAE8"/>
<path d="M23.4551 63.9892C23.5574 64.0036 23.6598 64.0036 23.7622 63.9892H48.0074C49.9523 63.9892 51.9995 61.9428 51.9995 60.0117V49.5926C51.9995 45.3269 47.6272 41.2774 40.301 38.7266C39.9208 37.934 39.2189 37.2567 38.2976 36.7812C38.0198 36.637 36.0164 35.9309 34.2324 35.3112L33.1356 33.1928C36.031 30.9735 36.8645 27.5725 37.1131 25.9441C39.1311 25.4253 40.9736 23.0907 41.7194 20.0067C42.0996 18.4215 41.5586 16.9083 40.3448 16.2743C40.0378 16.1157 39.7014 16.0149 39.3651 15.986C39.95 13.9829 40.5203 11.3457 40.5203 10.7404C40.5203 6.66209 37.1716 3.36197 33.0333 3.36197C32.5361 3.36197 32.0535 3.41961 31.5709 3.50608C27.8128 -0.730765 21.2616 -1.1631 16.9624 2.55495C14.7104 4.50044 13.4236 7.29618 13.4236 10.236C13.4236 10.6684 13.5259 12.3977 13.7014 14.0982C13.7745 14.8476 13.833 15.4528 13.9061 15.9428C13.4967 15.9284 13.1019 16.0293 12.7363 16.2166C11.4933 16.8507 10.9084 18.3927 11.3032 20.0355C12.049 23.1195 13.8915 25.4397 15.9095 25.9729C16.1289 27.6157 16.9185 31.06 19.9017 33.2793L18.761 35.5562C16.4945 36.2624 15.2222 36.6803 15.0029 36.7956C14.2571 37.1558 13.6137 37.7323 13.175 38.424C4.81053 41.1189 -0.000488281 45.1828 -0.000488281 49.5926V60.0117C-0.000488281 61.9572 2.09063 63.9892 4.07938 63.9892H23.4551ZM24.4202 62.1013L21.8319 45.8745C23.6159 46.4654 25.7655 46.8977 26.3797 46.8977C27.0378 46.8977 29.2897 46.451 31.1322 45.8313L28.5878 62.1013H24.4202ZM21.4956 43.7417L20.4427 36.4353L21.5394 34.216C22.9725 34.8789 24.6542 35.2104 26.5113 35.2104C28.3831 35.2104 30.0648 34.8645 31.5271 34.1728L32.5799 36.2191L31.4686 43.6552C29.8747 44.3758 26.9354 44.9954 26.3943 44.9954C25.8679 45.0099 23.0456 44.3902 21.4956 43.7417ZM40.2132 41.753C40.3741 41.4647 40.5057 41.1621 40.5642 40.8307C46.472 43.0644 50.0839 46.3645 50.0839 49.5926V60.0117C50.0839 60.9196 48.8994 62.1013 48.0074 62.1013H31.1322L39.7745 48.6126C40.4326 47.6759 40.725 46.6095 40.5349 45.716C40.4326 45.1396 40.1109 44.6352 39.6283 44.3037C39.3066 44.102 38.941 43.929 38.5901 43.7849C39.2189 43.1796 39.7745 42.4879 40.2132 41.753ZM33.3111 44.3037L34.3493 37.3576C35.8409 37.8764 37.2155 38.3664 37.4495 38.4672C38.0783 38.7843 38.5316 39.2743 38.6778 39.7786C38.7802 40.1389 38.7363 40.5136 38.5462 40.8451C37.7712 42.2285 36.148 43.4246 36.1334 43.439C35.7093 43.7561 35.6069 44.3469 35.9433 44.7649C36.0749 44.9378 36.265 45.0675 36.4843 45.1107C37.0546 45.2548 38.1514 45.5863 38.5901 45.8745C38.6486 45.9322 38.6778 45.9898 38.6778 46.0619C38.7363 46.3645 38.6486 46.9409 38.2099 47.5462C38.1952 47.5606 38.1952 47.575 38.1806 47.5894L31.0591 58.7003L33.3111 44.3037ZM17.7228 25.0938C17.7082 24.575 17.2841 24.1715 16.7577 24.1715C15.5732 24.1859 13.833 22.3557 13.1604 19.5888C12.9556 18.7241 13.2335 18.0612 13.6137 17.8739C13.9646 17.6865 14.3595 18.018 14.5496 18.2342C14.8859 18.6233 15.5147 18.6665 15.9095 18.335C16.2605 18.018 16.3336 17.5136 16.085 17.1245C15.7633 16.3031 15.3392 11.1583 15.3392 10.2504C15.3392 5.66773 19.112 1.93528 23.7768 1.93528C26.3943 1.93528 28.851 3.13139 30.4596 5.17776C30.7082 5.4948 31.103 5.61009 31.4832 5.4948C34.4371 4.64455 37.5372 6.31623 38.3853 9.22726C38.5316 9.73164 38.6047 10.236 38.6047 10.7692C38.6047 11.4754 37.4056 16.3751 36.9961 17.0957C36.6891 17.5136 36.7914 18.1045 37.2155 18.4215C37.5957 18.6953 38.1367 18.6377 38.4585 18.3062C38.6193 18.1477 39.0288 17.773 39.4382 17.9892C39.7745 18.1765 40.067 18.7674 39.8477 19.632C39.175 22.3989 37.4495 24.2291 36.2504 24.2147C35.7239 24.2003 35.2852 24.6038 35.2852 25.1226C35.2267 25.9296 34.7734 30.0512 31.4101 32.1408C30.0794 32.9622 28.4416 33.3801 26.5113 33.3801C24.5811 33.3801 22.9286 32.9766 21.5979 32.1696C18.1615 30.0224 17.7667 25.8864 17.7228 25.0938ZM14.6081 39.7642C14.7543 39.2598 15.2076 38.7843 15.851 38.4528C16.085 38.352 17.3133 37.9484 18.6587 37.5305L19.7115 44.8225C19.7115 44.8513 19.7115 44.8657 19.7262 44.8946L21.9196 58.5706L15.1199 47.7047C15.1052 47.6903 15.1052 47.6759 15.0906 47.6615C14.6812 47.085 14.5496 46.4798 14.6227 46.1195C14.6227 46.0474 14.6666 45.9754 14.7104 45.9177C15.1637 45.6151 16.2605 45.2692 16.8308 45.1251C17.3426 44.9954 17.6497 44.4766 17.5181 43.9578C17.4596 43.7561 17.3426 43.5687 17.1671 43.439C16.7138 43.1076 15.4123 41.9979 14.7543 40.8162C14.5496 40.528 14.4911 40.1389 14.6081 39.7642ZM1.8859 60.0117V49.5926C1.8859 46.2924 5.87803 42.9491 12.6632 40.5857C12.7217 41.0036 12.8533 41.4071 13.0726 41.7674C13.5259 42.5167 14.067 43.2229 14.6958 43.8281C14.3302 43.9578 13.9646 44.1452 13.6283 44.3614C13.1311 44.6928 12.8094 45.2116 12.7217 45.7736C12.5462 46.6959 12.824 47.7768 13.4821 48.7135L21.8758 62.1013H4.05013C3.14349 62.1013 1.8859 60.8908 1.8859 60.0117Z" fill="#02CAE8"/>
<path d="M22.7676 19.459C23.5349 19.459 24.1568 18.8461 24.1568 18.09C24.1568 17.3339 23.5349 16.7209 22.7676 16.7209C22.0004 16.7209 21.3784 17.3339 21.3784 18.09C21.3784 18.8461 22.0004 19.459 22.7676 19.459Z" fill="#02CAE8"/>
<path d="M30.0059 19.459C30.7731 19.459 31.3951 18.8461 31.3951 18.09C31.3951 17.3339 30.7731 16.7209 30.0059 16.7209C29.2387 16.7209 28.6167 17.3339 28.6167 18.09C28.6167 18.8461 29.2387 19.459 30.0059 19.459Z" fill="#02CAE8"/>
<path fill-rule="evenodd" clip-rule="evenodd" d="M32.2106 23.9631C32.3839 24.2318 32.3034 24.588 32.0307 24.7588C30.1533 25.9348 28.252 26.563 26.3405 26.5727C24.4259 26.5824 22.5499 25.9713 20.7275 24.7488C20.4605 24.5697 20.3913 24.2111 20.5731 23.948C20.7549 23.6848 21.1187 23.6167 21.3858 23.7958C23.0437 24.9079 24.692 25.4281 26.3344 25.4198C27.9799 25.4115 29.6687 24.8723 31.4032 23.7858C31.6758 23.6151 32.0373 23.6944 32.2106 23.9631Z" fill="#02CAE8"/>
<path d="M12.3853 11.6915C12.5461 8.377 13.8914 5.26422 16.1142 3.05933C20.6766 -1.43691 27.608 -0.918112 31.6001 4.22663C32.1119 4.11134 32.6383 4.05369 33.1502 4.05369C37.1423 4.05369 40.4325 7.36823 41.0028 11.6915H35.0219L33.9544 9.45783L32.7261 11.6915H12.3853Z" fill="#02CAE8"/>
</svg>
