<svg width="64" height="46" viewBox="0 0 64 46" fill="none" xmlns="http://www.w3.org/2000/svg">
<path d="M57.9411 1.29333H27.8728H25.2261H8.38825C5.07208 1.29333 2.37402 3.84674 2.37402 6.98513V38.8568C2.37402 41.9952 5.07208 44.5486 8.38825 44.5486H57.9411C61.2572 44.5486 63.9553 41.9952 63.9553 38.8568V6.98513C63.9553 3.84674 61.2572 1.29333 57.9411 1.29333Z" fill="white"/>
<path d="M57.7528 0H26.5022H23.757H6.24716C2.80454 0 0 2.71603 0 6.04998V39.95C0 43.284 2.80454 46 6.24716 46H57.7528C61.1955 46 64 43.284 64 39.95V6.04998C64 2.71603 61.1955 0 57.7528 0ZM61.5071 39.95C61.5071 41.9475 59.8303 43.5858 57.7528 43.5858H6.24716C4.18456 43.5858 2.49293 41.9619 2.49293 39.95V6.04998C2.49293 4.05248 4.16972 2.41425 6.24716 2.41425H57.7528C59.8154 2.41425 61.5071 4.03811 61.5071 6.04998V39.95Z" fill="#0758E4"/>
<path d="M18.7415 6.29431C12.1233 6.29431 6.73682 11.5108 6.73682 17.9201C6.73682 24.3293 12.1233 29.5458 18.7415 29.5458C25.3596 29.5458 30.7461 24.3293 30.7461 17.9201C30.7461 11.5108 25.3596 6.29431 18.7415 6.29431ZM13.3104 25.4646C14.2156 23.3665 16.3376 21.9582 18.7415 21.9582C21.1453 21.9582 23.2673 23.3665 24.1725 25.4646C22.6292 26.5136 20.7595 27.1172 18.7415 27.1172C16.7234 27.1172 14.8537 26.5136 13.3104 25.4646ZM16.4711 17.3309V16.871C16.4711 15.6495 17.495 14.6723 18.7415 14.6723C19.9879 14.6723 21.0118 15.6639 21.0118 16.871V17.3309C21.0118 18.5524 19.9879 19.5295 18.7415 19.5295C17.495 19.5295 16.4711 18.5524 16.4711 17.3309ZM26.0867 23.7401C25.2409 22.2456 23.9351 21.0672 22.3621 20.3343C23.0744 19.5295 23.5047 18.4805 23.5047 17.3309V16.871C23.5047 14.3274 21.3679 12.2437 18.7266 12.2437C16.1001 12.2437 13.9485 14.3131 13.9485 16.871V17.3309C13.9485 18.4805 14.3788 19.5295 15.0911 20.3343C13.533 21.0672 12.2124 22.2456 11.3665 23.7401C10.0162 22.145 9.21491 20.1187 9.21491 17.9057C9.21491 12.8329 13.4737 8.70856 18.7118 8.70856C23.9499 8.70856 28.2086 12.8329 28.2086 17.9057C28.2383 20.1331 27.437 22.1594 26.0867 23.7401Z" fill="#0758E4"/>
<path d="M38.047 24.1711H56.0466C56.744 24.1711 57.293 23.6251 57.293 22.964V13.2783C57.293 12.6029 56.7292 12.0712 56.0466 12.0712H38.047C37.3496 12.0712 36.8006 12.6172 36.8006 13.2783V22.964C36.7857 23.6251 37.3496 24.1711 38.047 24.1711ZM39.2935 14.4854H54.8001V21.7569H39.2935V14.4854Z" fill="#02CAE8"/>
<path d="M38.0023 29.0572H56.0019C56.6993 29.0572 57.2483 28.5111 57.2483 27.8501C57.2483 27.189 56.6844 26.6429 56.0019 26.6429H38.0023C37.3049 26.6429 36.7559 27.189 36.7559 27.8501C36.7559 28.5111 37.3049 29.0572 38.0023 29.0572Z" fill="#02CAE8"/>
<path d="M37.1117 33.5409C37.3491 33.7708 37.6607 33.9001 38.002 33.9001C38.3433 33.9001 38.6549 33.7708 38.8924 33.5409C39.1298 33.3109 39.2633 33.0092 39.2633 32.6786C39.2633 32.3481 39.1298 32.0463 38.8924 31.8164C38.6549 31.5865 38.3433 31.4572 38.002 31.4572C37.6607 31.4572 37.3491 31.5865 37.1117 31.8164C36.8743 32.0463 36.7407 32.3481 36.7407 32.6786C36.7407 33.0092 36.8743 33.3253 37.1117 33.5409Z" fill="#02CAE8"/>
<path d="M42.1127 31.8307C41.8752 32.0606 41.7417 32.3624 41.7417 32.6929C41.7417 33.0235 41.8752 33.3252 42.1127 33.5552C42.3501 33.7851 42.6617 33.9144 43.003 33.9144C43.3295 33.9144 43.6559 33.7851 43.8933 33.5552C44.1308 33.3252 44.2643 33.0235 44.2643 32.6929C44.2643 32.3624 44.1308 32.0606 43.8933 31.8307C43.6559 31.6008 43.3443 31.4714 43.003 31.4714C42.6765 31.4858 42.3501 31.6151 42.1127 31.8307Z" fill="#02CAE8"/>
<path d="M56.0019 31.4857H48.0038C47.3064 31.4857 46.7573 32.0318 46.7573 32.6928C46.7573 33.3683 47.3212 33.9 48.0038 33.9H56.0019C56.6994 33.9 57.2484 33.3539 57.2484 32.6928C57.2484 32.0174 56.6845 31.4857 56.0019 31.4857Z" fill="#02CAE8"/>
<path d="M27.704 33.1815C27.704 32.5061 27.1401 31.9744 26.4575 31.9744H11.0399C10.3425 31.9744 9.79346 32.5204 9.79346 33.1815C9.79346 33.8569 10.3573 34.3886 11.0399 34.3886H26.4575C27.1401 34.3886 27.704 33.8569 27.704 33.1815Z" fill="#02CAE8"/>
<path d="M13.0287 36.8173C12.3313 36.8173 11.7822 37.3633 11.7822 38.0244C11.7822 38.6998 12.3461 39.2315 13.0287 39.2315H24.4546C25.152 39.2315 25.7011 38.6854 25.7011 38.0244C25.7011 37.349 25.1372 36.8173 24.4546 36.8173H13.0287Z" fill="#02CAE8"/>
</svg>
