<svg width="62" height="46" viewBox="0 0 62 46" fill="none" xmlns="http://www.w3.org/2000/svg">
<path d="M56.112 1.29346H26.9928H24.4296H8.12323C4.91172 1.29346 2.29883 3.84686 2.29883 6.98525V38.8569C2.29883 41.9953 4.91172 44.5487 8.12323 44.5487H56.112C59.3235 44.5487 61.9364 41.9953 61.9364 38.8569V6.98525C61.9364 3.84686 59.3235 1.29346 56.112 1.29346Z" fill="white"/>
<path d="M55.93 0H25.6657H23.0072H6.04998C2.71603 0 0 2.71603 0 6.04998V39.95C0 43.284 2.71603 46 6.04998 46H55.93C59.264 46 61.98 43.284 61.98 39.95V6.04998C61.98 2.71603 59.264 0 55.93 0ZM59.5658 39.95C59.5658 41.9475 57.9419 43.5858 55.93 43.5858H6.04998C4.05248 43.5858 2.41425 41.9619 2.41425 39.95V6.04998C2.41425 4.05248 4.03811 2.41425 6.04998 2.41425H55.93C57.9275 2.41425 59.5658 4.03811 59.5658 6.04998V39.95V39.95Z" fill="#5C6BC0"/>
<path d="M18.1502 6.29419C11.7409 6.29419 6.52441 11.5107 6.52441 17.9199C6.52441 24.3292 11.7409 29.5457 18.1502 29.5457C24.5594 29.5457 29.7759 24.3292 29.7759 17.9199C29.7759 11.5107 24.5594 6.29419 18.1502 6.29419ZM12.8905 25.4645C13.7671 23.3664 15.8221 21.9581 18.1502 21.9581C20.4782 21.9581 22.5332 23.3664 23.4098 25.4645C21.9152 26.5135 20.1045 27.1171 18.1502 27.1171C16.1958 27.1171 14.3851 26.5135 12.8905 25.4645ZM15.9515 17.3307V16.8709C15.9515 15.6494 16.943 14.6722 18.1502 14.6722C19.3573 14.6722 20.3488 15.6638 20.3488 16.8709V17.3307C20.3488 18.5522 19.3573 19.5294 18.1502 19.5294C16.943 19.5294 15.9515 18.5522 15.9515 17.3307ZM25.2636 23.74C24.4444 22.2455 23.1798 21.0671 21.6566 20.3342C22.3463 19.5294 22.7631 18.4804 22.7631 17.3307V16.8709C22.7631 14.3273 20.6937 12.2436 18.1358 12.2436C15.5922 12.2436 13.5085 14.3129 13.5085 16.8709V17.3307C13.5085 18.4804 13.9252 19.5294 14.615 20.3342C13.1061 21.0671 11.8271 22.2455 11.008 23.74C9.7003 22.1449 8.92429 20.1186 8.92429 17.9056C8.92429 12.8328 13.0486 8.70844 18.1214 8.70844C23.1942 8.70844 27.3185 12.8328 27.3185 17.9056C27.3473 20.133 26.5713 22.1592 25.2636 23.74Z" fill="#5C6BC0"/>
<path d="M36.8461 24.1713H54.2775C54.9529 24.1713 55.4846 23.6252 55.4846 22.9641V13.2784C55.4846 12.603 54.9385 12.0713 54.2775 12.0713H36.8461C36.1707 12.0713 35.6389 12.6174 35.6389 13.2784V22.9641C35.6246 23.6252 36.1707 24.1713 36.8461 24.1713ZM38.0532 14.4855H53.0704V21.757H38.0532V14.4855Z" fill="#A8DBA7"/>
<path d="M36.8028 29.0573H54.2343C54.9097 29.0573 55.4414 28.5112 55.4414 27.8502C55.4414 27.1891 54.8953 26.6431 54.2343 26.6431H36.8028C36.1274 26.6431 35.5957 27.1891 35.5957 27.8502C35.5957 28.5112 36.1274 29.0573 36.8028 29.0573Z" fill="#A8DBA7"/>
<path d="M35.9403 33.5408C36.1702 33.7707 36.472 33.9 36.8025 33.9C37.1331 33.9 37.4348 33.7707 37.6648 33.5408C37.8947 33.3108 38.024 33.009 38.024 32.6785C38.024 32.348 37.8947 32.0462 37.6648 31.8163C37.4348 31.5864 37.1331 31.457 36.8025 31.457C36.472 31.457 36.1702 31.5864 35.9403 31.8163C35.7104 32.0462 35.5811 32.348 35.5811 32.6785C35.5811 33.009 35.7104 33.3252 35.9403 33.5408Z" fill="#A8DBA7"/>
<path d="M40.7831 31.8307C40.5532 32.0606 40.4238 32.3624 40.4238 32.6929C40.4238 33.0235 40.5532 33.3252 40.7831 33.5552C41.013 33.7851 41.3148 33.9144 41.6453 33.9144C41.9615 33.9144 42.2776 33.7851 42.5076 33.5552C42.7375 33.3252 42.8668 33.0235 42.8668 32.6929C42.8668 32.3624 42.7375 32.0606 42.5076 31.8307C42.2776 31.6008 41.9758 31.4714 41.6453 31.4714C41.3292 31.4858 41.013 31.6151 40.7831 31.8307Z" fill="#A8DBA7"/>
<path d="M54.2341 31.4858H46.4884C45.813 31.4858 45.2812 32.0319 45.2812 32.693C45.2812 33.3684 45.8273 33.9001 46.4884 33.9001H54.2341C54.9095 33.9001 55.4412 33.354 55.4412 32.693C55.4412 32.0175 54.8951 31.4858 54.2341 31.4858Z" fill="#A8DBA7"/>
<path d="M26.8296 33.1815C26.8296 32.5061 26.2835 31.9744 25.6225 31.9744H10.6915C10.0161 31.9744 9.48438 32.5204 9.48438 33.1815C9.48438 33.8569 10.0305 34.3886 10.6915 34.3886H25.6225C26.2835 34.3886 26.8296 33.8569 26.8296 33.1815Z" fill="#A8DBA7"/>
<path d="M12.6173 36.8174C11.9419 36.8174 11.4102 37.3635 11.4102 38.0245C11.4102 38.6999 11.9562 39.2316 12.6173 39.2316H23.6826C24.358 39.2316 24.8897 38.6855 24.8897 38.0245C24.8897 37.3491 24.3436 36.8174 23.6826 36.8174H12.6173Z" fill="#A8DBA7"/>
</svg>
