<svg width="24" height="24" viewBox="0 0 24 24" fill="none" xmlns="http://www.w3.org/2000/svg">
<circle cx="12" cy="12" r="8" stroke="#5C6BC0" stroke-width="2"/>
<path d="M11.076 13.916H12.636C12.444 12.26 15.072 12.044 15.072 10.292C15.072 8.696 13.8 7.88 12.06 7.88C10.776 7.88 9.72 8.468 8.952 9.356L9.936 10.256C10.524 9.644 11.124 9.308 11.856 9.308C12.804 9.308 13.38 9.716 13.38 10.448C13.38 11.612 10.824 12.032 11.076 13.916ZM11.868 17.12C12.468 17.12 12.924 16.676 12.924 16.052C12.924 15.428 12.468 14.996 11.868 14.996C11.256 14.996 10.8 15.428 10.8 16.052C10.8 16.676 11.244 17.12 11.868 17.12Z" fill="#5C6BC0"/>
</svg>
