<svg width="18" height="18" viewBox="0 0 18 18" fill="none" xmlns="http://www.w3.org/2000/svg">
<path fill-rule="evenodd" clip-rule="evenodd" d="M1 0C0.447715 0 0 0.447715 0 1V1.25C0 1.80228 0.447716 2.25 1 2.25H17C17.5523 2.25 18 1.80228 18 1.25V1C18 0.447715 17.5523 0 17 0H1ZM0 5.5C0 4.94772 0.447715 4.5 1 4.5H17C17.5523 4.5 18 4.94772 18 5.5V5.75C18 6.30228 17.5523 6.75 17 6.75H1C0.447716 6.75 0 6.30228 0 5.75V5.5ZM1 9C0.447715 9 0 9.44771 0 10V17C0 17.5523 0.447716 18 1 18H17C17.5523 18 18 17.5523 18 17V10C18 9.44772 17.5523 9 17 9H1ZM15.2812 14.4856L16.71 15.9144C16.9299 16.1345 16.9299 16.4899 16.7103 16.7101C16.4901 16.93 16.1347 16.93 15.9148 16.7101L14.486 15.2813C14.0412 15.5761 13.5097 15.7498 12.9375 15.7498C11.3866 15.7498 10.125 14.4883 10.125 12.9374C10.125 11.3866 11.3869 10.125 12.9375 10.125C14.4881 10.125 15.7498 11.3866 15.7498 12.9372C15.7498 13.5093 15.576 14.0408 15.2812 14.4856ZM11.2501 12.9374C11.2501 13.8679 12.007 14.6248 12.9375 14.6248C13.8677 14.6248 14.625 13.8679 14.625 12.9374C14.625 12.007 13.868 11.25 12.9375 11.25C12.007 11.25 11.2501 12.007 11.2501 12.9374Z" fill="#979797"/>
</svg>
