<svg width="25" height="24" viewBox="0 0 25 24" fill="none" xmlns="http://www.w3.org/2000/svg">
<path d="M16.75 10C18.41 10 19.74 8.66 19.74 7C19.74 5.34 18.41 4 16.75 4C15.09 4 13.75 5.34 13.75 7C13.75 8.66 15.09 10 16.75 10ZM8.75 10C10.41 10 11.74 8.66 11.74 7C11.74 5.34 10.41 4 8.75 4C7.09 4 5.75 5.34 5.75 7C5.75 8.66 7.09 10 8.75 10ZM8.75 12C6.42 12 1.75 13.17 1.75 15.5V18H15.75V15.5C15.75 13.17 11.08 12 8.75 12ZM16.75 12C16.46 12 16.13 12.02 15.78 12.05C16.94 12.89 17.75 14.02 17.75 15.5V18H23.75V15.5C23.75 13.17 19.08 12 16.75 12Z" fill="#979797"/>
</svg>
