<svg width="24" height="24" viewBox="0 0 24 24" fill="none" xmlns="http://www.w3.org/2000/svg">
<path fill-rule="evenodd" clip-rule="evenodd" d="M2.33301 1.33301C1.78072 1.33301 1.33301 1.78072 1.33301 2.33301V2.99967C1.33301 3.55196 1.78072 3.99967 2.33301 3.99967H21.6663C22.2186 3.99967 22.6663 3.55196 22.6663 2.99967V2.33301C22.6663 1.78072 22.2186 1.33301 21.6663 1.33301H2.33301ZM1.33301 7.66634C1.33301 7.11406 1.78072 6.66634 2.33301 6.66634H21.6663C22.2186 6.66634 22.6663 7.11406 22.6663 7.66634V8.33301C22.6663 8.88529 22.2186 9.33301 21.6663 9.33301H2.33301C1.78072 9.33301 1.33301 8.88529 1.33301 8.33301V7.66634ZM1.33301 12.9997C1.33301 12.4474 1.78072 11.9997 2.33301 11.9997H21.6663C22.2186 11.9997 22.6663 12.4474 22.6663 12.9997V21.6663C22.6663 22.2186 22.2186 22.6663 21.6663 22.6663H2.33301C1.78072 22.6663 1.33301 22.2186 1.33301 21.6663V12.9997Z" fill="#999999"/>
</svg>
