<svg width="24" height="24" viewBox="0 0 24 24" fill="none" xmlns="http://www.w3.org/2000/svg">
<path d="M18 6H16.72C16.89 5.7 17 5.37 17 5C17 3.9 16.1 3 15 3C13.34 3 12 4.34 12 6C12 4.34 10.66 3 9 3C7.9 3 7 3.9 7 5C7 5.37 7.11 5.7 7.28 6H6C4.34 6 3 7.34 3 9V17C3 18.66 4.34 20 6 20H18C19.66 20 21 18.66 21 17V9C21 7.34 19.66 6 18 6ZM15 4C15.55 4 16 4.45 16 5C16 5.55 15.55 6 15 6H13C13 4.9 13.9 4 15 4ZM8 5C8 4.45 8.45 4 9 4C10.1 4 11 4.9 11 6H9C8.45 6 8 5.55 8 5ZM19.8 17C19.8 17.99 18.99 18.8 18 18.8H6C5.01 18.8 4.2 17.99 4.2 17V16.7H19.8V17ZM15.42 13.53C15.31 13.37 14.45 13.57 14.38 13.47C14.32 13.37 14.5 13.24 14.66 13.17C14.87 13.07 15.84 12.92 15.97 13.14C16.1 13.37 15.77 14.21 15.59 14.43C15.45 14.6 15.34 14.67 15.27 14.57C15.2 14.47 15.56 13.74 15.43 13.54L15.42 13.53ZM14.76 13.9C15.06 13.76 15.18 14.04 14.89 14.25C12.86 15.79 10.29 15.52 8.17 13.76C7.85 13.49 8 13.25 8.35 13.44C10.48 14.61 12.68 14.87 14.76 13.89V13.9ZM4.2 11.7V9C4.2 8.01 5.01 7.2 6 7.2H10.08L8.32 8.96L9.17 9.81L11.78 7.2H12.22L14.83 9.81L15.68 8.96L13.92 7.2H18C18.99 7.2 19.8 8.01 19.8 9V11.7H4.2Z" fill="#5C6BC0"/>
</svg>
