<svg width="21" height="20" viewBox="0 0 21 20" fill="none" xmlns="http://www.w3.org/2000/svg">
<mask id="mask0_3071_44" style="mask-type:luminance" maskUnits="userSpaceOnUse" x="0" y="0" width="21" height="20">
<path d="M20.5 0H0.5V20H20.5V0Z" fill="white"/>
</mask>
<g mask="url(#mask0_3071_44)">
<path d="M20.1 10.2273C20.1 9.51819 20.0364 8.83639 19.9182 8.18179H10.5V12.05H15.8818C15.65 13.3 14.9455 14.3591 13.8864 15.0682V17.5773H17.1182C19.0091 15.8364 20.1 13.2727 20.1 10.2273Z" fill="#4285F4"/>
<path d="M10.5 20C13.2 20 15.4636 19.1045 17.1181 17.5773L13.8863 15.0682C12.9909 15.6682 11.8454 16.0227 10.5 16.0227C7.8954 16.0227 5.6909 14.2636 4.9045 11.9H1.5636V14.4909C3.2091 17.7591 6.5909 20 10.5 20Z" fill="#34A853"/>
<path d="M4.9045 11.9C4.7045 11.3 4.5909 10.6591 4.5909 9.99999C4.5909 9.34089 4.7045 8.69999 4.9045 8.09999V5.50909H1.5636C0.8864 6.85909 0.5 8.38639 0.5 9.99999C0.5 11.6136 0.8864 13.1409 1.5636 14.4909L4.9045 11.9Z" fill="#FBBC04"/>
<path d="M10.5 3.9773C11.9681 3.9773 13.2863 4.4818 14.3227 5.4727L17.1909 2.6045C15.4591 0.9909 13.1954 0 10.5 0C6.5909 0 3.2091 2.2409 1.5636 5.5091L4.9045 8.1C5.6909 5.7364 7.8954 3.9773 10.5 3.9773Z" fill="#E94235"/>
</g>
</svg>
