<svg width="24" height="24" viewBox="0 0 24 24" fill="none" xmlns="http://www.w3.org/2000/svg">
<path d="M19.9972 6.03517C19.9972 6.06027 19.994 6.08399 19.9932 6.1084C20.0086 7.36025 19.9932 16.8841 19.9924 17.9211C19.994 17.9358 19.9972 17.9497 19.9972 17.9651C19.9972 19.0872 18.9386 20.0001 17.6373 20.0001H16.8561H4.60898H4.48929C4.21917 20.0001 4 19.8111 4 19.5782V7.66083C4 7.4279 4.21917 7.2389 4.48848 7.2382C4.49172 7.2382 4.49333 7.2389 4.49657 7.2389C4.53296 7.23192 4.57016 7.22704 4.60898 7.22704H17.6373C18.3717 7.22704 18.8099 6.77861 18.8528 6.15442C18.8528 6.11607 18.852 6.08747 18.8512 6.06864C18.8512 6.05748 18.8536 6.04633 18.8544 6.03517C18.8245 5.40052 18.3806 5.00012 17.6373 5.00012H5.1401V6.00867C5.1401 6.2416 4.83879 6.50012 4.56867 6.50012C4.29855 6.50012 4 6.2416 4 6.00867V4.42206C4 4.18912 4.21917 4.00012 4.48929 4.00012H17.7117C17.7368 4.00012 17.7611 4.00291 17.7853 4.0064C19.0179 4.07335 19.9972 4.95627 19.9972 6.03517Z" fill="#5C6BC0"/>
</svg>
