<svg width="24" height="24" viewBox="0 0 24 24" fill="none" xmlns="http://www.w3.org/2000/svg">
<path d="M18.1909 4.88867H5.80991C4.81162 4.88867 4 5.70644 4 6.71312V17.289C4 18.2948 4.81162 19.1109 5.80991 19.1109H18.1909C19.1892 19.1109 20 18.294 20 17.289V6.71312C19.9992 5.70644 19.1884 4.88867 18.1909 4.88867ZM14.3461 6.71253C15.3111 6.71253 16.0935 7.50091 16.0935 8.47317C16.0935 9.44543 15.3111 10.2338 14.3461 10.2338C13.3803 10.2338 12.5987 9.44543 12.5987 8.47317C12.5987 7.50091 13.3803 6.71253 14.3461 6.71253ZM17.6235 17.4258H11.9996H6.62653C6.14406 17.4258 5.92907 17.074 6.14655 16.64L9.1464 10.6536C9.36389 10.2195 9.77803 10.1809 10.0714 10.5671L13.0879 14.5384C13.3812 14.9247 13.8937 14.9574 14.2336 14.6115L14.9711 13.8584C15.3102 13.5124 15.8094 13.5553 16.0869 13.9532L17.9976 16.7029C18.2726 17.1026 18.1059 17.4258 17.6235 17.4258Z" fill="#6C6C6C"/>
</svg>
