<svg width="24" height="24" viewBox="0 0 24 24" fill="none" xmlns="http://www.w3.org/2000/svg">
<path d="M17.5 13C17.5 14.93 15.93 16.5 14 16.5C12.07 16.5 10.5 14.93 10.5 13C10.5 11.07 12.07 9.5 14 9.5C15.93 9.5 17.5 11.07 17.5 13ZM21 14C21 16.67 19.5 18.99 17.3 20.17C17.1 20.27 16.9 20.37 16.7 20.46C16.68 20.46 16.66 20.47 16.64 20.48C16.45 20.56 16.26 20.63 16.06 20.69C16.01 20.71 15.96 20.72 15.91 20.73C15.74 20.78 15.57 20.82 15.4 20.86C15.3 20.88 15.19 20.89 15.09 20.91C14.96 20.93 14.84 20.95 14.71 20.97C14.48 20.99 14.24 21.01 14 21.01C13.76 21.01 13.52 21 13.29 20.97C13.16 20.96 13.03 20.93 12.91 20.91C12.81 20.89 12.7 20.88 12.6 20.86C12.42 20.82 12.25 20.78 12.08 20.73C12.03 20.72 11.98 20.71 11.93 20.69C11.73 20.63 11.54 20.56 11.35 20.48C11.33 20.48 11.31 20.47 11.3 20.46C8.77 19.4 7 16.91 7 14C7 10.13 10.13 7 14 7C17.87 7 21 10.13 21 14ZM19.8 14C19.8 10.8 17.2 8.2 14 8.2C10.8 8.2 8.2 10.8 8.2 14C8.2 15.72 8.96 17.26 10.15 18.32C11.19 17.81 12.53 17.5 14 17.5C15.47 17.5 16.81 17.81 17.85 18.32C19.04 17.26 19.8 15.71 19.8 14ZM17.47 5.24C17.71 5.17 17.96 5.12 18.21 5.12C18.28 5.12 18.35 5.12 18.42 5.13C18.89 5.16 19.14 5.29 19.48 5.61C19.82 5.93 19.9 6.43 19.81 6.93C19.77 7.15 19.71 7.31 19.61 7.47C19.88 7.68 20.13 7.91 20.38 8.15C20.6 7.85 20.8 7.52 20.91 7.13C21.01 6.77 21.04 6.37 20.96 5.97C20.87 5.57 20.68 5.21 20.44 4.92C19.77 4.14 18.82 3.78 17.87 3.78C17.57 3.78 17.27 3.82 16.98 3.88L16.66 3L15.02 5.44L17.79 6.06L17.49 5.24H17.47ZM7.07 10.27C7.25 9.93 7.47 9.61 7.7 9.3C6.86 8.98 6.26 8.17 6.26 7.21C6.26 5.97 7.26 4.97 8.5 4.97C9.62 4.97 10.54 5.79 10.71 6.86C11.56 6.47 12.49 6.22 13.47 6.16C12.59 4.3 10.7 3.01 8.5 3.01C5.46 3.01 3 5.47 3 8.51C3 10.71 4.29 12.6 6.15 13.48C6.19 12.91 6.28 12.35 6.44 11.82C6.04 11.61 5.67 11.37 5.36 11.06C5.78 10.71 6.38 10.45 7.07 10.29V10.27Z" fill="#5C6BC0"/>
</svg>
