<svg width="24" height="24" viewBox="0 0 24 24" fill="none" xmlns="http://www.w3.org/2000/svg">
<g id="Frame 10648">
<circle id="Ellipse 59" cx="11.9992" cy="11.9992" r="10.15" stroke="#0758E4" stroke-width="1.3"/>
<circle id="Ellipse 60" cx="11.9996" cy="11.9996" r="8.15" stroke="#0758E4" stroke-width="0.5" stroke-dasharray="1 1"/>
<g id="Group 10613">
<path id="P" d="M9.76562 7.36523H13.2672C15.0211 7.36523 16.2354 8.5988 16.2354 10.3656C16.2354 12.1003 14.9954 13.3275 13.2543 13.3275H10.9221V16.6363H9.76562V7.36523ZM10.9221 8.39321V12.2995H12.9652C14.2823 12.2995 15.0468 11.5928 15.0468 10.3656C15.0468 9.09352 14.308 8.39321 12.9652 8.39321H10.9221Z" fill="#0758E4"/>
<path id="P (Stroke)" fill-rule="evenodd" clip-rule="evenodd" d="M9.59961 7.19922H13.2656C14.1823 7.19922 14.9679 7.52232 15.5245 8.08574C16.0809 8.649 16.3984 9.44216 16.3984 10.3641C16.3984 11.2718 16.0733 12.0554 15.5121 12.6123C14.9511 13.1691 14.1629 13.4904 13.2528 13.4904H11.085V16.7992H9.59961V7.19922ZM9.92856 7.52817V16.4703H10.7561V13.1615H13.2528C14.0837 13.1615 14.7862 12.8693 15.2804 12.3788C15.7745 11.8884 16.0694 11.1911 16.0694 10.3641C16.0694 9.5192 15.7797 8.81216 15.2905 8.31692C14.8014 7.82186 14.1029 7.52817 13.2656 7.52817H9.92856ZM10.7561 8.22719H12.9637C13.6621 8.22719 14.2287 8.40951 14.6212 8.78145C15.0151 9.15471 15.2098 9.6962 15.2098 10.3641C15.2098 11.0127 15.0067 11.544 14.6103 11.9118C14.2155 12.278 13.6504 12.4624 12.9637 12.4624H10.7561V8.22719ZM11.085 8.55615V12.1335H12.9637C13.594 12.1335 14.0697 11.9646 14.3865 11.6706C14.7016 11.3783 14.8808 10.9426 14.8808 10.3641C14.8808 9.75987 14.7061 9.31515 14.3949 9.02023C14.0823 8.72399 13.608 8.55615 12.9637 8.55615H11.085Z" fill="#0758E4"/>
</g>
</g>
</svg>
