<svg width="46" height="46" viewBox="0 0 214 214" fill="none"
    xmlns="http://www.w3.org/2000/svg">
    <path d="M185.338 60.8013C196.033 60.8013 204.708 52.1356 204.708 41.4445C204.708 30.7533 196.033 22.0876 185.338 22.0876C174.642 22.0876 165.984 30.7533 165.984 41.4445C165.984 52.1356 174.66 60.8013 185.338 60.8013Z" fill="#02CAE8"/>
    <path d="M27.6843 185.749C38.0634 185.749 46.4931 177.33 46.4931 166.956C46.4931 156.581 38.0809 148.162 27.6843 148.162C17.2876 148.162 8.87549 156.581 8.87549 166.956C8.87549 177.33 17.2876 185.749 27.6843 185.749Z" fill="#0758E4"/>
    <path d="M178.559 185.854C203.567 162.869 215.772 129.598 212.471 96.6615C212.453 96.4854 212.295 96.3445 212.119 96.3445H160.277L147.123 60.2905C147 59.9382 146.666 59.7092 146.297 59.7092H127.348C126.997 59.7092 126.681 59.9206 126.54 60.2376L86.5518 153.851C86.306 154.433 86.7274 155.084 87.3597 155.084H109.804C110.155 155.084 110.471 154.873 110.612 154.556L135.883 95.2349L145.138 117.956C145.279 118.29 145.56 118.449 145.911 118.449L187.849 118.502C185.302 137.136 176.434 154.75 162.05 167.942L162.086 167.977C138.359 189.764 104.149 195.788 74.4868 183.23C74.2409 183.124 73.9599 183.23 73.8546 183.477C72.5374 186.541 64.775 204.647 64.775 204.647C64.5819 205.088 64.7751 205.616 65.2317 205.81C78.5612 211.411 92.3473 214 106.309 214C132.599 214 158.521 204.313 178.576 185.89H178.559V185.854Z" fill="#02CAE8"/>
    <path d="M134.741 3.73477C135.25 3.87568 135.567 4.49214 135.356 4.9853L126.399 25.9801C126.224 26.3852 125.837 26.5966 125.416 26.4909C99.2134 20.3792 71.2197 27.4244 50.9708 46.0062C36.8335 58.9871 28.0174 76.1599 25.2953 94.3718L62.9305 94.407C63.2817 94.407 63.5978 94.6184 63.7383 94.9354L68.2517 105.345L83.8116 69.4845L88.2196 59.3393C88.3601 59.0223 88.6763 58.8109 89.0275 58.8109H111.05C111.682 58.8109 112.104 59.4626 111.858 60.0263L71.7641 153.552C71.6236 153.869 71.3075 154.08 70.9563 154.08H65.6877C65.3365 154.08 65.0204 153.869 64.8799 153.552L48.9161 116.511L24.9616 116.423L0.761317 116.441C0.585698 116.441 0.42764 116.3 0.410078 116.124C-2.45251 83.5926 9.75302 50.8322 34.4802 28.0937C61.6836 3.11831 99.7227 -5.79392 134.741 3.73477Z" fill="#0758E4"/>
</svg>

