<svg width="24" height="24" viewBox="0 0 24 24" fill="none" xmlns="http://www.w3.org/2000/svg">
<path d="M11 5.12H19C19.55 5.12 20 5.57 20 6.12C20 6.53 19.66 6.87 19.25 6.87H10.75C10.34 6.87 10 6.53 10 6.12C10 5.57 10.45 5.12 11 5.12Z" fill="#5C6BC0"/>
<path d="M6 8C7.10457 8 8 7.10457 8 6C8 4.89543 7.10457 4 6 4C4.89543 4 4 4.89543 4 6C4 7.10457 4.89543 8 6 8Z" fill="#5C6BC0"/>
<path d="M11 11.12H19C19.55 11.12 20 11.57 20 12.12C20 12.53 19.66 12.87 19.25 12.87H10.75C10.34 12.87 10 12.53 10 12.12C10 11.57 10.45 11.12 11 11.12Z" fill="#5C6BC0"/>
<path d="M6 14C7.10457 14 8 13.1046 8 12C8 10.8954 7.10457 10 6 10C4.89543 10 4 10.8954 4 12C4 13.1046 4.89543 14 6 14Z" fill="#5C6BC0"/>
<path d="M11 17.12H19C19.55 17.12 20 17.57 20 18.12C20 18.53 19.66 18.87 19.25 18.87H10.75C10.34 18.87 10 18.53 10 18.12C10 17.57 10.45 17.12 11 17.12Z" fill="#5C6BC0"/>
<path d="M6 20C7.10457 20 8 19.1046 8 18C8 16.8954 7.10457 16 6 16C4.89543 16 4 16.8954 4 18C4 19.1046 4.89543 20 6 20Z" fill="#5C6BC0"/>
</svg>
