<svg width="25" height="24" viewBox="0 0 25 24" fill="none" xmlns="http://www.w3.org/2000/svg">
<path d="M19.3666 5.63455C17.6075 3.87545 15.3084 3 13.0012 3C10.6939 3 8.3948 3.87545 6.63571 5.63455C3.11752 9.15273 3.11752 14.8473 6.63571 18.3655C8.3948 20.1245 10.6939 21 13.0012 21C15.3084 21 17.6075 20.1245 19.3666 18.3655C22.8766 14.8473 22.8766 9.15273 19.3666 5.63455ZM13.0012 6.12545C14.8093 6.12545 16.2739 7.59 16.2739 9.39818C16.2739 11.2064 14.8093 12.6709 13.0012 12.6709C11.193 12.6709 9.72843 11.2064 9.72843 9.39818C9.72843 7.59 11.193 6.12545 13.0012 6.12545ZM17.5503 16.9582C14.5148 17.0973 11.4875 17.0973 8.45207 16.9582C8.20662 16.9582 8.02662 16.6882 8.10843 16.4345C9.86752 12.9082 16.1266 12.9082 17.8857 16.4345C17.9757 16.6882 17.7957 16.9582 17.5503 16.9582Z" fill="#5C6BC0"/>
</svg>
