<svg width="25" height="24" viewBox="0 0 25 24" fill="none" xmlns="http://www.w3.org/2000/svg">
<path d="M20.4927 3.51273C18.1473 1.16727 15.0818 0 12.0055 0C8.92909 0 5.86364 1.16727 3.51818 3.51273C-1.17273 8.20364 -1.17273 15.7964 3.51818 20.4873C5.86364 22.8327 8.92909 24 12.0055 24C15.0818 24 18.1473 22.8327 20.4927 20.4873C25.1727 15.7964 25.1727 8.20364 20.4927 3.51273ZM12.0055 4.16727C14.4164 4.16727 16.3691 6.12 16.3691 8.53091C16.3691 10.9418 14.4164 12.8945 12.0055 12.8945C9.59454 12.8945 7.64182 10.9418 7.64182 8.53091C7.64182 6.12 9.59454 4.16727 12.0055 4.16727ZM18.0709 18.6109C14.0236 18.7964 9.98727 18.7964 5.94 18.6109C5.61273 18.6109 5.37273 18.2509 5.48182 17.9127C7.82727 13.2109 16.1727 13.2109 18.5182 17.9127C18.6382 18.2509 18.3982 18.6109 18.0709 18.6109Z" fill="#5C6BC0"/>
</svg>
