<svg width="24" height="24" viewBox="0 0 24 24" fill="none" xmlns="http://www.w3.org/2000/svg">
<g clip-path="url(#clip0_5973_106741)">
<path d="M14.8 13.8V16.5H7.6V10.2C7.6 8.211 9.211 6.6 11.2 6.6C11.965 6.6 12.676 6.834 13.252 7.248L14.539 5.961C13.963 5.502 13.288 5.169 12.55 4.98V4.35C12.55 3.603 11.947 3 11.2 3C10.453 3 9.85 3.603 9.85 4.35V4.98C7.519 5.574 5.8 7.689 5.8 10.2V16.5H4V18.3H18.4V16.5H16.6V13.8H14.8ZM11.2 21C12.19 21 13 20.19 13 19.2H9.4C9.4 20.19 10.21 21 11.2 21ZM22 8.4H19.3V5.7H17.5V8.4H14.8V10.2H17.5V12.9H19.3V10.2H22V8.4Z" fill="#5C6BC0"/>
</g>
<defs>
<clipPath id="clip0_5973_106741">
<rect width="24" height="24" fill="white"/>
</clipPath>
</defs>
</svg>
