<svg width="29" height="28" viewBox="0 0 29 28" fill="none" xmlns="http://www.w3.org/2000/svg">
<path fill-rule="evenodd" clip-rule="evenodd" d="M14.5 28C22.232 28 28.5 21.732 28.5 14C28.5 6.26801 22.232 0 14.5 0C6.76801 0 0.5 6.26801 0.5 14C0.5 21.732 6.76801 28 14.5 28ZM15.9791 6H9.5V22H12.7886V16.955H15.9791C19.2895 16.955 21.5 14.7817 21.5 11.4886V11.4664C21.5 8.17325 19.2895 6 15.9791 6ZM12.7886 8.65003H15.1733C17.0572 8.65003 18.1679 9.65904 18.1679 11.4775V11.4997C18.1679 13.3181 17.0572 14.3382 15.1733 14.3382H12.7886V8.65003Z" fill="#02CAE8"/>
</svg>
