<svg width="24" height="24" viewBox="0 0 24 24" fill="none" xmlns="http://www.w3.org/2000/svg">
<path d="M12 3C7.03 3 3 7.03 3 12C3 16.97 7.03 21 12 21C16.97 21 21 16.97 21 12C21 7.03 16.97 3 12 3ZM12 19.8C7.7 19.8 4.2 16.3 4.2 12C4.2 7.7 7.7 4.2 12 4.2C16.3 4.2 19.8 7.7 19.8 12C19.8 16.3 16.3 19.8 12 19.8ZM16.03 10.21C16.42 10.12 16.81 10.37 16.9 10.76C16.99 11.15 16.74 11.54 16.35 11.63C15.96 11.72 15.57 11.47 15.48 11.08C15.39 10.69 15.64 10.3 16.03 10.21ZM8.58 14.18C8.58 14.58 8.25 14.91 7.85 14.91C7.45 14.91 7.12 14.58 7.12 14.18C7.12 13.78 7.45 13.45 7.85 13.45C8.25 13.45 8.58 13.78 8.58 14.18ZM16.97 12.55C17.02 12.76 16.99 13.03 16.95 13.2C16.7 14.16 16.16 15.03 15.39 15.7C14.47 16.49 13.28 16.93 12.05 16.93C11.34 16.93 10.65 16.79 10.01 16.51C9.56 16.32 9.14 16.06 8.77 15.75C8.54 15.56 8.53 15.22 8.74 15.01C8.92 14.83 9.21 14.82 9.4 14.99C9.7 15.24 10.03 15.44 10.4 15.6C10.92 15.82 11.47 15.94 12.05 15.94C13.04 15.94 14 15.59 14.74 14.95C15.36 14.42 15.79 13.72 15.99 12.96C15.99 12.94 15.99 12.93 16.01 12.91H13.48C13.36 12.91 13.26 12.85 13.21 12.75C13.19 12.72 13.17 12.69 13.16 12.65L12.77 11.03L12.28 13.75C12.25 13.92 12.09 14.03 11.92 14H11.91C11.79 13.98 11.7 13.89 11.67 13.79C11.67 13.79 11.67 13.78 11.67 13.77L11.09 11.79L10.61 12.85C10.56 12.97 10.43 13.04 10.31 13.03C10.31 13.03 10.3 13.03 10.29 13.03H7.38C7.24 13.03 7.13 12.94 7.09 12.82C7.04 12.72 7.04 12.57 7.03 12.41C7.02 12.28 7.01 12.15 7.01 12.01C7.01 10.69 7.54 9.45 8.49 8.52C9.44 7.59 10.71 7.08 12.06 7.08C13.69 7.08 15.21 7.85 16.15 9.12C16.33 9.36 16.26 9.7 16 9.85C15.78 9.98 15.5 9.92 15.35 9.71C14.59 8.69 13.37 8.08 12.06 8.08C9.82 8.08 8 9.84 8 12.01C8 12.11 8 12.21 8.01 12.32C8.01 12.34 8.01 12.37 8.01 12.39H10.11L10.85 10.75C10.88 10.67 10.95 10.62 11.02 10.59C11.02 10.59 11.04 10.59 11.05 10.59H11.06C11.22 10.54 11.4 10.63 11.44 10.8L11.88 12.32L12.39 9.51C12.39 9.51 12.39 9.49 12.39 9.48C12.39 9.34 12.49 9.22 12.63 9.18H12.64C12.81 9.14 12.97 9.24 13.01 9.41L13.69 12.29H16.64C16.64 12.29 16.7 12.29 16.73 12.3C16.8 12.3 16.85 12.35 16.89 12.41C16.92 12.46 16.95 12.51 16.95 12.57L16.97 12.55ZM21 3.97V4.02C20.51 4.12 20.12 4.51 20.03 4.99H19.98C19.88 4.5 19.49 4.11 19.01 4.02V3.97C19.5 3.87 19.89 3.48 19.98 3H20.03C20.13 3.49 20.52 3.88 21 3.97ZM5 19.97V20.02C4.51 20.12 4.12 20.51 4.03 20.99H3.98C3.88 20.5 3.49 20.11 3.01 20.02V19.97C3.5 19.87 3.89 19.48 3.98 19H4.03C4.13 19.49 4.52 19.88 5 19.97Z" fill="#5C6BC0"/>
</svg>
