<svg width="32" height="16" viewBox="0 0 32 16" fill="none" xmlns="http://www.w3.org/2000/svg">
<path fill-rule="evenodd" clip-rule="evenodd" d="M24 1.33333C24.7364 1.33333 25.3333 0.73638 25.3333 0H31C31.5523 0 32 0.447715 32 1V15C32 15.5523 31.5523 16 31 16H25.3333C25.3333 15.2636 24.7364 14.6667 24 14.6667C23.2636 14.6667 22.6667 15.2636 22.6667 16H1C0.447716 16 0 15.5523 0 15V1C0 0.447715 0.447715 0 1 0H22.6667C22.6667 0.73638 23.2636 1.33333 24 1.33333ZM25.3333 4C25.3333 4.73638 24.7364 5.33333 24 5.33333C23.2636 5.33333 22.6667 4.73638 22.6667 4C22.6667 3.26362 23.2636 2.66667 24 2.66667C24.7364 2.66667 25.3333 3.26362 25.3333 4ZM25.3333 12C25.3333 12.7364 24.7364 13.3333 24 13.3333C23.2636 13.3333 22.6667 12.7364 22.6667 12C22.6667 11.2636 23.2636 10.6667 24 10.6667C24.7364 10.6667 25.3333 11.2636 25.3333 12ZM24 9.33333C24.7364 9.33333 25.3333 8.73638 25.3333 8C25.3333 7.26362 24.7364 6.66667 24 6.66667C23.2636 6.66667 22.6667 7.26362 22.6667 8C22.6667 8.73638 23.2636 9.33333 24 9.33333Z" fill="#0758E4"/>
</svg>
