<svg width="25" height="24" viewBox="0 0 25 24" fill="none" xmlns="http://www.w3.org/2000/svg">
<path fill-rule="evenodd" clip-rule="evenodd" d="M5.77485 4C4.79301 4 3.99707 4.79594 3.99707 5.77778V14.6667C3.99707 15.6485 4.79301 16.4444 5.77485 16.4444H11.1082V18.2222H8.44151V20H17.3304V18.2222H14.6637V16.4444H19.9971C20.9789 16.4444 21.7748 15.6485 21.7748 14.6667V5.77778C21.7748 4.79594 20.9789 4 19.9971 4H5.77485ZM9.4704 12.7639C9.56374 12.8472 9.67263 12.8889 9.79707 12.8889H15.2967C15.4212 12.8889 15.5301 12.8472 15.6234 12.7639C15.7167 12.6806 15.7634 12.5833 15.7634 12.4722V11.2755L17.4523 12.0903V8.35417L15.7634 9.16898V7.97222C15.7634 7.86111 15.7167 7.76389 15.6234 7.68056C15.5301 7.59722 15.4212 7.55556 15.2967 7.55556H9.79707C9.67263 7.55556 9.56374 7.59722 9.4704 7.68056C9.37707 7.76389 9.3304 7.86111 9.3304 7.97222V12.4722C9.3304 12.5833 9.37707 12.6806 9.4704 12.7639Z" fill="#5C6BC0"/>
</svg>
