<svg width="40" height="40" viewBox="0 0 40 40" fill="none" xmlns="http://www.w3.org/2000/svg">
<g id="star">
<path id="Subtract" d="M7.16523 37.1269C6.97073 38.2355 8.06465 39.1033 9.03075 38.6068L20.0038 32.9669L30.9769 38.6068C31.943 39.1033 33.0369 38.2355 32.8424 37.1269L30.7681 25.3032L39.5739 16.9116C40.3969 16.1273 39.9709 14.6934 38.8684 14.5368L26.6222 12.7971L21.1619 1.98076C20.67 1.00641 19.3376 1.00641 18.8457 1.98076L13.3854 12.7971L1.13924 14.5368C0.0367714 14.6934 -0.389229 16.1273 0.433723 16.9116L9.23955 25.3032L7.16523 37.1269ZM19.4267 30.2065L10.2124 34.9425L11.948 25.0493C12.0298 24.5829 11.876 24.1053 11.5411 23.7863L4.27403 16.861L14.4048 15.4218C14.8236 15.3623 15.1893 15.0949 15.3868 14.7035L20.0038 5.55769L24.6208 14.7035C24.8184 15.0949 25.184 15.3623 25.6028 15.4218L35.7336 16.861L28.4665 23.7863C28.1317 24.1053 27.9778 24.5829 28.0596 25.0493L29.7953 34.9425L20.5809 30.2065C20.2169 30.0195 19.7907 30.0195 19.4267 30.2065Z" fill="#BAC0CA"/>
</g>
</svg>
