<svg width="357" height="64" viewBox="0 0 357 64" fill="none"
    xmlns="http://www.w3.org/2000/svg">
    <g filter="url(#filter0_d_9518_153779)">
        <rect x="4" width="349" height="56" rx="28" fill="#5C6BC0"/>
    </g>
    <path d="M53.72 30.968L50.552 30.68C50.384 31.592 50.096 32.744 50.096 34.136C50.096 37.448 52.856 39.296 58.352 39.296C61.712 39.296 64.592 38.96 66.68 38.456L66.656 35.096C64.544 35.672 61.472 36.032 58.232 36.032C54.776 36.032 53.312 34.952 53.312 33.392C53.312 32.6 53.48 31.832 53.72 30.968ZM65.816 18.32L63.92 19.088C64.256 19.568 64.616 20.168 64.952 20.792C63.104 20.96 60.512 21.104 58.232 21.104C55.712 21.104 53.48 21.008 51.704 20.792V23.984C53.648 24.128 55.736 24.248 58.256 24.248C60.536 24.248 63.512 24.08 65.192 23.96V21.272C65.408 21.68 65.624 22.088 65.792 22.448L67.736 21.608C67.28 20.72 66.416 19.184 65.816 18.32ZM68.672 17.24L66.752 18.008C67.424 18.92 68.192 20.312 68.696 21.32L70.616 20.504C70.184 19.664 69.296 18.128 68.672 17.24ZM79.448 27.392H83.576V24.776H79.448V21.2C80.912 20.84 82.304 20.432 83.504 19.952L81.488 17.744C79.16 18.8 75.296 19.712 71.84 20.216C72.176 20.816 72.536 21.824 72.656 22.448C73.952 22.28 75.32 22.064 76.688 21.8V24.776H72.128V27.392H76.136C75.056 29.888 73.304 32.624 71.576 34.304C72.032 35.024 72.728 36.248 73.016 37.088C74.336 35.696 75.608 33.632 76.688 31.448V40.04H79.448V31.76C80.408 32.744 81.416 33.824 81.992 34.568L83.648 32.12C83 31.616 80.624 29.576 79.448 28.688V27.392ZM87.488 20.576H84.704V33.992H87.488V20.576ZM90.368 18.128V36.584C90.368 37.016 90.176 37.16 89.72 37.184C89.216 37.184 87.68 37.184 86.12 37.112C86.552 37.928 86.984 39.248 87.104 40.064C89.288 40.088 90.896 39.992 91.88 39.512C92.864 39.056 93.2 38.264 93.2 36.608V18.128H90.368ZM108.68 30.392V27.44H113.744V30.392H108.68ZM101.216 30.392C101.264 29.504 101.288 28.64 101.288 27.872V27.44H105.8V30.392H101.216ZM105.8 21.992V24.776H101.288V21.992H105.8ZM113.744 24.776H108.68V21.992H113.744V24.776ZM116.576 19.28H98.456V27.848C98.456 31.208 98.24 35.48 95.624 38.36C96.272 38.696 97.424 39.68 97.88 40.208C99.608 38.336 100.472 35.696 100.904 33.08H105.8V39.776H108.68V33.08H113.744V36.68C113.744 37.112 113.576 37.256 113.12 37.256C112.688 37.256 111.104 37.28 109.76 37.208C110.12 37.952 110.576 39.176 110.672 39.944C112.832 39.968 114.296 39.92 115.28 39.44C116.24 39.008 116.576 38.24 116.576 36.704V19.28ZM137.456 18.776L135.56 19.568C136.208 20.504 136.928 21.92 137.432 22.904L139.352 22.064C138.896 21.176 138.056 19.664 137.456 18.776ZM140.288 17.696L138.392 18.488C139.064 19.4 139.832 20.792 140.312 21.8L142.232 20.96C141.8 20.12 140.912 18.608 140.288 17.696ZM131.288 18.992H127.76C127.856 19.568 127.928 20.672 127.928 21.2C127.928 21.92 127.904 22.616 127.88 23.288H124.448C123.536 23.288 122.288 23.24 121.28 23.12V26.288C122.312 26.192 123.632 26.168 124.448 26.168H127.616C127.088 29.816 125.888 32.528 123.656 34.736C122.696 35.696 121.496 36.512 120.512 37.064L123.296 39.32C127.592 36.272 129.872 32.528 130.76 26.168H136.16C136.16 28.76 135.848 33.56 135.152 35.072C134.888 35.672 134.552 35.912 133.784 35.912C132.848 35.912 131.6 35.792 130.424 35.6L130.808 38.792C131.96 38.888 133.4 39.008 134.768 39.008C136.424 39.008 137.336 38.36 137.864 37.16C138.896 34.712 139.184 27.992 139.28 25.4C139.28 25.136 139.376 24.536 139.448 24.128L137.36 23.12C136.784 23.24 136.16 23.288 135.56 23.288H131.048C131.096 22.592 131.12 21.896 131.144 21.152C131.168 20.576 131.216 19.568 131.288 18.992ZM144.488 28.664L146 31.688C148.952 30.824 152 29.528 154.472 28.232V35.912C154.472 36.968 154.4 38.48 154.304 39.056H158.096C157.928 38.456 157.88 36.968 157.88 35.912V26.216C160.208 24.68 162.512 22.808 164.336 21.008L161.744 18.536C160.184 20.432 157.448 22.832 154.976 24.368C152.312 26 148.784 27.56 144.488 28.664ZM183.368 20.144L181.352 20.984C182.24 22.232 182.768 23.192 183.464 24.704L185.552 23.768C185 22.688 184.04 21.152 183.368 20.144ZM186.512 18.824L184.52 19.76C185.408 20.96 185.984 21.848 186.752 23.36L188.768 22.376C188.216 21.296 187.208 19.784 186.512 18.824ZM173.792 36.056C173.792 36.992 173.696 38.456 173.552 39.392H177.32C177.2 38.408 177.08 36.728 177.08 36.056V29.264C179.672 30.128 183.272 31.52 185.768 32.84L187.112 29.504C184.904 28.424 180.272 26.72 177.08 25.76V22.256C177.08 21.248 177.2 20.192 177.296 19.352H173.552C173.72 20.216 173.792 21.392 173.792 22.256V36.056ZM202.664 18.752L199.496 18.488C199.448 19.352 199.28 20.288 199.016 21.248C198.632 21.248 198.224 21.248 197.864 21.248C196.64 21.248 194.864 21.152 193.64 20.96V23.768C194.96 23.864 196.712 23.912 197.696 23.912C197.792 23.912 197.888 23.912 198.008 23.912C196.928 26.072 195.224 28.208 192.704 30.536L195.272 32.456C196.088 31.4 196.784 30.536 197.504 29.816C198.416 28.928 199.904 28.16 201.248 28.16C201.92 28.16 202.568 28.376 202.928 28.976C200.192 30.392 197.312 32.312 197.312 35.384C197.312 38.48 200.096 39.392 203.864 39.392C206.12 39.392 209.072 39.2 210.656 38.984L210.752 35.888C208.64 36.296 205.976 36.56 203.936 36.56C201.584 36.56 200.456 36.2 200.456 34.88C200.456 33.68 201.416 32.744 203.216 31.712C203.192 32.768 203.168 33.92 203.096 34.64H205.976C205.952 33.536 205.904 31.76 205.88 30.416C207.344 29.744 208.712 29.216 209.792 28.784C210.608 28.472 211.88 27.992 212.648 27.776L211.448 24.992C210.56 25.448 209.72 25.832 208.784 26.24C207.8 26.672 206.792 27.08 205.544 27.656C205.016 26.432 203.816 25.808 202.352 25.808C201.56 25.808 200.264 26 199.64 26.288C200.12 25.592 200.6 24.728 201.008 23.84C203.6 23.768 206.552 23.576 208.832 23.24L208.856 20.456C206.744 20.816 204.344 21.032 202.064 21.152C202.376 20.144 202.544 19.352 202.664 18.752ZM226.376 34.88C226.376 33.968 227.288 33.392 228.656 33.392C229.304 33.392 229.952 33.488 230.576 33.656C230.576 33.824 230.576 33.968 230.576 34.088C230.576 35.504 230.072 36.272 228.608 36.272C227.336 36.272 226.376 35.864 226.376 34.88ZM233.504 19.208H230.072C230.168 19.688 230.24 20.432 230.24 20.792C230.24 21.296 230.264 22.28 230.264 23.456C229.712 23.48 229.136 23.48 228.584 23.48C227.144 23.48 225.752 23.408 224.384 23.264V26.12C225.8 26.216 227.168 26.264 228.584 26.264C229.136 26.264 229.712 26.264 230.288 26.24C230.312 27.944 230.408 29.696 230.456 31.184C229.976 31.112 229.448 31.088 228.896 31.088C225.632 31.088 223.568 32.768 223.568 35.192C223.568 37.712 225.632 39.104 228.944 39.104C232.184 39.104 233.48 37.472 233.624 35.168C234.584 35.816 235.544 36.656 236.552 37.592L238.208 35.072C237.056 34.016 235.544 32.792 233.552 31.976C233.456 30.344 233.336 28.424 233.288 26.096C234.608 26 235.856 25.856 237.008 25.688V22.688C235.856 22.928 234.608 23.12 233.288 23.24C233.312 22.184 233.336 21.296 233.36 20.768C233.384 20.24 233.432 19.664 233.504 19.208ZM221.792 19.472L218.48 19.184C218.456 19.952 218.336 20.864 218.24 21.536C217.976 23.384 217.256 27.92 217.256 31.544C217.256 34.808 217.712 37.544 218.216 39.224L220.928 39.008C220.904 38.672 220.88 38.264 220.88 38.024C220.88 37.76 220.928 37.232 221 36.896C221.288 35.6 222.056 33.152 222.728 31.184L221.264 29.984C220.904 30.8 220.496 31.616 220.184 32.456C220.112 31.976 220.088 31.376 220.088 30.896C220.088 28.496 220.88 23.216 221.24 21.608C221.312 21.176 221.6 19.952 221.792 19.472ZM253.736 21.032L251.648 21.92C252.512 23.144 253.136 24.296 253.856 25.832L255.992 24.896C255.464 23.792 254.408 22.04 253.736 21.032ZM256.952 19.712L254.888 20.672C255.776 21.872 256.424 22.976 257.192 24.488L259.28 23.48C258.752 22.4 257.648 20.696 256.952 19.712ZM247.544 19.112L243.68 19.064C243.872 20 243.968 21.152 243.968 22.304C243.968 24.368 243.752 30.68 243.752 33.896C243.752 37.976 246.272 39.704 250.208 39.704C255.68 39.704 259.088 36.512 260.648 34.208L258.464 31.544C256.712 34.16 254.216 36.464 250.256 36.464C248.384 36.464 246.92 35.672 246.92 33.248C246.92 30.248 247.112 24.896 247.232 22.304C247.28 21.344 247.4 20.12 247.544 19.112ZM279.776 19.184L276.464 18.872C276.464 19.424 276.392 20.456 276.272 21.152C276.224 21.512 276.152 21.896 276.056 22.304C274.208 22.376 272.432 22.832 270.608 23.744C270.44 23.24 270.296 22.736 270.176 22.28C269.984 21.56 269.792 20.768 269.648 19.976L266.504 20.96C266.936 21.824 267.2 22.592 267.464 23.456C267.68 24.104 267.872 24.752 268.112 25.4C265.928 27.32 264.56 30.248 264.56 32.984C264.56 36.08 266.384 37.76 268.376 37.76C270.152 37.76 271.496 36.968 273.104 35.216C273.344 35.528 273.632 35.84 273.92 36.152L276.344 34.232C275.888 33.8 275.456 33.296 275.024 32.792C276.392 30.704 277.448 27.944 278.288 25.16C280.688 25.808 282.176 27.8 282.176 30.464C282.176 33.464 280.088 36.176 274.832 36.608L276.656 39.392C281.648 38.624 285.272 35.72 285.272 30.632C285.272 26.432 282.776 23.384 279.008 22.52C279.08 22.208 279.152 21.92 279.224 21.608C279.368 21.008 279.584 19.832 279.776 19.184ZM267.368 32.744C267.368 31.256 268.016 29.552 269.144 28.232C269.84 30.032 270.608 31.664 271.376 32.84C270.488 33.92 269.6 34.664 268.736 34.664C267.872 34.664 267.368 33.92 267.368 32.744ZM271.472 26.36C272.6 25.688 273.872 25.184 275.336 25.016C274.784 26.792 274.064 28.664 273.2 30.2C272.624 29.24 272.024 27.848 271.472 26.36ZM296.36 35.168C296.36 34.568 296.936 34.016 297.848 34.016C299.144 34.016 300.032 35.024 300.176 36.584C299.744 36.632 299.288 36.656 298.784 36.656C297.344 36.656 296.36 36.056 296.36 35.168ZM292.28 19.712L292.376 22.832C292.928 22.76 293.696 22.688 294.344 22.64C295.616 22.568 298.928 22.424 300.152 22.4C298.976 23.432 296.48 25.448 295.136 26.552C293.72 27.728 290.816 30.176 289.112 31.544L291.296 33.8C293.864 30.872 296.264 28.928 299.936 28.928C302.768 28.928 304.928 30.392 304.928 32.552C304.928 34.016 304.256 35.12 302.936 35.816C302.6 33.536 300.8 31.712 297.824 31.712C295.28 31.712 293.528 33.512 293.528 35.456C293.528 37.856 296.048 39.392 299.384 39.392C305.192 39.392 308.072 36.392 308.072 32.6C308.072 29.096 304.976 26.552 300.896 26.552C300.128 26.552 299.408 26.624 298.616 26.816C300.128 25.616 302.648 23.504 303.944 22.592C304.496 22.184 305.072 21.848 305.624 21.488L304.064 19.352C303.776 19.448 303.224 19.52 302.24 19.616C300.872 19.736 295.736 19.832 294.464 19.832C293.792 19.832 292.952 19.808 292.28 19.712Z" fill="white"/>
    <defs>
        <filter id="filter0_d_9518_153779" x="0" y="0" width="357" height="64" filterUnits="userSpaceOnUse" color-interpolation-filters="sRGB">
            <feFlood flood-opacity="0" result="BackgroundImageFix"/>
            <feColorMatrix in="SourceAlpha" type="matrix" values="0 0 0 0 0 0 0 0 0 0 0 0 0 0 0 0 0 0 127 0" result="hardAlpha"/>
            <feOffset dy="4"/>
            <feGaussianBlur stdDeviation="2"/>
            <feComposite in2="hardAlpha" operator="out"/>
            <feColorMatrix type="matrix" values="0 0 0 0 0 0 0 0 0 0 0 0 0 0 0 0 0 0 0.25 0"/>
            <feBlend mode="normal" in2="BackgroundImageFix" result="effect1_dropShadow_9518_153779"/>
            <feBlend mode="normal" in="SourceGraphic" in2="effect1_dropShadow_9518_153779" result="shape"/>
        </filter>
    </defs>
</svg>
