<svg width="24" height="24" viewBox="0 0 24 24" fill="none" xmlns="http://www.w3.org/2000/svg">
<g id="ticket-perferated">
<g id="Union">
<path d="M6 7.275V8.625H7.5V7.275H6Z" fill="#0758E4"/>
<path d="M16.5 7.275V8.625H18V7.275H16.5Z" fill="#0758E4"/>
<path d="M6 9.975V11.325H7.5V9.975H6Z" fill="#0758E4"/>
<path d="M16.5 9.975V11.325H18V9.975H16.5Z" fill="#0758E4"/>
<path d="M6 12.675V14.025H7.5V12.675H6Z" fill="#0758E4"/>
<path d="M16.5 12.675V14.025H18V12.675H16.5Z" fill="#0758E4"/>
<path d="M6 15.375V16.725H7.5V15.375H6Z" fill="#0758E4"/>
<path d="M16.5 15.375V16.725H18V15.375H16.5Z" fill="#0758E4"/>
<path d="M2.25 4.5C1.00736 4.5 0 5.50736 0 6.75V9C0 9.41421 0.335786 9.75 0.75 9.75C1.99264 9.75 3 10.7574 3 12C3 13.2426 1.99264 14.25 0.75 14.25C0.335786 14.25 0 14.5858 0 15V17.25C0 18.4926 1.00736 19.5 2.25 19.5H21.75C22.9926 19.5 24 18.4926 24 17.25V15C24 14.5858 23.6642 14.25 23.25 14.25C22.0074 14.25 21 13.2426 21 12C21 10.7574 22.0074 9.75 23.25 9.75C23.6642 9.75 24 9.41421 24 9V6.75C24 5.50736 22.9926 4.5 21.75 4.5H2.25ZM1.5 6.75C1.5 6.33579 1.83579 6 2.25 6H21.75C22.1642 6 22.5 6.33579 22.5 6.75V8.32501C20.7883 8.67247 19.5 10.1858 19.5 12C19.5 13.8142 20.7883 15.3275 22.5 15.675V17.25C22.5 17.6642 22.1642 18 21.75 18H2.25C1.83579 18 1.5 17.6642 1.5 17.25V15.675C3.21168 15.3275 4.5 13.8142 4.5 12C4.5 10.1858 3.21168 8.67247 1.5 8.32501V6.75Z" fill="#0758E4"/>
</g>
</g>
</svg>
