<svg width="40" height="40" viewBox="0 0 40 40" fill="none" xmlns="http://www.w3.org/2000/svg">
<path fill-rule="evenodd" clip-rule="evenodd" d="M23.3164 3.32636C20.0183 2.67062 16.5998 3.00777 13.4933 4.29513C10.3868 5.5825 7.73194 7.76226 5.86446 10.5587C3.99698 13.3551 3.00081 16.6426 3.00196 20.0052C3.00349 24.5118 4.79439 28.8333 7.98099 32.0199C11.1676 35.2065 15.4891 36.9973 19.9956 36.9989C23.3583 37 26.6457 36.0038 29.4422 34.1364C32.2386 32.2689 34.4183 29.614 35.7057 26.5075C36.9931 23.4011 37.3302 19.9826 36.6745 16.6844C36.0187 13.3863 34.3996 10.3568 32.0218 7.97903C29.6441 5.60127 26.6145 3.9821 23.3164 3.32636ZM12.3448 1.52369C15.9995 0.0091368 20.0213 -0.387509 23.9014 0.383957C27.7816 1.15542 31.3458 3.06033 34.1431 5.85771C36.9405 8.65509 38.8454 12.2193 39.6169 16.0994C40.3883 19.9796 39.9917 24.0014 38.4771 27.6561C36.9626 31.3108 34.3982 34.4342 31.1082 36.6312C27.8183 38.8282 23.9507 40.0002 19.9946 39.9989C14.6928 39.9971 9.60862 37.8901 5.85967 34.1412C2.11072 30.3922 0.0037615 25.3081 0.00195428 20.0063C0.000607815 16.0502 1.17258 12.1826 3.36963 8.89262C5.56667 5.60268 8.69009 3.03824 12.3448 1.52369ZM12.4883 20.0132C12.4875 19.1848 13.1584 18.5125 13.9868 18.5117L18.4883 18.5073V14.0059C18.4883 13.1774 19.1599 12.5059 19.9883 12.5059C20.8167 12.5059 21.4883 13.1774 21.4883 14.0059V18.5044L25.9868 18.5C26.8152 18.4992 27.4875 19.1701 27.4883 19.9985C27.4891 20.827 26.8182 21.4992 25.9897 21.5L21.4883 21.5044V26.0059C21.4883 26.8343 20.8167 27.5059 19.9883 27.5059C19.1599 27.5059 18.4883 26.8343 18.4883 26.0059V21.5073L13.9897 21.5117C13.1613 21.5125 12.4891 20.8416 12.4883 20.0132Z" fill="white"/>
</svg>
