<svg width="40" height="40" viewBox="0 0 40 40" fill="none" xmlns="http://www.w3.org/2000/svg">
<path fill-rule="evenodd" clip-rule="evenodd" d="M13.4933 4.29513C16.5998 3.00777 20.0183 2.67062 23.3164 3.32636C26.6145 3.9821 29.644 5.60127 32.0218 7.97903C34.3996 10.3568 36.0187 13.3863 36.6745 16.6844C37.3302 19.9826 36.9931 23.4011 35.7057 26.5075C34.4183 29.614 32.2386 32.2689 29.4421 34.1364C26.6457 36.0038 23.3583 37 19.9956 36.9989C15.4891 36.9973 11.1676 35.2065 7.98098 32.0199C4.79439 28.8333 3.00349 24.5118 3.00195 20.0052C3.00081 16.6426 3.99698 13.3551 5.86446 10.5587C7.73194 7.76226 10.3868 5.5825 13.4933 4.29513ZM23.9014 0.383956C20.0213 -0.38751 15.9995 0.00913608 12.3448 1.52369C8.69009 3.03824 5.56667 5.60268 3.36963 8.89262C1.17258 12.1825 0.000606656 16.0502 0.00195312 20.0063C0.00376034 25.3081 2.11071 30.3922 5.85966 34.1412C9.60862 37.8901 14.6928 39.9971 19.9946 39.9989C23.9507 40.0002 27.8183 38.8282 31.1082 36.6312C34.3982 34.4342 36.9626 31.3108 38.4771 27.6561C39.9917 24.0014 40.3883 19.9796 39.6169 16.0994C38.8454 12.2193 36.9405 8.65509 34.1431 5.85771C31.3458 3.06033 27.7816 1.15542 23.9014 0.383956ZM13.9868 18.5117C13.1584 18.5125 12.4875 19.1848 12.4883 20.0132C12.4891 20.8416 13.1613 21.5125 13.9897 21.5117L25.9897 21.5C26.8182 21.4992 27.4891 20.827 27.4883 19.9985C27.4875 19.1701 26.8152 18.4992 25.9868 18.5L13.9868 18.5117Z" fill="#02CAE8"/>
</svg>
