<svg width="41" height="40" viewBox="0 0 41 40" fill="none" xmlns="http://www.w3.org/2000/svg">
<path fill-rule="evenodd" clip-rule="evenodd" d="M22.002 14C22.002 13.1716 21.3304 12.5 20.502 12.5C19.6735 12.5 19.002 13.1716 19.002 14V18.5015L14.5005 18.5059C13.6721 18.5067 13.0011 19.1789 13.002 20.0073C13.0028 20.8357 13.675 21.5067 14.5034 21.5059L19.002 21.5015V26C19.002 26.8284 19.6735 27.5 20.502 27.5C21.3304 27.5 22.002 26.8284 22.002 26V21.4985L26.5034 21.4942C27.3318 21.4933 28.0028 20.8211 28.0019 19.9927C28.0011 19.1643 27.3289 18.4933 26.5005 18.4942L22.002 18.4985V14Z" fill="#02CAE8"/>
<path d="M2.00195 20.0058C2.00071 16.3464 3.08478 12.7688 5.11704 9.72565C7.14931 6.68247 10.0385 4.31037 13.419 2.90941C16.7996 1.50845 20.5198 1.14156 24.1089 1.85516C27.698 2.56876 30.9949 4.3308 33.5825 6.91837C36.17 9.50594 37.9321 12.8028 38.6457 16.3919C39.3593 19.9811 38.9924 23.7012 37.5914 27.0818C36.1905 30.4624 33.8184 33.3515 30.7752 35.3838C27.732 37.416 24.1545 38.5001 20.4951 38.4989C15.5909 38.4972 10.8881 36.5483 7.42032 33.0805C3.95255 29.6128 2.00362 24.9099 2.00195 20.0058Z" stroke="#02CAE8" stroke-width="3" stroke-linecap="round" stroke-linejoin="round"/>
</svg>
