<svg width="296" height="75" viewBox="0 0 296 75" fill="none" xmlns="http://www.w3.org/2000/svg">
<g filter="url(#filter0_d_1157_18964)">
<rect width="296" height="65" rx="32.5" fill="#16C4DE"/>
<path d="M44.876 22.144H43.064C43.136 21.676 43.16 21.208 43.16 20.584V13.972H42.584C42.14 13.972 41.792 13.996 41.348 14.044V12.52C41.72 12.58 41.984 12.592 42.548 12.592H43.652C44.264 12.592 44.444 12.58 44.876 12.532C44.804 13.24 44.78 13.792 44.78 14.512V20.584C44.78 21.22 44.804 21.652 44.876 22.144ZM50.539 20.392V22.144C50.539 23.176 50.275 23.56 49.303 23.944L48.871 23.308C49.603 23.104 49.771 22.888 49.783 22.144H48.775V20.392H50.539ZM55.5373 22.336C54.5173 22.336 53.6533 22 53.0173 21.364C52.6573 21.004 52.3813 20.584 52.2253 20.152C51.9133 19.3 51.7573 18.364 51.7573 17.392C51.7573 16.12 52.0453 14.8 52.4893 14.068C53.1373 12.988 54.2173 12.4 55.5493 12.4C56.5693 12.4 57.4453 12.736 58.0813 13.372C58.4413 13.732 58.7173 14.152 58.8733 14.584C59.1853 15.424 59.3413 16.384 59.3413 17.368C59.3413 18.844 59.0173 20.14 58.4533 20.92C57.7813 21.856 56.7853 22.336 55.5373 22.336ZM55.5493 20.944C56.0773 20.944 56.5453 20.764 56.8453 20.44C57.3853 19.876 57.6853 18.76 57.6853 17.356C57.6853 15.964 57.3853 14.872 56.8453 14.284C56.5573 13.96 56.0773 13.78 55.5373 13.78C54.9613 13.78 54.5413 13.972 54.1933 14.392C53.6653 15.016 53.4013 16 53.4013 17.308C53.4013 18.568 53.6293 19.612 54.0133 20.164C54.3853 20.692 54.8893 20.944 55.5493 20.944ZM64.0803 22.336C63.0603 22.336 62.1963 22 61.5603 21.364C61.2003 21.004 60.9243 20.584 60.7683 20.152C60.4563 19.3 60.3003 18.364 60.3003 17.392C60.3003 16.12 60.5883 14.8 61.0323 14.068C61.6803 12.988 62.7603 12.4 64.0923 12.4C65.1123 12.4 65.9883 12.736 66.6243 13.372C66.9843 13.732 67.2603 14.152 67.4163 14.584C67.7283 15.424 67.8843 16.384 67.8843 17.368C67.8843 18.844 67.5603 20.14 66.9963 20.92C66.3243 21.856 65.3283 22.336 64.0803 22.336ZM64.0923 20.944C64.6203 20.944 65.0883 20.764 65.3883 20.44C65.9283 19.876 66.2283 18.76 66.2283 17.356C66.2283 15.964 65.9283 14.872 65.3883 14.284C65.1003 13.96 64.6203 13.78 64.0803 13.78C63.5043 13.78 63.0843 13.972 62.7363 14.392C62.2083 15.016 61.9443 16 61.9443 17.308C61.9443 18.568 62.1723 19.612 62.5563 20.164C62.9283 20.692 63.4323 20.944 64.0923 20.944ZM72.6233 22.336C71.6033 22.336 70.7393 22 70.1033 21.364C69.7433 21.004 69.4673 20.584 69.3113 20.152C68.9993 19.3 68.8433 18.364 68.8433 17.392C68.8433 16.12 69.1313 14.8 69.5753 14.068C70.2233 12.988 71.3033 12.4 72.6353 12.4C73.6553 12.4 74.5313 12.736 75.1673 13.372C75.5273 13.732 75.8033 14.152 75.9593 14.584C76.2713 15.424 76.4273 16.384 76.4273 17.368C76.4273 18.844 76.1033 20.14 75.5393 20.92C74.8673 21.856 73.8713 22.336 72.6233 22.336ZM72.6353 20.944C73.1633 20.944 73.6313 20.764 73.9313 20.44C74.4713 19.876 74.7713 18.76 74.7713 17.356C74.7713 15.964 74.4713 14.872 73.9313 14.284C73.6433 13.96 73.1633 13.78 72.6233 13.78C72.0473 13.78 71.6273 13.972 71.2793 14.392C70.7513 15.016 70.4873 16 70.4873 17.308C70.4873 18.568 70.7153 19.612 71.0993 20.164C71.4713 20.692 71.9753 20.944 72.6353 20.944ZM82.1023 12.076H83.6503C83.6023 12.28 83.5663 12.88 83.5663 13.312C83.5663 15.244 83.8783 16.516 84.7423 18.04C85.2463 18.94 85.7863 19.576 86.6383 20.32C87.3463 20.944 87.7063 21.196 88.4983 21.616C88.0423 22.084 87.8503 22.372 87.5623 22.948C86.0983 21.928 85.3663 21.244 84.5143 20.116C83.7823 19.144 83.3263 18.22 82.9183 16.84C82.6903 17.8 82.4743 18.352 81.9823 19.264C81.5023 20.14 80.9863 20.788 80.1343 21.568C79.5103 22.144 79.1143 22.432 78.2743 22.948C77.9983 22.396 77.7703 22.096 77.3383 21.712C78.5623 21.064 79.1983 20.572 79.9543 19.708C81.5023 17.932 82.1503 15.964 82.1503 13.084C82.1503 12.616 82.1383 12.4 82.1023 12.076ZM97.9183 12.184L99.4303 12.208C99.4183 12.34 99.4183 12.34 99.3103 13.876C99.2503 14.956 99.0103 16.3 98.7343 17.224C98.5423 17.848 98.3143 18.376 97.9783 18.976C98.5903 20.044 99.4303 20.872 100.594 21.556C100.246 21.964 100.006 22.36 99.7543 22.924C98.6983 22.168 97.8823 21.292 97.1743 20.152C96.2023 21.376 94.9543 22.264 93.1543 23.02C92.8783 22.48 92.6743 22.168 92.3863 21.832C94.4983 21.016 95.7943 20.044 96.6703 18.628C97.5343 17.236 97.9663 15.352 97.9663 12.976C97.9663 12.592 97.9543 12.46 97.9183 12.184ZM90.6583 19.936L90.5983 13.648C90.5863 13.012 90.5623 12.652 90.5023 12.22H92.0263C91.9902 12.556 91.9663 12.916 91.9663 13.396V13.66L92.0263 19.384C93.1303 18.892 94.3063 18.268 95.1103 17.752L95.3983 19.012C93.9103 19.924 92.9023 20.44 90.6823 21.4C90.2263 21.604 90.1423 21.64 89.8423 21.784L89.4583 20.32C89.8783 20.224 90.0823 20.152 90.6583 19.936ZM93.0103 13.648L94.1623 12.916C95.1103 13.876 95.6503 14.548 96.5383 15.856L95.3023 16.708C94.3903 15.196 94.1023 14.812 93.0103 13.648ZM107.302 16.792V21.208H110.758C111.394 21.208 111.934 21.184 112.378 21.136V22.576C111.874 22.516 111.382 22.492 110.782 22.492H103.162C102.598 22.492 102.046 22.516 101.506 22.576V21.136C101.974 21.184 102.478 21.208 103.162 21.208H105.898V13.456C105.898 12.928 105.874 12.568 105.814 12.076H107.386C107.326 12.52 107.302 12.916 107.302 13.456V15.508H110.122C110.65 15.508 111.082 15.484 111.514 15.436V16.864C111.082 16.816 110.626 16.792 110.122 16.792H107.302ZM119.842 14.308C119.614 16.192 119.194 17.848 118.594 19.204C117.91 20.752 117.142 21.46 116.158 21.46C114.79 21.46 113.806 20.068 113.806 18.136C113.806 16.816 114.274 15.58 115.126 14.644C116.134 13.54 117.55 12.964 119.254 12.964C122.134 12.964 124.006 14.716 124.006 17.416C124.006 19.492 122.926 21.148 121.09 21.892C120.514 22.132 120.046 22.252 119.206 22.396C119.002 21.76 118.858 21.496 118.474 20.992C119.578 20.848 120.298 20.656 120.862 20.332C121.906 19.756 122.53 18.616 122.53 17.332C122.53 16.18 122.014 15.244 121.054 14.668C120.682 14.452 120.37 14.356 119.842 14.308ZM118.378 14.32C117.754 14.392 117.322 14.56 116.83 14.908C115.822 15.628 115.198 16.864 115.198 18.148C115.198 19.132 115.618 19.912 116.146 19.912C116.542 19.912 116.95 19.408 117.382 18.376C117.838 17.296 118.234 15.676 118.378 14.32ZM131.578 14.968V19.9H134.482C135.322 19.9 135.574 19.888 136.042 19.816V21.328C135.61 21.28 135.298 21.268 134.506 21.268H127.306C126.514 21.268 126.202 21.28 125.77 21.328V19.816C126.238 19.888 126.49 19.9 127.33 19.9H130.042V14.968H128.206C127.414 14.968 127.102 14.98 126.67 15.028V13.528C127.126 13.6 127.414 13.612 128.23 13.612H133.57C134.386 13.612 134.674 13.6 135.13 13.528V15.028C134.698 14.98 134.398 14.968 133.594 14.968H131.578ZM141.574 14.56L141.394 13.54C141.286 12.952 141.238 12.748 141.106 12.412L142.69 12.16C142.702 12.472 142.75 12.82 142.834 13.288L143.026 14.332L145.558 13.936C146.146 13.84 146.398 13.78 146.71 13.672L146.962 15.112C146.638 15.136 146.638 15.136 145.81 15.268L143.278 15.664L143.638 17.632L146.458 17.188C146.962 17.104 147.382 17.008 147.706 16.912L147.97 18.352C147.718 18.364 147.67 18.364 147.418 18.412C147.346 18.412 147.286 18.424 147.226 18.436C147.142 18.448 146.986 18.472 146.746 18.508L143.89 18.964L144.322 21.292C144.466 22.084 144.478 22.12 144.61 22.528L143.002 22.816C142.99 22.456 142.942 22.12 142.846 21.556L142.414 19.192L139.45 19.66C138.874 19.756 138.658 19.804 138.226 19.924L137.986 18.448C138.394 18.448 138.742 18.412 139.258 18.328L142.174 17.86L141.814 15.892L139.582 16.24C139.03 16.336 138.586 16.42 138.262 16.516L138.022 15.04C138.454 15.028 138.838 14.98 139.342 14.908L141.574 14.56ZM159.387 21.148L158.235 22.396C157.239 21.172 155.859 19.828 154.551 18.832C153.195 20.344 151.815 21.4 149.979 22.3C149.643 21.676 149.499 21.484 149.007 20.968C149.931 20.608 150.507 20.284 151.407 19.648C153.219 18.376 154.659 16.636 155.439 14.764L155.571 14.452C155.379 14.464 155.379 14.464 151.599 14.524C151.023 14.536 150.699 14.56 150.291 14.62L150.243 13.084C150.579 13.144 150.807 13.156 151.299 13.156C151.347 13.156 151.443 13.156 151.587 13.156L155.811 13.096C156.483 13.084 156.579 13.072 156.879 12.964L157.671 13.78C157.515 13.96 157.419 14.128 157.287 14.428C156.735 15.712 156.147 16.756 155.415 17.74C156.171 18.244 156.819 18.748 157.635 19.48C157.935 19.744 157.935 19.744 159.387 21.148ZM163.503 13.012L165.147 13.312C165.111 13.444 165.099 13.456 165.087 13.552L165.063 13.756L165.003 14.104L164.967 14.392C164.463 17.836 163.527 20.2 161.919 22.048C161.355 21.508 161.127 21.328 160.551 21.016C161.271 20.296 161.763 19.564 162.267 18.46C162.783 17.344 163.203 15.856 163.395 14.344C163.467 13.852 163.503 13.444 163.503 13.18C163.503 13.144 163.503 13.084 163.503 13.012ZM167.067 13.3L168.555 13.012C168.567 13.564 168.783 14.74 169.059 15.772C169.647 17.992 170.487 19.612 171.735 20.956C171.123 21.34 170.871 21.544 170.415 22.06C168.819 20.152 167.703 17.392 167.235 14.164C167.163 13.672 167.127 13.48 167.067 13.3ZM170.571 12.34C171.339 12.34 171.963 12.964 171.963 13.72C171.963 14.488 171.339 15.112 170.571 15.112C169.815 15.112 169.191 14.488 169.191 13.72C169.191 12.964 169.815 12.34 170.571 12.34ZM170.571 12.94C170.139 12.94 169.791 13.288 169.791 13.72C169.791 14.152 170.139 14.512 170.571 14.512C171.015 14.512 171.363 14.152 171.363 13.72C171.363 13.288 171.015 12.94 170.571 12.94ZM173.043 18.232V16.564C173.571 16.636 173.799 16.648 174.987 16.648H181.383C182.571 16.648 182.799 16.636 183.327 16.564V18.232C182.847 18.172 182.715 18.172 181.371 18.172H174.999C173.655 18.172 173.523 18.172 173.043 18.232ZM189.015 22.54H187.371C187.431 22.156 187.443 21.832 187.443 21.196V13.504C187.443 12.916 187.419 12.604 187.371 12.28H189.015C188.967 12.64 188.967 12.796 188.967 13.54V15.772C190.611 16.348 192.495 17.224 194.415 18.304L193.575 19.72C192.579 19.036 191.331 18.352 189.327 17.428C189.051 17.296 189.015 17.284 188.919 17.224C188.955 17.56 188.967 17.704 188.967 18.04V21.208C188.967 21.832 188.979 22.144 189.015 22.54ZM202.323 15.7H200.763C200.463 16.072 200.295 16.264 199.839 16.696C199.575 16.396 199.299 16.192 198.831 15.916C199.659 15.232 200.151 14.656 200.475 13.972C200.547 13.828 200.583 13.744 200.655 13.504H198.471V21.316H206.295C206.907 21.316 207.303 21.292 207.627 21.244V22.588C207.255 22.528 206.919 22.504 206.307 22.504H198.471V22.996H197.079C197.127 22.588 197.151 22.192 197.151 21.604V13.552C197.151 13.036 197.139 12.64 197.103 12.268C197.487 12.316 197.799 12.328 198.399 12.328H206.103C206.703 12.328 207.039 12.304 207.447 12.244V13.576C207.051 13.516 206.739 13.504 206.139 13.504H200.835L201.891 13.816C201.843 13.912 201.831 13.936 201.795 14.032C201.699 14.224 201.699 14.224 201.507 14.572H205.455C206.031 14.572 206.319 14.56 206.631 14.512V15.76C206.259 15.712 205.923 15.7 205.467 15.7H203.619C203.619 15.808 203.619 15.808 203.607 15.964C203.595 16.312 203.583 16.552 203.547 16.888H206.175C206.715 16.888 206.991 16.876 207.327 16.828V18.088C207.003 18.04 206.679 18.028 206.139 18.028H203.895C204.507 18.988 205.527 19.528 207.399 19.864C207.123 20.26 207.003 20.512 206.775 21.136C204.831 20.596 203.763 19.9 202.983 18.688C202.335 19.84 201.255 20.596 199.515 21.136C199.323 20.68 199.083 20.296 198.783 19.984C199.671 19.756 200.079 19.612 200.583 19.324C201.243 18.94 201.687 18.532 201.951 18.028H200.283C199.635 18.028 199.347 18.04 198.987 18.088V16.828C199.347 16.876 199.611 16.888 200.307 16.888H202.251C202.299 16.456 202.299 16.36 202.323 15.7ZM209.835 13.456H210.255C210.567 12.808 210.687 12.46 210.807 11.836L212.127 11.992C211.959 12.52 211.767 13 211.539 13.456H212.283C212.607 13.456 212.847 13.444 213.087 13.42C213.063 13.672 213.063 13.9 213.063 14.164V16.3C213.063 16.744 213.063 16.912 213.087 17.152C212.835 17.128 212.691 17.128 212.319 17.128H210.291V18.16H212.331C212.751 18.16 212.943 18.148 213.183 18.124C213.147 18.4 213.147 18.64 213.147 19.024V21.592C213.147 22.048 213.159 22.3 213.195 22.576H211.923V22.036H210.279V22.876H208.971C209.031 22.456 209.055 22.072 209.055 21.616V14.392C209.055 14.116 209.019 13.588 208.995 13.42C209.223 13.444 209.511 13.456 209.835 13.456ZM210.291 14.596V15.988H211.863V14.596H210.291ZM210.291 19.312V20.884H211.923V19.312H210.291ZM215.895 13.564H214.515C214.011 13.564 213.711 13.576 213.327 13.624V12.316C213.687 12.364 214.035 12.388 214.587 12.388H218.499C219.039 12.388 219.351 12.364 219.735 12.316V13.624C219.351 13.576 219.039 13.564 218.547 13.564H217.119V14.824H218.487C218.919 14.824 219.183 14.812 219.447 14.776C219.411 15.028 219.411 15.22 219.411 15.724V20.608C219.411 21.004 219.291 21.304 219.087 21.484C218.907 21.628 218.667 21.676 218.211 21.676C218.031 21.676 217.923 21.664 217.635 21.652C217.599 21.064 217.551 20.824 217.371 20.428C217.815 20.5 217.875 20.512 217.995 20.512C218.163 20.512 218.211 20.464 218.211 20.284V15.94H217.119V21.784C217.119 22.264 217.131 22.612 217.191 22.984H215.811C215.871 22.612 215.895 22.252 215.895 21.784V15.94H214.971V20.656C214.971 21.268 214.983 21.568 215.019 21.808H213.711C213.759 21.484 213.771 21.256 213.771 20.5V15.772C213.771 15.268 213.759 15.064 213.723 14.776C213.999 14.812 214.227 14.824 214.731 14.824H215.895V13.564ZM223.359 22.288L221.907 22.372C221.895 22.156 221.883 22.084 221.847 21.808C221.619 20.356 221.535 19.432 221.535 18.22C221.535 16.672 221.679 15.304 222.027 13.528C222.159 12.856 222.183 12.736 222.207 12.412L223.791 12.58C223.503 13.288 223.227 14.632 223.035 16.168C222.915 17.068 222.867 17.776 222.855 18.82C222.855 19.084 222.843 19.18 222.831 19.48C222.963 19.06 222.987 18.976 223.455 17.896L224.415 18.328C223.755 19.72 223.347 21.112 223.347 21.964C223.347 22.036 223.347 22.132 223.359 22.288ZM225.015 15.1L225.039 13.66C225.579 13.804 226.215 13.852 227.259 13.852C228.591 13.852 229.731 13.744 230.523 13.528L230.595 14.98C230.499 14.992 230.319 15.016 229.743 15.088C228.975 15.184 228.063 15.232 227.175 15.232C226.299 15.232 226.287 15.232 225.015 15.1ZM225.843 17.08L227.019 17.632C226.419 18.328 226.167 18.844 226.167 19.36C226.167 20.044 226.827 20.404 228.075 20.404C229.131 20.404 230.175 20.236 230.931 19.948L231.051 21.472C230.883 21.484 230.835 21.496 230.559 21.544C229.599 21.7 228.867 21.772 228.075 21.772C226.587 21.772 225.627 21.436 225.099 20.728C224.871 20.428 224.739 19.984 224.739 19.552C224.739 18.772 225.099 17.968 225.843 17.08ZM237.315 12.124L238.887 12.136C238.827 12.532 238.803 13.12 238.803 13.996C238.803 14.164 238.803 14.2 238.815 14.776C240.255 14.764 241.575 14.62 242.331 14.368L242.451 15.82C242.211 15.832 242.211 15.832 241.671 15.892C240.663 16.024 239.799 16.084 238.851 16.108C238.875 17.044 238.899 17.584 238.983 18.76C239.655 18.964 240.219 19.216 240.855 19.576C241.287 19.816 241.491 19.96 242.403 20.596C242.559 20.704 242.619 20.752 242.763 20.836L241.827 22.192C241.611 21.928 241.419 21.748 240.975 21.4C240.399 20.956 240.027 20.716 239.391 20.416C239.235 20.332 239.139 20.284 239.007 20.2C239.019 20.296 239.031 20.404 239.031 20.584C239.031 21.928 238.083 22.636 236.295 22.636C235.071 22.636 234.219 22.288 233.775 21.604C233.595 21.304 233.475 20.908 233.475 20.536C233.475 19.288 234.711 18.388 236.439 18.388C236.883 18.388 237.315 18.436 237.555 18.508C237.543 18.472 237.543 18.472 237.543 18.388C237.495 17.956 237.387 14.68 237.375 13.18C237.363 12.58 237.363 12.46 237.315 12.124ZM237.579 19.804C237.135 19.696 236.919 19.672 236.463 19.672C235.563 19.672 234.963 20.032 234.963 20.56C234.963 20.848 235.095 21.04 235.371 21.184C235.599 21.292 235.923 21.364 236.247 21.364C236.703 21.364 237.099 21.244 237.339 21.04C237.507 20.896 237.591 20.668 237.591 20.368C237.591 20.152 237.579 19.816 237.579 19.804ZM246.927 12.112L248.451 12.196C248.307 12.604 248.247 12.916 248.019 14.512C247.935 15.016 247.887 15.424 247.863 15.712H247.899C247.923 15.64 247.923 15.64 247.971 15.448C248.091 15.028 248.403 14.44 248.727 14.02C249.387 13.204 250.131 12.796 251.007 12.796C251.823 12.796 252.543 13.18 253.059 13.876C253.659 14.68 253.923 15.652 253.923 17.068C253.923 19.384 252.843 21.112 250.827 22C250.215 22.276 249.375 22.516 248.475 22.672C248.235 21.988 248.103 21.724 247.767 21.256C248.967 21.124 249.663 20.944 250.395 20.572C251.787 19.864 252.423 18.724 252.423 16.9C252.423 15.172 251.847 14.212 250.815 14.212C250.359 14.212 249.939 14.416 249.519 14.848C248.583 15.82 248.007 17.296 248.007 18.724C248.007 18.784 248.007 18.868 248.007 18.976L246.567 19C246.579 18.928 246.579 18.868 246.579 18.844C246.579 18.796 246.579 18.724 246.579 18.616C246.567 18.268 246.543 17.38 246.543 17.14C246.543 16.168 246.615 14.836 246.711 14.008L246.891 12.52C246.915 12.316 246.927 12.268 246.927 12.112Z" fill="white"/>
<path d="M49.458 36.536V34.94C49.458 34.104 49.42 33.61 49.344 33.002H51.624C51.548 33.591 51.51 34.085 51.51 34.921V36.536H51.928C52.46 36.536 52.859 36.517 53.391 36.441V38.474C52.84 38.417 52.422 38.398 51.928 38.398H51.51V41.4C52.232 41.191 52.536 41.115 53.429 40.83L53.448 42.654C52.118 43.11 52.118 43.11 51.51 43.319V48.62C51.51 49.475 51.225 49.988 50.636 50.197C50.256 50.33 49.686 50.387 48.774 50.387C48.394 50.387 48.09 50.368 47.387 50.33C47.311 49.475 47.216 49.057 46.931 48.297C47.786 48.411 48.337 48.468 48.888 48.468C49.344 48.468 49.458 48.373 49.458 47.955V43.927C49.211 44.003 48.679 44.136 47.881 44.326C47.52 44.421 47.444 44.44 47.14 44.535L46.798 42.35C47.463 42.312 48.128 42.198 49.458 41.894V38.398H48.47C47.957 38.398 47.539 38.417 46.988 38.493V36.422C47.482 36.498 47.919 36.536 48.47 36.536H49.458ZM56.089 34.731V35.13C58.825 34.712 61.219 34.028 62.226 33.344L63.727 35.073C62.112 35.567 60.934 35.909 60.212 36.08C58.654 36.441 58.217 36.517 56.089 36.802V37.733C56.089 38.341 56.393 38.436 58.426 38.436C61.01 38.436 61.561 38.379 61.827 38.075C62.074 37.809 62.169 37.391 62.207 36.251C62.948 36.555 63.518 36.726 64.183 36.859C64.069 38.056 63.936 38.607 63.689 39.063C63.119 40.089 62.397 40.26 58.635 40.26C54.797 40.26 54.056 39.975 54.056 38.455V34.845C54.056 34.028 54.037 33.591 53.961 33.04H56.184C56.108 33.515 56.089 33.971 56.089 34.731ZM54.113 48.658V42.901C54.113 42.103 54.094 41.666 54.056 41.286C54.531 41.343 54.93 41.362 55.747 41.362H61.428C62.321 41.362 62.758 41.343 63.176 41.286C63.119 41.685 63.1 42.141 63.1 42.939V48.582C63.1 49.646 63.119 50.045 63.195 50.52H61.067V49.665H56.089V50.52H54.018C54.094 50.007 54.113 49.608 54.113 48.658ZM56.089 43.11V44.63H61.067V43.11H56.089ZM56.089 46.302V47.898H61.067V46.302H56.089ZM73.683 47.423V40.374H70.89C70.054 40.374 69.522 40.393 68.971 40.469V38.455C69.465 38.531 70.016 38.55 70.89 38.55H78.167C79.06 38.55 79.611 38.531 80.124 38.455V40.469C79.592 40.393 79.041 40.374 78.167 40.374H75.678V42.806H79.269C80.143 42.806 80.618 42.787 81.131 42.692V44.725C80.561 44.649 80.105 44.63 79.269 44.63H75.678V47.898C76.609 48.031 77.654 48.088 78.775 48.088C79.877 48.088 81.169 48.031 83.107 47.86C82.803 48.639 82.67 49.152 82.575 50.026C81.017 50.064 80.029 50.083 78.528 50.083C74.082 50.083 71.593 49.114 70.035 46.815C69.427 48.126 68.705 49.171 67.432 50.539C66.938 49.836 66.672 49.589 65.798 48.981C67.356 47.575 68.458 45.751 69.066 43.604C69.275 42.825 69.427 41.97 69.446 41.552L71.555 41.951C71.46 42.274 71.46 42.293 71.289 43.072C71.194 43.452 71.08 43.889 70.795 44.782C71.555 46.131 72.334 46.834 73.683 47.423ZM73.36 34.978V34.275C73.36 33.8 73.322 33.477 73.246 33.059H75.583C75.507 33.458 75.488 33.762 75.488 34.256V34.978H80.618C81.378 34.978 82.024 34.959 82.727 34.902C82.67 35.339 82.651 35.757 82.651 36.308V37.79C82.651 38.341 82.67 38.778 82.727 39.272H80.675V36.897H68.401V39.272H66.292C66.368 38.816 66.387 38.436 66.387 37.771V36.308C66.387 35.814 66.349 35.339 66.311 34.902C66.995 34.959 67.641 34.978 68.401 34.978H73.36ZM99.751 41.704V43.756H100.207C100.986 43.756 101.442 43.718 101.822 43.642V45.618C101.423 45.561 100.948 45.542 100.188 45.542H99.751V47.822H100.511C101.556 47.822 101.917 47.803 102.392 47.708V49.741C101.86 49.684 101.366 49.665 100.473 49.665H96.16V50.577H94.146C94.222 50.064 94.241 49.665 94.241 48.658V39.709C94.032 39.956 93.994 39.994 93.747 40.298C93.576 39.785 93.481 39.576 93.272 39.158V40.906C93.291 41.533 93.291 41.533 93.31 41.761C93.044 41.742 93.044 41.742 92.151 41.723H90.251C90.251 41.818 90.251 42.103 90.232 42.578H91.923C92.607 42.578 92.854 42.559 93.234 42.521V44.136C92.759 44.079 92.569 44.06 91.923 44.06H90.137C90.08 44.516 90.08 44.611 90.023 45.029H92.227C92.93 45.029 93.177 45.01 93.557 44.953V46.663C93.177 46.606 92.873 46.587 92.208 46.587H90.669C91.505 47.385 92.113 47.784 93.443 48.373C92.968 49.057 92.74 49.456 92.512 50.083C91.144 49.361 90.213 48.62 89.282 47.48C88.541 48.905 87.61 49.741 85.824 50.596C85.558 50.007 85.14 49.399 84.703 48.924C85.767 48.525 86.166 48.297 86.717 47.822C87.173 47.423 87.439 47.1 87.705 46.587H86.299C85.653 46.587 85.254 46.606 84.836 46.663V44.953C85.235 45.01 85.615 45.029 86.299 45.029H88.199C88.275 44.687 88.313 44.44 88.351 44.06H86.641C85.995 44.06 85.596 44.079 85.197 44.136V42.502C85.596 42.559 85.976 42.578 86.641 42.578H88.465C88.484 42.217 88.484 42.217 88.503 41.723H86.527C85.824 41.723 85.672 41.723 85.311 41.761C85.349 41.4 85.368 41.153 85.368 40.773V38.493C85.368 38.132 85.349 37.866 85.311 37.505C85.634 37.543 85.786 37.543 86.527 37.543H92.227C92.759 37.543 92.968 37.543 93.31 37.505C93.291 37.714 93.291 37.752 93.272 37.904C94.241 36.631 95.096 34.636 95.4 32.888L97.376 33.382C97.262 33.667 97.243 33.705 96.996 34.427C96.844 34.902 96.597 35.529 96.293 36.213H97.813C98.44 35.016 98.744 34.199 99.01 33.021L100.891 33.458C100.359 34.864 100.15 35.358 99.694 36.213H100.226C101.138 36.213 101.651 36.175 102.164 36.099V38.056C101.708 37.999 101.081 37.98 100.226 37.98H99.751V39.937H100.226C101.024 39.937 101.48 39.899 101.86 39.823V41.78C101.48 41.723 100.986 41.704 100.245 41.704H99.751ZM97.889 41.704H96.16V43.756H97.889V41.704ZM97.889 39.937V37.98H96.16V39.937H97.889ZM96.16 45.542V47.822H97.889V45.542H96.16ZM88.522 38.949H87.021V40.298H88.522V38.949ZM90.289 38.949V40.298H91.733V38.949H90.289ZM86.774 34.389V34.199C86.774 33.743 86.755 33.42 86.698 33.078H88.674C88.617 33.344 88.598 33.629 88.598 34.18V34.389H90.156V34.18C90.156 33.648 90.137 33.382 90.099 33.078H92.056C92.018 33.363 91.999 33.629 91.999 34.161V34.389C92.835 34.389 93.196 34.37 93.69 34.294V36.156C93.31 36.099 92.74 36.08 91.999 36.08C91.999 36.65 91.999 36.878 92.037 37.163H90.137C90.156 36.897 90.156 36.783 90.156 36.08H88.598C88.617 36.745 88.617 36.84 88.636 37.163H86.736C86.755 36.802 86.774 36.669 86.774 36.08H86.451C85.672 36.08 85.273 36.099 84.855 36.175V34.294C85.254 34.37 85.691 34.389 86.47 34.389H86.774ZM118.333 47.936V46.169C117.877 46.663 117.687 46.91 117.364 47.461C116.186 46.587 115.54 45.903 114.913 44.858C114.666 45.39 114.419 45.77 114.02 46.283C113.545 46.872 113.222 47.157 112.443 47.727C112.139 47.176 111.797 46.758 111.36 46.359V48.392C111.36 49.342 111.379 49.912 111.455 50.501H109.289C109.346 49.912 109.384 49.285 109.384 48.392V42.065C109.384 41.476 109.384 41.229 109.346 40.697C109.802 40.735 110.22 40.754 111.037 40.754H113.887C113.906 40.336 113.906 40.279 113.906 39.69V39.291H111.037C110.296 39.291 109.726 39.31 109.118 39.367V37.429C109.65 37.505 110.163 37.524 111.037 37.524H118.789C119.834 37.524 120.328 37.505 120.765 37.429V39.367C120.176 39.31 119.663 39.291 118.789 39.291H115.825L115.806 40.089C115.806 40.26 115.806 40.336 115.787 40.754H118.542C119.625 40.754 119.948 40.735 120.404 40.678C120.347 41.248 120.328 41.742 120.328 42.54V48.525C120.328 49.323 120.138 49.741 119.663 50.007C119.207 50.254 118.656 50.33 117.288 50.33C117.079 50.33 116.756 50.33 116.167 50.311C116.091 49.608 115.939 48.981 115.654 48.392C116.262 48.449 116.984 48.506 117.383 48.506C118.2 48.506 118.333 48.43 118.333 47.936ZM118.333 42.388H115.635C115.597 42.578 115.578 42.654 115.54 42.882C116.186 44.117 116.87 44.82 118.333 45.827V42.388ZM111.36 42.388V46.017C111.816 45.713 112.177 45.409 112.557 44.953C113.184 44.231 113.526 43.509 113.735 42.388H111.36ZM112.652 34.503V34.275C112.652 33.667 112.633 33.382 112.557 32.964H114.875C114.799 33.325 114.78 33.648 114.78 34.294V34.503H118.96C119.891 34.503 120.632 34.465 121.221 34.389V36.441C120.594 36.365 119.853 36.346 118.941 36.346H108.586C108.567 43.148 108.396 44.82 107.37 47.442C106.914 48.62 106.325 49.57 105.394 50.577C104.824 49.741 104.444 49.342 103.817 48.867C104.577 48.221 104.957 47.708 105.432 46.682C105.812 45.827 106.097 44.82 106.287 43.471C105.698 43.832 104.995 44.212 104.463 44.497C104.387 44.535 104.178 44.649 104.083 44.706L103.494 42.635C104.216 42.464 105.318 42.008 106.477 41.381C106.534 40.165 106.553 39.443 106.553 37.809C106.553 37.315 106.553 36.878 106.553 36.631C106.534 35.415 106.515 35.092 106.42 34.408C107.104 34.484 107.731 34.503 108.833 34.503H112.652ZM103.456 37.163L104.881 36.08C105.793 37.619 106.097 38.227 106.515 39.405L105.071 40.621C104.463 38.949 104.026 37.999 103.456 37.163ZM129.486 46.245L132.108 45.561C132.336 46.112 132.469 46.359 132.697 46.606C133.172 47.119 133.913 47.385 134.882 47.385C135.794 47.385 136.497 47.138 137.029 46.606C137.979 45.694 138.416 44.326 138.511 42.084C138.15 42.616 137.941 42.844 137.504 43.167C136.649 43.756 135.68 44.041 134.426 44.041C131.272 44.041 129.258 42.103 129.258 39.044C129.258 37.106 130.113 35.529 131.671 34.579C132.545 34.028 133.685 33.743 134.996 33.743C137.428 33.743 139.423 35.168 140.221 37.486C140.582 38.512 140.772 39.861 140.772 41.419C140.772 44.288 140.012 46.796 138.758 48.012C137.751 49.019 136.516 49.456 134.711 49.456C133.115 49.456 131.994 49.114 131.044 48.354C130.398 47.841 130.037 47.347 129.486 46.245ZM134.806 41.989C136.668 41.989 138.074 40.659 138.074 38.892C138.074 37.106 136.763 35.833 134.882 35.833C133.058 35.833 131.785 37.125 131.785 38.949C131.785 40.792 132.963 41.989 134.806 41.989ZM143.013 46.245L145.635 45.561C145.863 46.112 145.996 46.359 146.224 46.606C146.699 47.119 147.44 47.385 148.409 47.385C149.321 47.385 150.024 47.138 150.556 46.606C151.506 45.694 151.943 44.326 152.038 42.084C151.677 42.616 151.468 42.844 151.031 43.167C150.176 43.756 149.207 44.041 147.953 44.041C144.799 44.041 142.785 42.103 142.785 39.044C142.785 37.106 143.64 35.529 145.198 34.579C146.072 34.028 147.212 33.743 148.523 33.743C150.955 33.743 152.95 35.168 153.748 37.486C154.109 38.512 154.299 39.861 154.299 41.419C154.299 44.288 153.539 46.796 152.285 48.012C151.278 49.019 150.043 49.456 148.238 49.456C146.642 49.456 145.521 49.114 144.571 48.354C143.925 47.841 143.564 47.347 143.013 46.245ZM148.333 41.989C150.195 41.989 151.601 40.659 151.601 38.892C151.601 37.106 150.29 35.833 148.409 35.833C146.585 35.833 145.312 37.125 145.312 38.949C145.312 40.792 146.49 41.989 148.333 41.989ZM157.812 48.943L169.763 33.648L170.751 34.408L158.781 49.722L157.812 48.943ZM168.756 49.532C167.692 49.532 166.818 49.209 166.172 48.563C165.45 47.86 165.07 46.72 165.07 45.276C165.07 43.851 165.45 42.73 166.172 42.008C166.818 41.381 167.711 41.039 168.756 41.039C169.801 41.039 170.694 41.381 171.321 42.008C172.043 42.711 172.423 43.851 172.423 45.276C172.423 46.72 172.043 47.86 171.321 48.563C170.675 49.209 169.801 49.532 168.756 49.532ZM168.756 42.654C168.205 42.654 167.844 42.825 167.54 43.262C167.198 43.737 167.027 44.383 167.027 45.238C167.027 46.986 167.635 47.936 168.756 47.936C169.896 47.936 170.485 46.986 170.485 45.143C170.485 44.383 170.295 43.699 169.972 43.243C169.649 42.825 169.307 42.654 168.756 42.654ZM159.807 42.312C158.743 42.312 157.869 41.989 157.223 41.343C156.501 40.64 156.121 39.481 156.121 38.056C156.121 35.396 157.489 33.819 159.807 33.819C160.852 33.819 161.745 34.161 162.372 34.788C163.094 35.491 163.474 36.631 163.474 38.056C163.474 39.5 163.094 40.64 162.372 41.343C161.726 41.989 160.852 42.312 159.807 42.312ZM159.807 35.434C158.705 35.434 158.078 36.365 158.078 38.018C158.078 39.766 158.686 40.716 159.807 40.716C160.909 40.716 161.536 39.766 161.536 38.056C161.536 37.372 161.403 36.688 161.194 36.289C160.871 35.7 160.434 35.434 159.807 35.434ZM178.153 49.456L175.854 49.589C175.835 49.247 175.816 49.133 175.759 48.696C175.398 46.397 175.265 44.934 175.265 43.015C175.265 40.564 175.493 38.398 176.044 35.586C176.253 34.522 176.291 34.332 176.329 33.819L178.837 34.085C178.381 35.206 177.944 37.334 177.64 39.766C177.45 41.191 177.374 42.312 177.355 43.965C177.355 44.383 177.336 44.535 177.317 45.01C177.526 44.345 177.564 44.212 178.305 42.502L179.825 43.186C178.78 45.39 178.134 47.594 178.134 48.943C178.134 49.057 178.134 49.209 178.153 49.456ZM180.775 38.075L180.813 35.795C181.668 36.023 182.675 36.099 184.328 36.099C186.437 36.099 188.242 35.928 189.496 35.586L189.61 37.885C189.458 37.904 189.173 37.942 188.261 38.056C187.045 38.208 185.601 38.284 184.195 38.284C182.808 38.284 182.789 38.284 180.775 38.075ZM182.086 41.21L183.948 42.084C182.998 43.186 182.599 44.003 182.599 44.82C182.599 45.903 183.644 46.473 185.62 46.473C187.292 46.473 188.945 46.207 190.142 45.751L190.332 48.164C190.066 48.183 189.99 48.202 189.553 48.278C188.033 48.525 186.874 48.639 185.62 48.639C183.264 48.639 181.744 48.107 180.908 46.986C180.547 46.511 180.338 45.808 180.338 45.124C180.338 43.889 180.908 42.616 182.086 41.21ZM196.564 35.966V34.902C196.564 34.047 196.545 33.629 196.45 33.116H198.654C198.597 33.629 198.559 34.142 198.559 34.902V35.966H199.908C200.706 35.966 201.162 35.947 201.732 35.852V37.885C201.276 37.847 201.029 37.828 200.25 37.828C200.117 39.804 199.68 41.723 198.958 43.585C200.155 45.105 200.307 45.314 201.656 47.214L200.155 48.886C199.357 47.518 199.072 47.081 197.97 45.599C196.906 47.442 195.937 48.639 194.189 50.292C193.676 49.456 193.372 49.095 192.745 48.525C194.493 47.176 195.614 45.827 196.64 43.87C195.766 42.768 194.721 41.628 193.41 40.374L194.797 38.968C195.177 39.348 195.177 39.348 196.298 40.507C196.45 40.659 196.773 41.02 197.495 41.856C197.875 40.621 198.141 39.196 198.236 37.828H194.721C194.018 37.828 193.486 37.847 192.954 37.923V35.852C193.524 35.928 194.094 35.966 194.835 35.966H196.564ZM206.368 38.854H203.955C203.138 38.854 202.682 38.873 202.15 38.949V36.859C202.663 36.935 203.119 36.954 203.955 36.954H206.368V35.453C206.368 34.332 206.33 33.724 206.235 33.192H208.515C208.439 33.781 208.401 34.427 208.401 35.453V36.954H208.629C209.427 36.954 209.94 36.916 210.415 36.84V38.968C210.263 38.949 210.263 38.949 209.978 38.911C209.788 38.873 209.161 38.854 208.648 38.854H208.401V48.031C208.401 49.019 208.344 49.342 208.059 49.684C207.698 50.14 207.014 50.33 205.76 50.33C204.981 50.33 204.278 50.311 203.518 50.254C203.385 49.304 203.252 48.829 202.929 48.145C203.613 48.259 204.753 48.373 205.228 48.373C206.254 48.373 206.368 48.316 206.368 47.917V38.854ZM201.181 40.963L202.891 40.032C204.164 41.761 204.696 42.635 205.57 44.421L203.841 45.561C202.948 43.471 202.321 42.369 201.181 40.963ZM220.637 36.745H215.241C215.222 45.01 214.88 47.423 213.284 50.387C212.676 49.627 212.296 49.266 211.574 48.753C212.277 47.518 212.562 46.758 212.809 45.447C213.075 44.022 213.208 41.248 213.208 37.41C213.208 36.042 213.189 35.396 213.132 34.75C213.759 34.826 214.291 34.845 215.108 34.845H219.953V34.009C219.953 33.591 219.934 33.287 219.858 32.926H222.157C222.081 33.23 222.062 33.515 222.062 34.028V34.845H226.983C228.028 34.845 228.674 34.807 229.225 34.731V36.84C228.56 36.764 227.971 36.745 227.002 36.745H220.713C223.259 38.17 223.639 38.417 225.463 39.899L224 41.514C222.575 40.089 221.492 39.31 219.174 38.037L220.637 36.745ZM217.008 49.133L215.089 47.898C215.678 46.606 215.868 46.036 216.115 44.782C216.343 43.604 216.438 42.806 216.533 41.115L218.509 41.628C218.205 45.143 217.92 46.587 217.008 49.133ZM219.364 39.994H221.606C221.549 40.431 221.511 40.982 221.511 41.78V47.746C221.511 48.259 221.663 48.335 222.803 48.335C224.304 48.335 224.323 48.259 224.323 44.839C225.083 45.181 225.691 45.39 226.337 45.504C226.185 48.107 226.014 49.057 225.596 49.589C225.178 50.121 224.399 50.33 222.784 50.33C220.143 50.33 219.478 50.045 219.478 48.905V41.761C219.478 40.906 219.459 40.45 219.364 39.994ZM229.529 47.822L227.496 48.791C226.964 45.865 226.489 44.345 225.311 41.913L227.116 41.02C228.37 43.794 228.883 45.238 229.529 47.822ZM240.758 45.181H238.535C238.554 44.782 238.573 44.592 238.573 44.364C238.573 44.155 238.573 44.155 238.516 43.015L238.25 36.555C238.212 35.719 238.155 34.769 238.079 34.237H241.195C241.138 34.75 241.062 35.738 241.024 36.555L240.758 43.015C240.72 44.117 240.72 44.117 240.72 44.383C240.72 44.611 240.72 44.801 240.758 45.181ZM241.024 49.342H238.269V46.739H241.024V49.342Z" fill="white"/>
<path d="M148.792 69.9706C148.392 70.4906 147.607 70.4906 147.207 69.9706L141.071 62H154.928L148.792 69.9706Z" fill="#02CAE8"/>
</g>
<defs>
<filter id="filter0_d_1157_18964" x="0" y="0" width="296" height="75" filterUnits="userSpaceOnUse" color-interpolation-filters="sRGB">
<feFlood flood-opacity="0" result="BackgroundImageFix"/>
<feColorMatrix in="SourceAlpha" type="matrix" values="0 0 0 0 0 0 0 0 0 0 0 0 0 0 0 0 0 0 127 0" result="hardAlpha"/>
<feOffset dy="4"/>
<feComposite in2="hardAlpha" operator="out"/>
<feColorMatrix type="matrix" values="0 0 0 0 0.00655172 0 0 0 0 0.661724 0 0 0 0 0.76 0 0 0 1 0"/>
<feBlend mode="normal" in2="BackgroundImageFix" result="effect1_dropShadow_1157_18964"/>
<feBlend mode="normal" in="SourceGraphic" in2="effect1_dropShadow_1157_18964" result="shape"/>
</filter>
</defs>
</svg>
