<svg width="201" height="120" viewBox="0 0 201 120" fill="none" xmlns="http://www.w3.org/2000/svg">
<rect width="201" height="120" fill="#F5F5F5"/>
<rect width="1440" height="900" transform="translate(-969 -354)" fill="white"/>
<g filter="url(#filter0_dd_1_417)">
<rect x="-62.333" y="-70" width="325.333" height="362" rx="8" fill="white"/>
<rect width="200" height="120" transform="translate(0.333984)" fill="white"/>
<rect x="102.25" y="26.25" width="70.5" height="52.5" rx="3.75" fill="#0758E4" stroke="#0758E4" stroke-width="2.5"/>
<rect x="82.334" y="34" width="82" height="62" rx="5" fill="white"/>
<rect x="85.25" y="37.25" width="75.5" height="56.5" rx="3.75" fill="white" stroke="#0758E4" stroke-width="2.5"/>
<rect x="94" y="63" width="27" height="3" rx="1" fill="#0758E4"/>
<rect x="94" y="47" width="59" height="6" rx="1" fill="#0758E4"/>
<rect x="94" y="69" width="27" height="3" rx="1" fill="#0758E4"/>
<rect x="94" y="75" width="27" height="3" rx="1" fill="#0758E4"/>
<rect x="128" y="61" width="24" height="24" rx="2" fill="#0758E4"/>
</g>
<g clip-path="url(#clip0_1_417)">
<path d="M43.8225 86.8772C42.4781 86.3089 41.9832 78.9069 42.5267 77.8167L43.4266 76.0118C42.4187 75.8152 41.4468 75.5114 40.511 75.0825L39.1611 77.8346L40.457 86.8951C42.3647 87.735 45.8563 88.4856 46.4502 88.4856C47.0261 88.432 47.6021 88.3426 48.16 88.1997C46.8462 87.878 45.167 87.4455 43.8225 86.8772Z" fill="#E6EFFE"/>
<path d="M19.6873 107.053V94.1326C19.6873 90.5585 23.4488 86.9486 29.928 84.1429C29.748 83.7676 29.622 83.3744 29.5681 82.9634C21.2351 85.9121 16.3037 90.0223 16.3037 94.1326V107.053C16.3037 108.143 17.8515 109.644 18.9674 109.644H22.333C21.2531 109.644 19.6873 108.143 19.6873 107.053Z" fill="#E6EFFE"/>
<path d="M43.8405 72.4556C39.629 69.8643 39.1431 64.7354 39.0891 63.7346C39.0711 63.0913 38.5491 62.5909 37.9012 62.5909H37.8832C36.4254 62.6088 34.2837 60.3392 33.4558 56.908C33.2038 55.8357 33.5458 55.0137 34.0137 54.7814C34.4457 54.5491 34.9316 54.9601 35.1656 55.2281C35.5795 55.7107 36.3534 55.7643 36.8394 55.3532C37.2713 54.9601 37.3613 54.3346 37.0553 53.8521C36.6594 52.8335 36.1374 46.4536 36.1374 45.3277C36.1374 40.2703 39.827 35.9813 44.8484 35.1593C44.2904 35.0699 43.7145 35.0342 43.1566 35.0342C37.4333 35.0342 32.7719 39.6448 32.7719 45.3456C32.7719 46.4893 33.2578 52.8513 33.6897 53.87C34.0497 54.424 33.8697 55.1388 33.3118 55.4962C32.8259 55.8 32.1779 55.7107 31.8 55.2818C31.566 55.0137 31.1161 54.6205 30.6481 54.835C30.1802 55.0673 29.8382 55.8715 30.0902 56.9616C30.9181 60.3928 33.0418 62.6624 34.5176 62.6445H34.5356C35.1836 62.6445 35.7055 63.1449 35.7235 63.7882C35.7775 64.789 36.2454 69.9179 40.4749 72.5092C42.1127 73.5099 44.1464 74.0103 46.5221 74.0103C47.0801 74.0103 47.638 73.9746 48.1959 73.9031C46.6481 73.7423 45.1723 73.2597 43.8405 72.4556Z" fill="#E6EFFE"/>
<path d="M42.8684 111.986C42.9944 112.004 43.1204 112.004 43.2463 111.986H73.0866C75.4803 111.986 78 109.448 78 107.053V94.1328C78 88.843 72.6187 83.8214 63.6018 80.6582C63.1339 79.6753 62.27 78.8354 61.1361 78.2457C60.7942 78.067 58.3285 77.1913 56.1327 76.4229L54.7829 73.7959C58.3465 71.0438 59.3723 66.8263 59.6783 64.8069C62.162 64.1635 64.4297 61.2685 65.3476 57.4441C65.8155 55.4783 65.1496 53.6019 63.6558 52.8156C63.2778 52.619 62.8639 52.4939 62.4499 52.4582C63.1699 49.9741 63.6234 47.5938 63.6918 46.8468C64.2857 40.3454 58.8234 35.0342 46.8369 35.0342C34.8504 35.0342 30.2934 41.8858 30.7019 46.2213C30.7523 46.7556 30.6479 48.0084 30.8639 50.1171C30.9539 51.0464 31.0259 51.797 31.1159 52.4046C30.6119 52.3867 30.126 52.5118 29.676 52.7441C28.1462 53.5304 27.4263 55.4426 27.9123 57.4799C28.8301 61.3042 31.0979 64.1814 33.5816 64.8426C33.8515 66.8799 34.8234 71.151 38.4949 73.9031L37.0911 76.7267C34.3015 77.6023 32.7357 78.1206 32.4657 78.2636C31.5478 78.7103 30.7559 79.4252 30.216 80.283C19.9213 83.6248 14 88.6643 14 94.1328V107.053C14 109.466 16.5737 111.986 19.0214 111.986H42.8684ZM44.0562 109.645L40.8706 89.5221C43.0664 90.2548 45.712 90.791 46.4679 90.791C47.2778 90.791 50.0495 90.237 52.3172 89.4685L49.1856 109.645H44.0562ZM40.4567 86.8773L39.1609 77.8168L40.5107 75.0647C42.2745 75.8867 44.3442 76.2978 46.6299 76.2978C48.9156 76.2978 51.0034 75.8689 52.8032 75.0111L54.099 77.5487L52.7312 86.77C50.7694 87.6636 47.1519 88.432 46.4859 88.432C45.838 88.4499 42.3645 87.6814 40.4567 86.8773ZM63.4938 84.4111C63.6918 84.0537 63.8538 83.6784 63.9258 83.2674C71.1968 86.0373 75.6423 90.1297 75.6423 94.1328V107.053C75.6423 108.179 74.1845 109.645 73.0866 109.645H52.3172L62.9539 92.9176C63.7638 91.756 64.1237 90.4335 63.8898 89.3256C63.7638 88.6107 63.3678 87.9852 62.7739 87.5742C62.378 87.324 61.928 87.1096 61.4961 86.9309C62.27 86.1803 62.9539 85.3225 63.4938 84.4111ZM54.9989 87.5742L56.2767 78.9605C58.1125 79.6039 59.8043 80.2115 60.0922 80.3366C60.8661 80.7297 61.4241 81.3373 61.604 81.9628C61.73 82.4096 61.676 82.8742 61.4421 83.2852C60.4882 85.0008 58.4904 86.4841 58.4724 86.502C57.9505 86.8951 57.8245 87.6278 58.2385 88.1461C58.4005 88.3605 58.6344 88.5214 58.9044 88.575C59.6063 88.7537 60.9561 89.1647 61.4961 89.5221C61.5681 89.5936 61.604 89.6651 61.604 89.7545C61.676 90.1297 61.5681 90.8446 61.0281 91.5951C61.0101 91.613 61.0101 91.6309 60.9921 91.6488L52.2272 105.427L54.9989 87.5742ZM35.8133 63.7525C35.7953 63.1091 35.2733 62.6088 34.6254 62.6088C33.1676 62.6266 31.0259 60.3571 30.198 56.9259C29.946 55.8536 30.288 55.0316 30.7559 54.7992C31.1879 54.5669 31.6738 54.978 31.9078 55.246C32.3217 55.7285 33.0956 55.7821 33.5816 55.3711C34.0135 54.978 34.1035 54.3525 33.7975 53.87C33.4016 52.8513 33.0596 48.0798 33.0596 46.954C33.0596 41.2711 40.3901 37.268 46.4769 37.268C57.5762 37.268 61.4907 41.9734 61.3341 46.8825C61.3071 47.7582 60.0382 52.9407 59.5343 53.8342C59.1564 54.3525 59.2823 55.0852 59.8043 55.4783C60.2722 55.8179 60.9381 55.7464 61.3341 55.3354C61.5321 55.1388 62.036 54.6742 62.5399 54.9422C62.9539 55.1745 63.3138 55.9072 63.0439 56.9795C62.216 60.4107 60.0922 62.6803 58.6164 62.6624C57.9685 62.6445 57.4286 63.1449 57.4286 63.7882C57.3566 64.789 56.7987 69.9 52.6592 72.4913C51.0214 73.5099 49.0056 74.0282 46.6299 74.0282C44.2542 74.0282 42.2205 73.5278 40.5827 72.527C36.3532 69.8643 35.8673 64.7354 35.8133 63.7525ZM31.9798 81.9449C32.1597 81.3195 32.7177 80.7297 33.5096 80.3187C33.7975 80.1936 35.3093 79.6932 36.9651 79.175L38.261 88.2176C38.261 88.2533 38.261 88.2712 38.279 88.3069L40.9786 105.266L32.6097 91.7917C32.5917 91.7738 32.5917 91.756 32.5737 91.7381C32.0697 91.0233 31.9078 90.2727 31.9978 89.8259C31.9978 89.7366 32.0517 89.6472 32.1057 89.5757C32.6637 89.2005 34.0135 88.7716 34.7154 88.5929C35.3453 88.432 35.7233 87.7887 35.5613 87.1453C35.4893 86.8951 35.3453 86.6628 35.1294 86.502C34.5714 86.091 32.9696 84.7149 32.1597 83.2495C31.9078 82.8921 31.8358 82.4096 31.9798 81.9449ZM16.3217 107.053V94.1328C16.3217 90.0404 21.2351 85.8944 29.5861 82.9636C29.658 83.4818 29.82 83.9822 30.09 84.429C30.6479 85.3582 31.3138 86.2339 32.0877 86.9845C31.6378 87.1453 31.1879 87.3776 30.7739 87.6457C30.162 88.0567 29.766 88.7001 29.658 89.397C29.4421 90.5408 29.784 91.8811 30.5939 93.0427L40.9246 109.645H18.9854C17.8695 109.645 16.3217 108.143 16.3217 107.053Z" fill="#02C9E8"/>
<path d="M42.0223 57.6284C42.9672 57.6284 43.7321 56.8688 43.7321 55.9306C43.7321 54.9924 42.9672 54.2329 42.0223 54.2329C41.0774 54.2329 40.3125 54.9924 40.3125 55.9306C40.3125 56.8688 41.0774 57.6284 42.0223 57.6284Z" fill="#02C9E8"/>
<path d="M50.9315 57.6284C51.8763 57.6284 52.6413 56.8688 52.6413 55.9306C52.6413 54.9924 51.8763 54.2329 50.9315 54.2329C49.9866 54.2329 49.2217 54.9924 49.2217 55.9306C49.2217 56.8688 49.9866 57.6284 50.9315 57.6284Z" fill="#02C9E8"/>
<path fill-rule="evenodd" clip-rule="evenodd" d="M53.6454 65.2107C53.8578 65.5431 53.7588 65.9863 53.424 66.1972C51.1131 67.6554 48.7734 68.4346 46.4211 68.4471C44.0652 68.4596 41.7561 67.7019 39.5136 66.1847C39.1842 65.9631 39.0996 65.5181 39.3228 65.191C39.546 64.864 39.9941 64.78 40.3235 65.0016C42.3644 66.3812 44.3928 67.0264 46.4139 67.0156C48.4387 67.0049 50.5174 66.3366 52.6519 64.9891C52.9885 64.7782 53.433 64.8765 53.6454 65.2089V65.2107Z" fill="#02C9E8"/>
<path d="M30.8011 49.4199C29.6276 44.1284 30.9253 39.4463 33.6609 36.712C38.0794 32.6214 48.4551 29.5316 54.8731 35.4379C55.5426 35.361 56.1059 35.386 56.734 35.4253C60.9707 35.688 65.6141 40.229 63.5444 47.8366L61.0535 48.4889C61.0535 48.4889 60.8969 45.8923 58.5176 44.3429C56.1383 42.7935 53.6312 42.2824 53.6312 42.2824C53.6312 42.2824 50.5716 44.493 48.3759 45.508C46.1801 46.5231 43.3005 46.5302 43.3005 46.5302C43.3005 46.5302 44.9347 45.1131 45.5898 44.4644C46.2449 43.8157 46.7021 42.8971 46.7021 42.8971C46.7021 42.8971 42.1073 45.6224 38.7039 47.0342C35.3005 48.446 30.8011 49.4199 30.8011 49.4199Z" fill="#02C9E8"/>
<path d="M44.0567 109.645L40.8711 89.5224C43.0668 90.2551 45.7125 90.7912 46.4684 90.7912C47.2783 90.7912 50.0499 90.2372 52.3177 89.4688L49.1861 109.645H44.0567Z" fill="#02C9E8"/>
<path d="M50.5713 29.9998C50.5713 29.9998 53.4149 30.1124 54.5596 32.1175C55.3803 33.5561 54.8728 35.7953 54.8728 35.7953L51.8221 34.6766C51.8221 34.6766 52.1137 33.1987 51.8221 32.139C51.5306 31.0792 50.5713 29.998 50.5713 29.998V29.9998Z" fill="#02C9E8"/>
</g>
<defs>
<filter id="filter0_dd_1_417" x="-78.333" y="-85" width="357.333" height="394" filterUnits="userSpaceOnUse" color-interpolation-filters="sRGB">
<feFlood flood-opacity="0" result="BackgroundImageFix"/>
<feColorMatrix in="SourceAlpha" type="matrix" values="0 0 0 0 0 0 0 0 0 0 0 0 0 0 0 0 0 0 127 0" result="hardAlpha"/>
<feOffset dy="1"/>
<feGaussianBlur stdDeviation="8"/>
<feComposite in2="hardAlpha" operator="out"/>
<feColorMatrix type="matrix" values="0 0 0 0 0 0 0 0 0 0 0 0 0 0 0 0 0 0 0.05 0"/>
<feBlend mode="normal" in2="BackgroundImageFix" result="effect1_dropShadow_1_417"/>
<feColorMatrix in="SourceAlpha" type="matrix" values="0 0 0 0 0 0 0 0 0 0 0 0 0 0 0 0 0 0 127 0" result="hardAlpha"/>
<feOffset dy="1"/>
<feGaussianBlur stdDeviation="4"/>
<feComposite in2="hardAlpha" operator="out"/>
<feColorMatrix type="matrix" values="0 0 0 0 0 0 0 0 0 0 0 0 0 0 0 0 0 0 0.1 0"/>
<feBlend mode="normal" in2="effect1_dropShadow_1_417" result="effect2_dropShadow_1_417"/>
<feBlend mode="normal" in="SourceGraphic" in2="effect2_dropShadow_1_417" result="shape"/>
</filter>
<clipPath id="clip0_1_417">
<rect width="64" height="82" fill="white" transform="translate(14 30)"/>
</clipPath>
</defs>
</svg>
