<svg width="200" height="120" viewBox="0 0 200 120" fill="none" xmlns="http://www.w3.org/2000/svg">
<rect width="200" height="120" fill="#F5F5F5"/>
<rect width="1440" height="900" transform="translate(-620 -354)" fill="white"/>
<g filter="url(#filter0_dd_1_417)">
<rect x="-62.667" y="-70" width="325.333" height="362" rx="8" fill="white"/>
<rect width="200" height="120" fill="white"/>
<mask id="path-2-inside-1_1_417" fill="white">
<path d="M51 30C51 28.3431 52.3431 27 54 27H153C154.657 27 156 28.3431 156 30V93H51V30Z"/>
</mask>
<path d="M49.5 30C49.5 27.5147 51.5147 25.5 54 25.5H153C155.485 25.5 157.5 27.5147 157.5 30H154.5C154.5 29.1716 153.828 28.5 153 28.5H54C53.1716 28.5 52.5 29.1716 52.5 30H49.5ZM156 93H51H156ZM49.5 93V30C49.5 27.5147 51.5147 25.5 54 25.5V28.5C53.1716 28.5 52.5 29.1716 52.5 30V93H49.5ZM153 25.5C155.485 25.5 157.5 27.5147 157.5 30V93H154.5V30C154.5 29.1716 153.828 28.5 153 28.5V25.5Z" fill="#0758E4" mask="url(#path-2-inside-1_1_417)"/>
<mask id="path-4-inside-2_1_417" fill="white">
<path d="M47 28C47 25.2386 49.2386 23 52 23H155C157.761 23 160 25.2386 160 28V95C160 95.5523 159.552 96 159 96H48C47.4477 96 47 95.5523 47 95V28Z"/>
</mask>
<path d="M45 28C45 24.134 48.134 21 52 21H155C158.866 21 162 24.134 162 28H158C158 26.3431 156.657 25 155 25H52C50.3431 25 49 26.3431 49 28H45ZM160 96H47H160ZM48 96C46.3431 96 45 94.6569 45 93V28C45 24.134 48.134 21 52 21V25C50.3431 25 49 26.3431 49 28V95C49 95.5523 49 96 49 96H48ZM155 21C158.866 21 162 24.134 162 28V93C162 94.6569 160.657 96 159 96H158C158 96 158 95.5523 158 95V28C158 26.3431 156.657 25 155 25V21Z" fill="#0758E4" mask="url(#path-4-inside-2_1_417)"/>
<g clip-path="url(#clip0_1_417)">
<path d="M108.823 70.8131C107.635 69.972 107.185 66.3528 107.527 65.6659L108.427 63.8545C107.419 63.6572 106.447 63.3523 105.511 62.9219L104.161 65.6838L105.457 71.9071C107.365 72.75 110.856 73.5033 111.45 73.5033C112.026 73.4495 113.16 73.2163 113.16 73.2163C113.16 73.2163 110.01 71.6542 108.823 70.8131Z" fill="#E6EFFE"/>
<path d="M84.6873 95.0069V82.0402C84.6873 78.4532 88.4488 74.8305 94.928 72.0147C94.748 71.6381 94.622 71.2435 94.5681 70.8311C86.2351 73.7903 81.3037 77.9152 81.3037 82.0402V95.0069C81.3037 96.1009 82.8515 97.6074 83.9674 97.6074H87.333C86.2531 97.6074 84.6873 96.1009 84.6873 95.0069Z" fill="#E6EFFE"/>
<path d="M108.84 60.2855C104.629 57.685 104.143 52.5377 104.089 51.5334C104.071 50.8878 103.549 50.3856 102.901 50.3856H102.883C101.425 50.4035 99.2837 48.1258 98.4558 44.6824C98.2038 43.6063 98.5458 42.7813 99.0137 42.5482C99.4457 42.315 99.9316 42.7275 100.166 42.9965C100.58 43.4808 101.353 43.5346 101.839 43.1221C102.271 42.7275 102.361 42.0998 102.055 41.6156C101.659 40.5933 101.137 34.1907 101.137 33.0608C101.137 27.9853 104.827 23.681 109.848 22.856C109.29 22.7663 108.714 22.7305 108.157 22.7305C102.433 22.7305 97.7719 27.3576 97.7719 33.0787C97.7719 34.2265 98.2578 40.6112 98.6897 41.6335C99.0497 42.1895 98.8697 42.9069 98.3118 43.2656C97.8259 43.5704 97.1779 43.4808 96.8 43.0503C96.566 42.7813 96.1161 42.3868 95.6481 42.602C95.1802 42.8351 94.8382 43.6422 95.0902 44.7362C95.9181 48.1796 98.0418 50.4573 99.5176 50.4394H99.5356C100.184 50.4394 100.705 50.9416 100.723 51.5872C100.777 52.5915 101.245 57.7388 105.475 60.3393C107.113 61.3436 109.146 61.8458 111.522 61.8458C112.08 61.8458 112.638 61.8099 113.196 61.7382C111.648 61.5768 110.172 61.0925 108.84 60.2855Z" fill="#E6EFFE"/>
<path d="M132.706 92.9266C133.03 92.9984 133.354 93.0342 133.66 93.0342C136.305 93.0342 138.447 90.8821 138.447 88.2457C138.447 86.0936 136.989 84.1925 134.901 83.6365C134.703 78.7583 133.552 73.7546 131.77 70.0601C131.482 69.4682 130.78 69.2351 130.204 69.5041C129.628 69.7731 129.376 70.4905 129.646 71.0644C131.284 74.454 132.346 79.0632 132.544 83.5827C129.97 84.2104 128.386 86.7751 128.98 89.3397C129.412 91.1511 130.87 92.55 132.706 92.9266ZM131.248 87.7435C131.482 86.6137 132.472 85.7887 133.624 85.7887C133.786 85.7887 133.948 85.8066 134.11 85.8425C135.423 86.1115 136.287 87.3849 136.017 88.6941C135.747 90.0033 134.469 90.8642 133.156 90.5951C131.842 90.3441 130.996 89.0528 131.248 87.7435Z" fill="#02C9E8"/>
<path d="M85.1016 92.5141C85.7675 92.5679 86.3075 92.0837 86.3615 91.4201C86.4155 90.7745 85.9295 90.2185 85.2636 90.1647C84.9217 90.1468 84.6337 89.8598 84.6157 89.5191L87.0634 81.0539C87.0814 80.9643 87.0994 80.8925 87.1174 80.8208C87.1534 80.4262 87.4773 80.1572 87.8553 80.1751L92.0488 80.48C92.4447 80.5159 92.7147 80.8387 92.6967 81.2154C92.6967 81.305 92.6967 81.3768 92.7147 81.4664L93.9385 90.1826C93.8665 90.5234 93.5426 90.7565 93.2186 90.7207C92.5527 90.6669 92.0128 91.169 91.9588 91.8147C91.9048 92.4603 92.3907 93.0163 93.0566 93.0522H93.2726C94.8744 93.0522 96.2062 91.8147 96.3142 90.2364C96.3142 90.1468 96.3142 90.075 96.2962 89.9854L95.0724 81.2154C95.1084 79.5833 93.8665 78.2203 92.2467 78.1127L91.6708 78.0768C92.4087 75.2611 93.4706 72.4095 94.5145 70.5802C94.8384 70.0062 94.6404 69.3068 94.0645 68.984C93.4886 68.6611 92.7867 68.8584 92.4627 69.4323C91.0589 71.9252 89.943 75.3507 89.2951 77.9333L88.0533 77.8437C86.4155 77.7181 85.0116 78.9018 84.7957 80.5338L82.33 89.0348C82.312 89.1245 82.294 89.1962 82.276 89.268C82.168 90.9359 83.4278 92.4065 85.1016 92.5141Z" fill="#02C9E8"/>
<path d="M107.868 99.9875C107.994 100.005 108.12 100.005 108.246 99.9875H138.087C140.48 99.9875 143 97.4408 143 95.0376V82.0709C143 76.7622 137.619 71.7226 128.602 68.5482C128.134 67.5618 127.27 66.7189 126.136 66.127C125.794 65.9477 123.328 65.0689 121.133 64.2977L119.783 61.6613C123.346 58.8994 124.372 54.6668 124.678 52.6402C127.162 51.9946 129.43 49.0892 130.348 45.2512C130.816 43.2784 130.15 41.3953 128.656 40.6061C128.278 40.4088 127.864 40.2833 127.45 40.2474C128.17 37.7545 128.443 35.3656 128.512 34.616C129.106 28.0914 123.823 22.7612 111.837 22.7612C99.8504 22.7612 95.2934 29.6373 95.7019 33.9883C95.7523 34.5245 95.6479 35.7817 95.8639 37.898C95.9539 38.8306 96.0259 39.5839 96.1159 40.1936C95.6119 40.1757 95.126 40.3012 94.676 40.5344C93.1462 41.3235 92.4263 43.2425 92.9123 45.2871C93.8301 49.1251 96.0979 52.0125 98.5816 52.6761C98.8515 54.7206 99.8234 59.007 103.495 61.7689L102.091 64.6026C99.3015 65.4814 97.7357 66.0015 97.4657 66.145C96.5478 66.5933 95.7559 67.3107 95.216 68.1716C84.9213 71.5253 79 76.5829 79 82.0709V95.0376C79 97.4587 81.5737 99.9875 84.0214 99.9875H107.868ZM109.056 97.6381L105.871 71.884L111.468 74.0541L117.317 71.8302L114.186 97.6381H109.056ZM105.457 69.2297L104.161 65.6966L105.511 62.9347C107.274 63.7597 109.344 64.1722 111.63 64.1722C113.916 64.1722 116.003 63.7417 117.803 62.8809L119.099 65.4276L117.731 69.1221L111.486 71.6867L105.457 69.2297ZM128.494 72.3145C128.692 71.9558 128.854 71.5791 128.926 71.1666C136.197 73.9465 140.642 78.0535 140.642 82.0709V95.0376C140.642 96.1674 139.184 97.6381 138.087 97.6381H117.317L127.954 80.8513C128.764 79.6856 129.124 78.3584 128.89 77.2465C128.764 76.5291 128.368 75.9014 127.774 75.4889C127.378 75.2378 126.928 75.0226 126.496 74.8432C127.27 74.09 127.954 73.2291 128.494 72.3145ZM119.999 75.4889L121.277 66.8444C123.112 67.4901 124.804 68.0998 125.092 68.2254C125.866 68.6199 126.424 69.2297 126.604 69.8574C126.73 70.3058 126.676 70.7721 126.442 71.1846C125.488 72.9063 123.49 74.3949 123.472 74.4128C122.951 74.8074 122.825 75.5427 123.238 76.0628C123.4 76.278 123.634 76.4394 123.904 76.4932C124.606 76.6726 125.956 77.085 126.496 77.4437C126.568 77.5155 126.604 77.5872 126.604 77.6769C126.676 78.0535 126.568 78.7709 126.028 79.5242C126.01 79.5421 126.01 79.56 125.992 79.578L117.227 93.4055L119.999 75.4889ZM100.813 51.5821C100.795 50.9364 100.273 50.4343 99.6254 50.4343C98.1676 50.4522 96.0259 48.1745 95.198 44.7311C94.946 43.655 95.288 42.83 95.7559 42.5969C96.1879 42.3637 96.6738 42.7762 96.9078 43.0452C97.3217 43.5295 98.0956 43.5833 98.5816 43.1708C99.0135 42.7762 99.1035 42.1485 98.7975 41.6643C98.4016 40.642 98.0596 35.8535 98.0596 34.7236C98.0596 29.0204 105.39 25.0031 111.477 25.0031C122.576 25.0031 126.311 29.7252 126.154 34.6519C126.127 35.5306 125.038 40.7317 124.534 41.6284C124.156 42.1485 124.282 42.8838 124.804 43.2784C125.272 43.6191 125.938 43.5474 126.334 43.1349C126.532 42.9376 127.036 42.4713 127.54 42.7403C127.954 42.9735 128.314 43.7088 128.044 44.7849C127.216 48.2283 125.092 50.506 123.616 50.4881C122.969 50.4701 122.429 50.9723 122.429 51.618C122.357 52.6223 121.799 57.7516 117.659 60.3521C116.021 61.3744 114.006 61.8945 111.63 61.8945C109.254 61.8945 107.22 61.3923 105.583 60.388C101.353 57.7157 100.867 52.5685 100.813 51.5821ZM96.9798 69.8395C97.1597 69.2118 97.7177 68.6199 98.5096 68.2074C98.7975 68.0819 100.309 67.5797 101.965 67.0596L103.261 76.1345C103.261 76.1704 103.261 76.1883 103.279 76.2242L105.979 93.2441L97.6097 79.7214C97.5917 79.7035 97.5917 79.6856 97.5737 79.6676C97.0697 78.9502 96.9078 78.197 96.9978 77.7486C96.9978 77.659 97.0517 77.5693 97.1057 77.4975C97.6637 77.1209 99.0135 76.6905 99.7154 76.5111C100.345 76.3497 100.723 75.7041 100.561 75.0584C100.489 74.8074 100.345 74.5742 100.129 74.4128C99.5714 74.0003 97.9696 72.6193 97.1597 71.1487C96.9078 70.79 96.8358 70.3058 96.9798 69.8395ZM81.3217 95.0376V82.0709C81.3217 77.9638 86.2351 73.803 94.5861 70.8618C94.658 71.3819 94.82 71.884 95.09 72.3324C95.6479 73.265 96.3138 74.1438 97.0877 74.897C96.6378 75.0584 96.1879 75.2916 95.7739 75.5606C95.162 75.9731 94.766 76.6187 94.658 77.3182C94.4421 78.466 94.784 79.8111 95.5939 80.9769L105.925 97.6381H83.9854C82.8695 97.6381 81.3217 96.1316 81.3217 95.0376Z" fill="#0758E4"/>
<path d="M107.022 45.4359C107.967 45.4359 108.732 44.6737 108.732 43.7321C108.732 42.7905 107.967 42.0283 107.022 42.0283C106.077 42.0283 105.312 42.7905 105.312 43.7321C105.312 44.6737 106.077 45.4359 107.022 45.4359Z" fill="#0758E4"/>
<path d="M115.931 45.4359C116.876 45.4359 117.641 44.6737 117.641 43.7321C117.641 42.7905 116.876 42.0283 115.931 42.0283C114.987 42.0283 114.222 42.7905 114.222 43.7321C114.222 44.6737 114.987 45.4359 115.931 45.4359Z" fill="#0758E4"/>
<path d="M111.363 56.2649C109.036 56.2649 106.747 55.5062 104.512 53.9908C104.182 53.7684 104.098 53.3218 104.321 52.9936C104.544 52.6654 104.992 52.5811 105.322 52.8035C109.322 55.517 113.354 55.5116 117.65 52.791C117.985 52.5775 118.431 52.678 118.643 53.0116C118.856 53.3451 118.757 53.7899 118.422 54.0015C116.043 55.5116 113.683 56.2649 111.363 56.2649Z" fill="#0758E4"/>
<path d="M95.7178 34.8312C95.0681 31.047 96.1731 27.4027 98.2717 25.6522C100.827 23.5198 102.651 22.9047 105.024 22.9477C107.945 19.9777 116.732 20.6969 121.671 23.1378C126.609 25.5787 129.006 29.2158 128.555 33.5345C127.696 33.9864 126.154 34.6518 126.154 34.6518C126.154 34.6518 125.74 31.576 124.691 30.3995C122.02 31.4021 117.583 31.1761 114.547 30.8461C111.511 30.5161 106.738 28.6653 105.312 27.4152C102.656 29.3683 98.619 33.9649 95.7178 34.8312Z" fill="#0758E4"/>
<path d="M107.022 48.126C104.69 48.126 102.793 46.2357 102.793 43.9114C102.793 41.5871 104.69 39.6968 107.022 39.6968C109.355 39.6968 111.252 41.5871 111.252 43.9114C111.252 46.2357 109.355 48.126 107.022 48.126ZM107.022 40.9522C105.385 40.9522 104.053 42.2794 104.053 43.9114C104.053 45.5434 105.385 46.8706 107.022 46.8706C108.66 46.8706 109.992 45.5434 109.992 43.9114C109.992 42.2794 108.66 40.9522 107.022 40.9522Z" fill="#0758E4"/>
<path d="M116.021 48.126C113.689 48.126 111.792 46.2357 111.792 43.9114C111.792 41.5871 113.689 39.6968 116.021 39.6968C118.354 39.6968 120.251 41.5871 120.251 43.9114C120.251 46.2357 118.354 48.126 116.021 48.126ZM116.021 40.9522C114.384 40.9522 113.052 42.2794 113.052 43.9114C113.052 45.5434 114.384 46.8706 116.021 46.8706C117.659 46.8706 118.991 45.5434 118.991 43.9114C118.991 42.2794 117.659 40.9522 116.021 40.9522Z" fill="#0758E4"/>
<path d="M103.423 45.0771C103.333 45.0771 103.241 45.0574 103.154 45.0161L97.3087 42.2667C96.9938 42.1179 96.8588 41.7448 97.0082 41.431C97.1575 41.1171 97.5319 40.9826 97.8469 41.1315L103.693 43.8809C104.007 44.0297 104.142 44.4028 103.993 44.7166C103.885 44.9426 103.66 45.0771 103.423 45.0771Z" fill="#0758E4"/>
<path d="M119.896 45.0771C119.66 45.0771 119.434 44.9444 119.326 44.7166C119.176 44.4028 119.311 44.0297 119.626 43.8809L125.472 41.1315C125.787 40.9826 126.161 41.1171 126.31 41.431C126.46 41.7448 126.325 42.1179 126.01 42.2667L120.164 45.0161C120.078 45.0574 119.986 45.0771 119.896 45.0771Z" fill="#0758E4"/>
<path d="M106.313 79.5832C106.022 79.5832 105.73 79.4828 105.493 79.2801C104.965 78.8282 104.904 78.0355 105.358 77.51L109.972 72.1601C110.426 71.6346 111.221 71.5736 111.749 72.0256C112.276 72.4776 112.337 73.2703 111.884 73.7957L107.269 79.1456C107.021 79.4344 106.668 79.5832 106.313 79.5832Z" fill="#0758E4"/>
<path d="M116.508 79.5833C116.153 79.5833 115.8 79.4345 115.552 79.1457L110.937 73.7959C110.484 73.2704 110.543 72.4777 111.072 72.0257C111.6 71.5738 112.395 71.6329 112.849 72.1602L117.463 77.5101C117.917 78.0356 117.858 78.8283 117.328 79.2802C117.091 79.4847 116.799 79.5833 116.508 79.5833Z" fill="#0758E4"/>
<path d="M107.202 88.9704L109.556 81.2137L107.728 76.6583L111.468 72.7988L115.179 76.7301L113.512 81.3321L115.841 89.0996L114.371 98.4255H108.637L107.202 88.9704Z" fill="#0758E4"/>
<path d="M117.652 49.7491C116.061 48.3287 111.979 49.541 111.395 49.7258C110.81 49.541 106.728 48.3287 105.137 49.7491C103.422 51.2807 103.512 52.4984 103.512 52.4984L111.251 52.5307H111.54L119.279 52.4984C119.279 52.4984 119.369 51.2825 117.654 49.7491H117.652Z" fill="#0758E4"/>
</g>
<path d="M88 19.7941C88 15.4896 84.5105 12 80.2059 12H42.7941C38.4895 12 35 15.4895 35 19.7941V37.6753C35 41.9799 38.4895 45.4695 42.7941 45.4695H61.5H68.39L79.3482 51.3083C80.3865 51.8615 81.64 51.1091 81.64 49.9325V45.4695C85.1525 45.4695 88 42.622 88 39.1094V19.7941Z" fill="white"/>
<path fill-rule="evenodd" clip-rule="evenodd" d="M69.856 42.718C69.4048 42.4776 68.9013 42.3518 68.39 42.3518H42.7941C40.2114 42.3518 38.1176 40.2581 38.1176 37.6753V19.7941C38.1176 17.2114 40.2114 15.1176 42.7941 15.1176H80.2059C82.7886 15.1176 84.8824 17.2114 84.8824 19.7941V39.1094C84.8824 40.9002 83.4307 42.3518 81.64 42.3518V45.4695C85.1525 45.4695 88 42.622 88 39.1094V19.7941C88 15.4896 84.5105 12 80.2059 12H42.7941C38.4895 12 35 15.4895 35 19.7941V37.6753C35 41.9799 38.4895 45.4695 42.7941 45.4695H68.39L79.3482 51.3083C80.3865 51.8615 81.64 51.1091 81.64 49.9325V45.4695V42.3518H78.5224V47.3357L69.856 42.718Z" fill="#0758E4"/>
</g>
<path d="M167.019 98.0073C167.019 100.216 165.228 102.007 163.019 102.007L102.509 102.008L42.0001 102.008C39.7909 102.008 38.0001 100.218 38.0001 98.0084L38 96.0011L69.7547 96.0008L84.2733 96.0007C84.7475 96.0007 85.1319 96.3851 85.1319 96.8593C85.1319 98.4381 86.4118 99.718 87.9906 99.718L117.028 99.7179C118.607 99.7179 119.887 98.438 119.887 96.8591C119.887 96.3849 120.271 96.0004 120.745 96.0004L135.264 96.0003L167.018 96L167.019 98.0073Z" fill="#0758E4" stroke="#0758E4" stroke-width="2"/>
<defs>
<filter id="filter0_dd_1_417" x="-78.667" y="-85" width="357.333" height="394" filterUnits="userSpaceOnUse" color-interpolation-filters="sRGB">
<feFlood flood-opacity="0" result="BackgroundImageFix"/>
<feColorMatrix in="SourceAlpha" type="matrix" values="0 0 0 0 0 0 0 0 0 0 0 0 0 0 0 0 0 0 127 0" result="hardAlpha"/>
<feOffset dy="1"/>
<feGaussianBlur stdDeviation="8"/>
<feComposite in2="hardAlpha" operator="out"/>
<feColorMatrix type="matrix" values="0 0 0 0 0 0 0 0 0 0 0 0 0 0 0 0 0 0 0.05 0"/>
<feBlend mode="normal" in2="BackgroundImageFix" result="effect1_dropShadow_1_417"/>
<feColorMatrix in="SourceAlpha" type="matrix" values="0 0 0 0 0 0 0 0 0 0 0 0 0 0 0 0 0 0 127 0" result="hardAlpha"/>
<feOffset dy="1"/>
<feGaussianBlur stdDeviation="4"/>
<feComposite in2="hardAlpha" operator="out"/>
<feColorMatrix type="matrix" values="0 0 0 0 0 0 0 0 0 0 0 0 0 0 0 0 0 0 0.1 0"/>
<feBlend mode="normal" in2="effect1_dropShadow_1_417" result="effect2_dropShadow_1_417"/>
<feBlend mode="normal" in="SourceGraphic" in2="effect2_dropShadow_1_417" result="shape"/>
</filter>
<clipPath id="clip0_1_417">
<rect width="64" height="79" fill="white" transform="translate(79 21)"/>
</clipPath>
</defs>
</svg>
