<svg width="201" height="120" viewBox="0 0 201 120" fill="none" xmlns="http://www.w3.org/2000/svg">
<rect width="200" height="120" transform="translate(0.666992)" fill="white"/>
<g clip-path="url(#clip0_66_2544)">
<path d="M48.8225 81.8772C47.4781 81.3089 46.9832 73.9069 47.5267 72.8167L48.4266 71.0118C47.4187 70.8152 46.4468 70.5114 45.511 70.0825L44.1611 72.8346L45.457 81.8951C47.3647 82.735 50.8563 83.4856 51.4502 83.4856C52.0261 83.432 52.6021 83.3426 53.16 83.1997C51.8462 82.878 50.167 82.4455 48.8225 81.8772V81.8772Z" fill="#E6EFFE"/>
<path d="M24.6873 102.053V89.1326C24.6873 85.5585 28.4488 81.9486 34.928 79.1429C34.748 78.7676 34.622 78.3744 34.5681 77.9634C26.2351 80.9121 21.3037 85.0223 21.3037 89.1326V102.053C21.3037 103.143 22.8515 104.644 23.9674 104.644H27.333C26.2531 104.644 24.6873 103.143 24.6873 102.053V102.053Z" fill="#E6EFFE"/>
<path d="M48.8405 67.4556C44.629 64.8643 44.1431 59.7354 44.0891 58.7346C44.0711 58.0913 43.5491 57.5909 42.9012 57.5909H42.8832C41.4254 57.6088 39.2837 55.3392 38.4558 51.908C38.2038 50.8357 38.5458 50.0137 39.0137 49.7814C39.4457 49.5491 39.9316 49.9601 40.1656 50.2281C40.5795 50.7107 41.3534 50.7643 41.8394 50.3532C42.2713 49.9601 42.3613 49.3346 42.0553 48.8521C41.6594 47.8335 41.1374 41.4536 41.1374 40.3277C41.1374 35.2703 44.827 30.9813 49.8484 30.1593C49.2904 30.0699 48.7145 30.0342 48.1566 30.0342C42.4333 30.0342 37.7719 34.6448 37.7719 40.3456C37.7719 41.4893 38.2578 47.8513 38.6897 48.87C39.0497 49.424 38.8697 50.1388 38.3118 50.4962C37.8259 50.8 37.1779 50.7107 36.8 50.2818C36.566 50.0137 36.1161 49.6205 35.6481 49.835C35.1802 50.0673 34.8382 50.8715 35.0902 51.9616C35.9181 55.3928 38.0418 57.6624 39.5176 57.6445H39.5356C40.1836 57.6445 40.7055 58.1449 40.7235 58.7882C40.7775 59.789 41.2454 64.9179 45.4749 67.5092C47.1127 68.5099 49.1464 69.0103 51.5221 69.0103C52.0801 69.0103 52.638 68.9746 53.1959 68.9031C51.6481 68.7423 50.1723 68.2597 48.8405 67.4556V67.4556Z" fill="#E6EFFE"/>
<path d="M47.8684 106.986C47.9944 107.004 48.1204 107.004 48.2463 106.986H78.0866C80.4803 106.986 83 104.448 83 102.053V89.1328C83 83.843 77.6187 78.8214 68.6018 75.6582C68.1339 74.6753 67.27 73.8354 66.1361 73.2457C65.7942 73.067 63.3285 72.1913 61.1327 71.4229L59.7829 68.7959C63.3465 66.0438 64.3723 61.8263 64.6783 59.8069C67.162 59.1635 69.4297 56.2685 70.3476 52.4441C70.8155 50.4783 70.1496 48.6019 68.6558 47.8156C68.2778 47.619 67.8639 47.4939 67.4499 47.4582C68.1699 44.9741 68.6234 42.5938 68.6918 41.8468C69.2857 35.3454 63.8234 30.0342 51.8369 30.0342C39.8504 30.0342 35.2934 36.8858 35.7019 41.2213C35.7523 41.7556 35.6479 43.0084 35.8639 45.1171C35.9539 46.0464 36.0259 46.797 36.1159 47.4046C35.6119 47.3867 35.126 47.5118 34.676 47.7441C33.1462 48.5304 32.4263 50.4426 32.9123 52.4799C33.8301 56.3042 36.0979 59.1814 38.5816 59.8426C38.8515 61.8799 39.8234 66.151 43.4949 68.9031L42.0911 71.7267C39.3015 72.6023 37.7357 73.1206 37.4657 73.2636C36.5478 73.7103 35.7559 74.4252 35.216 75.283C24.9213 78.6248 19 83.6643 19 89.1328V102.053C19 104.466 21.5737 106.986 24.0214 106.986H47.8684V106.986ZM49.0562 104.645L45.8706 84.5221C48.0664 85.2548 50.712 85.791 51.4679 85.791C52.2778 85.791 55.0495 85.237 57.3172 84.4685L54.1856 104.645H49.0562ZM45.4567 81.8773L44.1609 72.8168L45.5107 70.0647C47.2745 70.8867 49.3442 71.2978 51.6299 71.2978C53.9156 71.2978 56.0034 70.8689 57.8032 70.0111L59.099 72.5487L57.7312 81.77C55.7694 82.6636 52.1519 83.432 51.4859 83.432C50.838 83.4499 47.3645 82.6814 45.4567 81.8773V81.8773ZM68.4938 79.4111C68.6918 79.0537 68.8538 78.6784 68.9258 78.2674C76.1969 81.0373 80.6423 85.1297 80.6423 89.1328V102.053C80.6423 103.179 79.1845 104.645 78.0866 104.645H57.3172L67.9539 87.9176C68.7638 86.756 69.1237 85.4335 68.8898 84.3256C68.7638 83.6107 68.3678 82.9853 67.7739 82.5742C67.378 82.324 66.928 82.1096 66.4961 81.9309C67.27 81.1803 67.9539 80.3225 68.4938 79.4111ZM59.9989 82.5742L61.2767 73.9605C63.1125 74.6039 64.8043 75.2115 65.0922 75.3366C65.8661 75.7297 66.4241 76.3373 66.6041 76.9628C66.73 77.4096 66.676 77.8742 66.4421 78.2852C65.4882 80.0008 63.4904 81.4841 63.4724 81.502C62.9505 81.8951 62.8245 82.6278 63.2385 83.1461C63.4005 83.3605 63.6344 83.5214 63.9044 83.575C64.6063 83.7537 65.9561 84.1647 66.4961 84.5221C66.5681 84.5936 66.6041 84.6651 66.6041 84.7545C66.676 85.1297 66.5681 85.8446 66.0281 86.5951C66.0101 86.613 66.0101 86.6309 65.9921 86.6488L57.2272 100.427L59.9989 82.5742V82.5742ZM40.8133 58.7525C40.7953 58.1091 40.2733 57.6088 39.6254 57.6088C38.1676 57.6266 36.0259 55.3571 35.198 51.9259C34.946 50.8536 35.288 50.0316 35.7559 49.7992C36.1879 49.5669 36.6738 49.978 36.9078 50.246C37.3217 50.7285 38.0956 50.7821 38.5816 50.3711C39.0135 49.978 39.1035 49.3525 38.7975 48.87C38.4016 47.8513 38.0596 43.0798 38.0596 41.954C38.0596 36.2711 45.3901 32.268 51.4769 32.268C62.5762 32.268 66.4907 36.9734 66.3341 41.8825C66.3071 42.7582 65.0382 47.9407 64.5343 48.8342C64.1564 49.3525 64.2823 50.0852 64.8043 50.4783C65.2722 50.8179 65.9381 50.7464 66.3341 50.3354C66.5321 50.1388 67.036 49.6741 67.5399 49.9422C67.9539 50.1745 68.3138 50.9072 68.0439 51.9795C67.216 55.4107 65.0922 57.6803 63.6164 57.6624C62.9685 57.6445 62.4286 58.1449 62.4286 58.7882C62.3566 59.789 61.7987 64.9 57.6592 67.4913C56.0214 68.5099 54.0056 69.0282 51.6299 69.0282C49.2542 69.0282 47.2205 68.5278 45.5827 67.527C41.3532 64.8643 40.8673 59.7354 40.8133 58.7525V58.7525ZM36.9798 76.9449C37.1597 76.3195 37.7177 75.7297 38.5096 75.3187C38.7975 75.1936 40.3093 74.6932 41.9651 74.175L43.261 83.2176C43.261 83.2533 43.261 83.2712 43.279 83.3069L45.9786 100.266L37.6097 86.7917C37.5917 86.7738 37.5917 86.756 37.5737 86.7381C37.0697 86.0233 36.9078 85.2727 36.9978 84.8259C36.9978 84.7366 37.0517 84.6472 37.1057 84.5757C37.6637 84.2005 39.0135 83.7716 39.7154 83.5929C40.3453 83.432 40.7233 82.7887 40.5613 82.1453C40.4893 81.8951 40.3453 81.6628 40.1294 81.502C39.5714 81.0909 37.9696 79.7149 37.1597 78.2495C36.9078 77.8921 36.8358 77.4096 36.9798 76.9449V76.9449ZM21.3217 102.053V89.1328C21.3217 85.0404 26.2351 80.8944 34.5861 77.9636C34.658 78.4818 34.82 78.9822 35.09 79.429C35.6479 80.3582 36.3138 81.2339 37.0877 81.9845C36.6378 82.1453 36.1879 82.3776 35.7739 82.6457C35.162 83.0567 34.766 83.7001 34.658 84.397C34.4421 85.5408 34.784 86.8811 35.5939 88.0427L45.9246 104.645H23.9854C22.8695 104.645 21.3217 103.143 21.3217 102.053V102.053Z" fill="#02C9E8"/>
<path d="M47.0223 52.6284C47.9672 52.6284 48.7321 51.8688 48.7321 50.9306C48.7321 49.9924 47.9672 49.2329 47.0223 49.2329C46.0774 49.2329 45.3125 49.9924 45.3125 50.9306C45.3125 51.8688 46.0774 52.6284 47.0223 52.6284Z" fill="#02C9E8"/>
<path d="M55.9315 52.6284C56.8763 52.6284 57.6413 51.8688 57.6413 50.9306C57.6413 49.9924 56.8763 49.2329 55.9315 49.2329C54.9866 49.2329 54.2217 49.9924 54.2217 50.9306C54.2217 51.8688 54.9866 52.6284 55.9315 52.6284Z" fill="#02C9E8"/>
<path fill-rule="evenodd" clip-rule="evenodd" d="M58.6454 60.2107C58.8578 60.5431 58.7588 60.9863 58.424 61.1972C56.1131 62.6554 53.7734 63.4346 51.4211 63.4471C49.0652 63.4596 46.7561 62.7019 44.5136 61.1847C44.1842 60.9631 44.0996 60.5181 44.3228 60.191C44.546 59.864 44.9941 59.78 45.3235 60.0016C47.3644 61.3812 49.3928 62.0264 51.4139 62.0156C53.4387 62.0049 55.5174 61.3366 57.6519 59.9891C57.9885 59.7782 58.433 59.8765 58.6454 60.2089V60.2107Z" fill="#02C9E8"/>
<path d="M35.8011 44.4199C34.6276 39.1284 35.9253 34.4463 38.6609 31.712C43.0794 27.6214 53.4551 24.5316 59.8731 30.4379C60.5426 30.361 61.1059 30.386 61.734 30.4253C65.9707 30.688 70.6141 35.229 68.5444 42.8366L66.0535 43.4889C66.0535 43.4889 65.8969 40.8923 63.5176 39.3429C61.1383 37.7935 58.6312 37.2824 58.6312 37.2824C58.6312 37.2824 55.5716 39.493 53.3759 40.508C51.1801 41.5231 48.3005 41.5302 48.3005 41.5302C48.3005 41.5302 49.9347 40.1131 50.5898 39.4644C51.2449 38.8157 51.7021 37.8971 51.7021 37.8971C51.7021 37.8971 47.1073 40.6224 43.7039 42.0342C40.3005 43.446 35.8011 44.4199 35.8011 44.4199V44.4199Z" fill="#02C9E8"/>
<path d="M49.0567 104.645L45.8711 84.5224C48.0668 85.2551 50.7125 85.7912 51.4684 85.7912C52.2783 85.7912 55.0499 85.2372 57.3177 84.4688L54.1861 104.645H49.0567V104.645Z" fill="#02C9E8"/>
<path d="M55.5713 24.9998C55.5713 24.9998 58.4149 25.1124 59.5596 27.1175C60.3803 28.5561 59.8728 30.7953 59.8728 30.7953L56.8221 29.6766C56.8221 29.6766 57.1137 28.1987 56.8221 27.139C56.5306 26.0792 55.5713 24.998 55.5713 24.998V24.9998Z" fill="#02C9E8"/>
</g>
<g clip-path="url(#clip1_66_2544)">
<path d="M148.823 77.8131C147.635 76.972 147.185 73.3528 147.527 72.6659L148.427 70.8545C147.419 70.6572 146.447 70.3523 145.511 69.9219L144.161 72.6838L145.457 78.9071C147.365 79.75 150.856 80.5033 151.45 80.5033C152.026 80.4495 153.16 80.2163 153.16 80.2163C153.16 80.2163 150.01 78.6542 148.823 77.8131V77.8131Z" fill="#E6EFFE"/>
<path d="M124.687 102.007V89.0402C124.687 85.4532 128.449 81.8305 134.928 79.0147C134.748 78.6381 134.622 78.2435 134.568 77.8311C126.235 80.7903 121.304 84.9152 121.304 89.0402V102.007C121.304 103.101 122.852 104.607 123.967 104.607H127.333C126.253 104.607 124.687 103.101 124.687 102.007V102.007Z" fill="#E6EFFE"/>
<path d="M148.84 67.2855C144.629 64.685 144.143 59.5377 144.089 58.5334C144.071 57.8878 143.549 57.3856 142.901 57.3856H142.883C141.425 57.4035 139.284 55.1258 138.456 51.6824C138.204 50.6063 138.546 49.7813 139.014 49.5482C139.446 49.315 139.932 49.7275 140.166 49.9965C140.58 50.4808 141.353 50.5346 141.839 50.1221C142.271 49.7275 142.361 49.0998 142.055 48.6156C141.659 47.5933 141.137 41.1907 141.137 40.0608C141.137 34.9853 144.827 30.681 149.848 29.856C149.29 29.7663 148.714 29.7305 148.157 29.7305C142.433 29.7305 137.772 34.3576 137.772 40.0787C137.772 41.2265 138.258 47.6112 138.69 48.6335C139.05 49.1895 138.87 49.9069 138.312 50.2656C137.826 50.5704 137.178 50.4808 136.8 50.0503C136.566 49.7813 136.116 49.3868 135.648 49.602C135.18 49.8351 134.838 50.6422 135.09 51.7362C135.918 55.1796 138.042 57.4573 139.518 57.4394H139.536C140.184 57.4394 140.705 57.9416 140.723 58.5872C140.777 59.5915 141.245 64.7388 145.475 67.3393C147.113 68.3436 149.146 68.8458 151.522 68.8458C152.08 68.8458 152.638 68.8099 153.196 68.7382C151.648 68.5768 150.172 68.0925 148.84 67.2855V67.2855Z" fill="#E6EFFE"/>
<path d="M172.706 99.9266C173.03 99.9984 173.354 100.034 173.66 100.034C176.305 100.034 178.447 97.8821 178.447 95.2457C178.447 93.0936 176.989 91.1925 174.901 90.6365C174.703 85.7583 173.552 80.7546 171.77 77.0601C171.482 76.4682 170.78 76.2351 170.204 76.5041C169.628 76.7731 169.376 77.4905 169.646 78.0644C171.284 81.454 172.346 86.0632 172.544 90.5827C169.97 91.2104 168.386 93.7751 168.98 96.3397C169.412 98.1511 170.87 99.55 172.706 99.9266V99.9266ZM171.248 94.7435C171.482 93.6137 172.472 92.7887 173.624 92.7887C173.786 92.7887 173.948 92.8066 174.11 92.8425C175.423 93.1115 176.287 94.3849 176.017 95.6941C175.747 97.0033 174.469 97.8642 173.156 97.5951C171.842 97.3441 170.996 96.0528 171.248 94.7435V94.7435Z" fill="#02C9E8"/>
<path d="M125.102 99.5141C125.768 99.5679 126.307 99.0837 126.361 98.4201C126.415 97.7745 125.93 97.2185 125.264 97.1647C124.922 97.1468 124.634 96.8598 124.616 96.5191L127.063 88.0539C127.081 87.9643 127.099 87.8925 127.117 87.8208C127.153 87.4262 127.477 87.1572 127.855 87.1751L132.049 87.48C132.445 87.5159 132.715 87.8387 132.697 88.2154C132.697 88.305 132.697 88.3768 132.715 88.4664L133.939 97.1826C133.867 97.5234 133.543 97.7565 133.219 97.7207C132.553 97.6669 132.013 98.169 131.959 98.8147C131.905 99.4603 132.391 100.016 133.057 100.052H133.273C134.874 100.052 136.206 98.8147 136.314 97.2364C136.314 97.1468 136.314 97.075 136.296 96.9854L135.072 88.2154C135.108 86.5833 133.867 85.2203 132.247 85.1127L131.671 85.0768C132.409 82.2611 133.471 79.4095 134.514 77.5802C134.838 77.0062 134.64 76.3068 134.065 75.984C133.489 75.6611 132.787 75.8584 132.463 76.4323C131.059 78.9252 129.943 82.3507 129.295 84.9333L128.053 84.8437C126.415 84.7181 125.012 85.9018 124.796 87.5338L122.33 96.0348C122.312 96.1245 122.294 96.1962 122.276 96.268C122.168 97.9359 123.428 99.4065 125.102 99.5141V99.5141Z" fill="#02C9E8"/>
<path d="M147.868 106.988C147.994 107.005 148.12 107.005 148.246 106.988H178.087C180.48 106.988 183 104.441 183 102.038V89.0709C183 83.7622 177.619 78.7226 168.602 75.5482C168.134 74.5618 167.27 73.7189 166.136 73.127C165.794 72.9477 163.328 72.0689 161.133 71.2977L159.783 68.6613C163.346 65.8994 164.372 61.6668 164.678 59.6402C167.162 58.9946 169.43 56.0892 170.348 52.2512C170.816 50.2784 170.15 48.3953 168.656 47.6061C168.278 47.4088 167.864 47.2833 167.45 47.2474C168.17 44.7545 168.443 42.3656 168.512 41.616C169.106 35.0914 163.823 29.7612 151.837 29.7612C139.85 29.7612 135.293 36.6373 135.702 40.9883C135.752 41.5245 135.648 42.7817 135.864 44.898C135.954 45.8306 136.026 46.5839 136.116 47.1936C135.612 47.1757 135.126 47.3012 134.676 47.5344C133.146 48.3235 132.426 50.2425 132.912 52.2871C133.83 56.1251 136.098 59.0125 138.582 59.6761C138.852 61.7206 139.823 66.007 143.495 68.7689L142.091 71.6026C139.301 72.4814 137.736 73.0015 137.466 73.145C136.548 73.5933 135.756 74.3107 135.216 75.1716C124.921 78.5253 119 83.5829 119 89.0709V102.038C119 104.459 121.574 106.988 124.021 106.988H147.868ZM149.056 104.638L145.871 78.884L151.468 81.0541L157.317 78.8302L154.186 104.638H149.056V104.638ZM145.457 76.2297L144.161 72.6966L145.511 69.9347C147.274 70.7597 149.344 71.1722 151.63 71.1722C153.916 71.1722 156.003 70.7417 157.803 69.8809L159.099 72.4276L157.731 76.1221L151.486 78.6867L145.457 76.2297V76.2297ZM168.494 79.3145C168.692 78.9558 168.854 78.5791 168.926 78.1666C176.197 80.9465 180.642 85.0535 180.642 89.0709V102.038C180.642 103.167 179.184 104.638 178.087 104.638H157.317L167.954 87.8513C168.764 86.6856 169.124 85.3584 168.89 84.2465C168.764 83.5291 168.368 82.9014 167.774 82.4889C167.378 82.2378 166.928 82.0226 166.496 81.8432C167.27 81.09 167.954 80.2291 168.494 79.3145ZM159.999 82.4889L161.277 73.8444C163.112 74.4901 164.804 75.0998 165.092 75.2254C165.866 75.6199 166.424 76.2297 166.604 76.8574C166.73 77.3058 166.676 77.7721 166.442 78.1846C165.488 79.9063 163.49 81.3949 163.472 81.4128C162.951 81.8074 162.825 82.5427 163.238 83.0628C163.4 83.278 163.634 83.4394 163.904 83.4932C164.606 83.6726 165.956 84.0851 166.496 84.4437C166.568 84.5155 166.604 84.5872 166.604 84.6769C166.676 85.0535 166.568 85.7709 166.028 86.5242C166.01 86.5421 166.01 86.56 165.992 86.578L157.227 100.406L159.999 82.4889V82.4889ZM140.813 58.5821C140.795 57.9364 140.273 57.4343 139.625 57.4343C138.168 57.4522 136.026 55.1745 135.198 51.7311C134.946 50.655 135.288 49.83 135.756 49.5969C136.188 49.3637 136.674 49.7762 136.908 50.0452C137.322 50.5295 138.096 50.5833 138.582 50.1708C139.013 49.7762 139.103 49.1485 138.798 48.6643C138.402 47.642 138.06 42.8535 138.06 41.7236C138.06 36.0204 145.39 32.0031 151.477 32.0031C162.576 32.0031 166.311 36.7252 166.154 41.6519C166.127 42.5306 165.038 47.7317 164.534 48.6284C164.156 49.1485 164.282 49.8838 164.804 50.2784C165.272 50.6191 165.938 50.5474 166.334 50.1349C166.532 49.9376 167.036 49.4713 167.54 49.7403C167.954 49.9735 168.314 50.7088 168.044 51.7849C167.216 55.2283 165.092 57.506 163.616 57.4881C162.969 57.4701 162.429 57.9723 162.429 58.618C162.357 59.6223 161.799 64.7516 157.659 67.3521C156.021 68.3744 154.006 68.8945 151.63 68.8945C149.254 68.8945 147.22 68.3923 145.583 67.388C141.353 64.7157 140.867 59.5685 140.813 58.5821V58.5821ZM136.98 76.8395C137.16 76.2118 137.718 75.6199 138.51 75.2074C138.798 75.0819 140.309 74.5797 141.965 74.0596L143.261 83.1345C143.261 83.1704 143.261 83.1883 143.279 83.2242L145.979 100.244L137.61 86.7214C137.592 86.7035 137.592 86.6856 137.574 86.6676C137.07 85.9502 136.908 85.197 136.998 84.7486C136.998 84.659 137.052 84.5693 137.106 84.4975C137.664 84.1209 139.013 83.6905 139.715 83.5111C140.345 83.3497 140.723 82.7041 140.561 82.0584C140.489 81.8074 140.345 81.5742 140.129 81.4128C139.571 81.0003 137.97 79.6193 137.16 78.1487C136.908 77.79 136.836 77.3058 136.98 76.8395V76.8395ZM121.322 102.038V89.0709C121.322 84.9638 126.235 80.803 134.586 77.8618C134.658 78.3819 134.82 78.884 135.09 79.3324C135.648 80.265 136.314 81.1438 137.088 81.897C136.638 82.0584 136.188 82.2916 135.774 82.5606C135.162 82.9731 134.766 83.6187 134.658 84.3182C134.442 85.466 134.784 86.8111 135.594 87.9769L145.925 104.638H123.985C122.87 104.638 121.322 103.132 121.322 102.038V102.038Z" fill="#0758E4"/>
<path d="M147.022 52.4359C147.967 52.4359 148.732 51.6737 148.732 50.7321C148.732 49.7905 147.967 49.0283 147.022 49.0283C146.077 49.0283 145.312 49.7905 145.312 50.7321C145.312 51.6737 146.077 52.4359 147.022 52.4359Z" fill="#0758E4"/>
<path d="M155.931 52.4359C156.876 52.4359 157.641 51.6737 157.641 50.7321C157.641 49.7905 156.876 49.0283 155.931 49.0283C154.987 49.0283 154.222 49.7905 154.222 50.7321C154.222 51.6737 154.987 52.4359 155.931 52.4359Z" fill="#0758E4"/>
<path d="M151.363 63.2649C149.036 63.2649 146.747 62.5062 144.512 60.9908C144.182 60.7684 144.098 60.3218 144.321 59.9936C144.544 59.6654 144.992 59.5811 145.322 59.8035C149.322 62.517 153.354 62.5116 157.65 59.791C157.985 59.5775 158.431 59.678 158.643 60.0116C158.856 60.3451 158.757 60.7899 158.422 61.0015C156.043 62.5116 153.683 63.2649 151.363 63.2649V63.2649Z" fill="#0758E4"/>
<path d="M135.718 41.8312C135.068 38.047 136.173 34.4027 138.272 32.6522C140.827 30.5198 142.651 29.9047 145.024 29.9477C147.945 26.9777 156.732 27.6969 161.671 30.1378C166.609 32.5787 169.006 36.2158 168.555 40.5345C167.696 40.9864 166.154 41.6518 166.154 41.6518C166.154 41.6518 165.74 38.576 164.691 37.3995C162.02 38.4021 157.583 38.1761 154.547 37.8461C151.511 37.5161 146.738 35.6653 145.312 34.4152C142.656 36.3683 138.619 40.9649 135.718 41.8312V41.8312Z" fill="#0758E4"/>
<path d="M147.022 55.126C144.69 55.126 142.793 53.2357 142.793 50.9114C142.793 48.5871 144.69 46.6968 147.022 46.6968C149.355 46.6968 151.252 48.5871 151.252 50.9114C151.252 53.2357 149.355 55.126 147.022 55.126ZM147.022 47.9522C145.385 47.9522 144.053 49.2794 144.053 50.9114C144.053 52.5434 145.385 53.8706 147.022 53.8706C148.66 53.8706 149.992 52.5434 149.992 50.9114C149.992 49.2794 148.66 47.9522 147.022 47.9522Z" fill="#0758E4"/>
<path d="M156.021 55.126C153.689 55.126 151.792 53.2357 151.792 50.9114C151.792 48.5871 153.689 46.6968 156.021 46.6968C158.354 46.6968 160.251 48.5871 160.251 50.9114C160.251 53.2357 158.354 55.126 156.021 55.126ZM156.021 47.9522C154.384 47.9522 153.052 49.2794 153.052 50.9114C153.052 52.5434 154.384 53.8706 156.021 53.8706C157.659 53.8706 158.991 52.5434 158.991 50.9114C158.991 49.2794 157.659 47.9522 156.021 47.9522Z" fill="#0758E4"/>
<path d="M143.423 52.0771C143.333 52.0771 143.241 52.0574 143.154 52.0161L137.309 49.2667C136.994 49.1179 136.859 48.7448 137.008 48.431C137.158 48.1171 137.532 47.9826 137.847 48.1315L143.693 50.8809C144.007 51.0297 144.142 51.4028 143.993 51.7166C143.885 51.9426 143.66 52.0771 143.423 52.0771Z" fill="#0758E4"/>
<path d="M159.896 52.0771C159.66 52.0771 159.434 51.9444 159.326 51.7166C159.176 51.4028 159.311 51.0297 159.626 50.8809L165.472 48.1315C165.787 47.9826 166.161 48.1171 166.31 48.431C166.46 48.7448 166.325 49.1179 166.01 49.2667L160.164 52.0161C160.078 52.0574 159.986 52.0771 159.896 52.0771V52.0771Z" fill="#0758E4"/>
<path d="M146.313 86.5832C146.022 86.5832 145.73 86.4828 145.493 86.2801C144.965 85.8282 144.904 85.0355 145.358 84.51L149.972 79.1601C150.426 78.6346 151.221 78.5736 151.749 79.0256C152.276 79.4776 152.337 80.2703 151.884 80.7957L147.269 86.1456C147.021 86.4344 146.668 86.5832 146.313 86.5832Z" fill="#0758E4"/>
<path d="M156.508 86.5833C156.153 86.5833 155.8 86.4345 155.552 86.1457L150.937 80.7959C150.484 80.2704 150.543 79.4777 151.072 79.0257C151.6 78.5738 152.395 78.6329 152.849 79.1602L157.463 84.5101C157.917 85.0356 157.858 85.8283 157.328 86.2802C157.091 86.4847 156.799 86.5833 156.508 86.5833V86.5833Z" fill="#0758E4"/>
<path d="M147.202 95.9704L149.556 88.2137L147.728 83.6583L151.468 79.7988L155.179 83.7301L153.512 88.3321L155.841 96.0996L154.371 105.426H148.637L147.202 95.9704Z" fill="#0758E4"/>
<path d="M157.652 56.7491C156.061 55.3287 151.979 56.541 151.395 56.7258C150.81 56.541 146.728 55.3287 145.137 56.7491C143.422 58.2807 143.512 59.4984 143.512 59.4984L151.251 59.5307H151.54L159.279 59.4984C159.279 59.4984 159.369 58.2825 157.654 56.7491H157.652Z" fill="#0758E4"/>
</g>
<path d="M78 19C78 16.2386 80.2386 14 83 14H111C113.761 14 116 16.2386 116 19V33.8C116 36.5614 113.761 38.8 111 38.8H97H92.06L84.0401 43.1898C83.3737 43.5546 82.56 43.0723 82.56 42.3126V38.8V38.8C80.0416 38.8 78 36.7584 78 34.24V19Z" fill="white"/>
<mask id="path-30-inside-1_66_2544" fill="white">
<path fill-rule="evenodd" clip-rule="evenodd" d="M91.0997 37.0456C91.3941 36.8845 91.7244 36.8 92.06 36.8H111C112.657 36.8 114 35.4569 114 33.8V19C114 17.3431 112.657 16 111 16H83C81.3431 16 80 17.3431 80 19V34.24C80 35.6538 81.1462 36.8 82.56 36.8V38.8C80.0416 38.8 78 36.7584 78 34.24V19C78 16.2386 80.2386 14 83 14H111C113.761 14 116 16.2386 116 19V33.8C116 36.5614 113.761 38.8 111 38.8H92.06L84.0401 43.1898C83.3737 43.5546 82.56 43.0723 82.56 42.3126V38.8V36.8H84.56V40.6253L91.0997 37.0456Z"/>
</mask>
<path fill-rule="evenodd" clip-rule="evenodd" d="M91.0997 37.0456C91.3941 36.8845 91.7244 36.8 92.06 36.8H111C112.657 36.8 114 35.4569 114 33.8V19C114 17.3431 112.657 16 111 16H83C81.3431 16 80 17.3431 80 19V34.24C80 35.6538 81.1462 36.8 82.56 36.8V38.8C80.0416 38.8 78 36.7584 78 34.24V19C78 16.2386 80.2386 14 83 14H111C113.761 14 116 16.2386 116 19V33.8C116 36.5614 113.761 38.8 111 38.8H92.06L84.0401 43.1898C83.3737 43.5546 82.56 43.0723 82.56 42.3126V38.8V36.8H84.56V40.6253L91.0997 37.0456Z" fill="#02C9E8"/>
<path d="M83.81 38.8V36.8H81.31V38.8H83.81ZM91.0997 37.0456L89.8993 34.8526L89.8993 34.8526L91.0997 37.0456ZM82.56 38.8H85.06C85.06 37.4193 83.9407 36.3 82.56 36.3V38.8ZM92.06 38.8V36.3C91.6405 36.3 91.2277 36.4056 90.8596 36.607L92.06 38.8ZM84.0401 43.1898L85.2405 45.3828H85.2405L84.0401 43.1898ZM84.56 36.8H87.06C87.06 35.4193 85.9407 34.3 84.56 34.3V36.8ZM84.56 40.6253H82.06C82.06 41.5083 82.5258 42.3258 83.2854 42.7759C84.045 43.2261 84.9858 43.2422 85.7604 42.8182L84.56 40.6253ZM92.06 34.3C91.3048 34.3 90.5618 34.4901 89.8993 34.8526L92.3001 39.2386C92.2265 39.2789 92.1439 39.3 92.06 39.3V34.3ZM111.5 33.8C111.5 34.0761 111.276 34.3 111 34.3V39.3C114.038 39.3 116.5 36.8376 116.5 33.8H111.5ZM111.5 19V33.8H116.5V19H111.5ZM111 18.5C111.276 18.5 111.5 18.7239 111.5 19H116.5C116.5 15.9624 114.038 13.5 111 13.5V18.5ZM83 18.5H111V13.5H83V18.5ZM82.5 19C82.5 18.7239 82.7239 18.5 83 18.5V13.5C79.9624 13.5 77.5 15.9624 77.5 19H82.5ZM82.5 34.24V19H77.5V34.24H82.5ZM82.56 34.3C82.5471 34.3 82.5411 34.2979 82.5374 34.2963C82.532 34.294 82.5248 34.2897 82.5176 34.2824C82.5103 34.2752 82.506 34.268 82.5037 34.2626C82.5021 34.2589 82.5 34.2529 82.5 34.24H77.5C77.5 37.0346 79.7654 39.3 82.56 39.3V34.3ZM82.56 36.3C81.4223 36.3 80.5 35.3777 80.5 34.24H75.5C75.5 38.1391 78.6609 41.3 82.56 41.3V36.3ZM80.5 34.24V19H75.5V34.24H80.5ZM80.5 19C80.5 17.6193 81.6193 16.5 83 16.5V11.5C78.8579 11.5 75.5 14.8579 75.5 19H80.5ZM83 16.5H111V11.5H83V16.5ZM111 16.5C112.381 16.5 113.5 17.6193 113.5 19H118.5C118.5 14.8579 115.142 11.5 111 11.5V16.5ZM113.5 19V33.8H118.5V19H113.5ZM113.5 33.8C113.5 35.1807 112.381 36.3 111 36.3V41.3C115.142 41.3 118.5 37.9421 118.5 33.8H113.5ZM90.8596 36.607L82.8398 40.9968L85.2405 45.3828L93.2604 40.993L90.8596 36.607ZM82.8398 40.9968C83.8394 40.4497 85.06 41.1731 85.06 42.3126H80.06C80.06 44.9716 82.9081 46.6595 85.2405 45.3828L82.8398 40.9968ZM87.06 40.6253V36.8H82.06V40.6253H87.06ZM89.8993 34.8526L83.3596 38.4323L85.7604 42.8182L92.3001 39.2386L89.8993 34.8526ZM111 34.3H92.06V39.3H111V34.3ZM111 36.3H92.06V41.3H111V36.3ZM85.06 42.3126V38.8H80.06V42.3126H85.06ZM84.56 34.3H82.56V39.3H84.56V34.3Z" fill="#02C9E8" mask="url(#path-30-inside-1_66_2544)"/>
<path d="M127 35C127 32.2386 124.761 30 122 30H98C95.2386 30 93 32.2386 93 35V46.471C93 49.2324 95.2386 51.471 98 51.471H110H114.42L121.45 55.2166C122.116 55.5715 122.92 55.0888 122.92 54.3341V51.471V51.471C125.173 51.471 127 49.6443 127 47.391V35Z" fill="white"/>
<mask id="path-33-inside-2_66_2544" fill="white">
<path fill-rule="evenodd" clip-rule="evenodd" d="M115.36 49.7059C115.071 49.5516 114.748 49.471 114.42 49.471H98C96.3431 49.471 95 48.1278 95 46.471V35C95 33.3431 96.3431 32 98 32H122C123.657 32 125 33.3431 125 35V47.391C125 48.5397 124.069 49.471 122.92 49.471V51.471C125.173 51.471 127 49.6443 127 47.391V35C127 32.2386 124.761 30 122 30H98C95.2386 30 93 32.2386 93 35V46.471C93 49.2324 95.2386 51.471 98 51.471H114.42L121.45 55.2166C122.116 55.5715 122.92 55.0888 122.92 54.3341V51.471V49.471H120.92V52.6682L115.36 49.7059Z"/>
</mask>
<path fill-rule="evenodd" clip-rule="evenodd" d="M115.36 49.7059C115.071 49.5516 114.748 49.471 114.42 49.471H98C96.3431 49.471 95 48.1278 95 46.471V35C95 33.3431 96.3431 32 98 32H122C123.657 32 125 33.3431 125 35V47.391C125 48.5397 124.069 49.471 122.92 49.471V51.471C125.173 51.471 127 49.6443 127 47.391V35C127 32.2386 124.761 30 122 30H98C95.2386 30 93 32.2386 93 35V46.471C93 49.2324 95.2386 51.471 98 51.471H114.42L121.45 55.2166C122.116 55.5715 122.92 55.0888 122.92 54.3341V51.471V49.471H120.92V52.6682L115.36 49.7059Z" fill="#0758E4"/>
<path d="M121.67 51.471V49.471H124.17V51.471H121.67ZM115.36 49.7059L116.536 47.4995L116.536 47.4995L115.36 49.7059ZM122.92 51.471H120.42C120.42 50.0903 121.539 48.971 122.92 48.971V51.471ZM114.42 51.471V48.971C114.83 48.971 115.234 49.0718 115.596 49.2646L114.42 51.471ZM121.45 55.2166L122.625 53.0103L122.625 53.0103L121.45 55.2166ZM120.92 49.471H118.42C118.42 48.0903 119.539 46.971 120.92 46.971V49.471ZM120.92 52.6682H123.42C123.42 53.5461 122.959 54.3598 122.207 54.8116C121.454 55.2635 120.519 55.2874 119.744 54.8745L120.92 52.6682ZM114.42 46.971C115.158 46.971 115.885 47.1525 116.536 47.4995L114.185 51.9122C114.257 51.9508 114.338 51.971 114.42 51.971V46.971ZM97.5 46.471C97.5 46.7471 97.7239 46.971 98 46.971V51.971C94.9624 51.971 92.5 49.5085 92.5 46.471H97.5ZM97.5 35V46.471H92.5V35H97.5ZM98 34.5C97.7239 34.5 97.5 34.7239 97.5 35H92.5C92.5 31.9624 94.9624 29.5 98 29.5V34.5ZM122 34.5H98V29.5H122V34.5ZM122.5 35C122.5 34.7239 122.276 34.5 122 34.5V29.5C125.038 29.5 127.5 31.9624 127.5 35H122.5ZM122.5 47.391V35H127.5V47.391H122.5ZM122.92 46.971C122.688 46.971 122.5 47.159 122.5 47.391H127.5C127.5 49.9204 125.449 51.971 122.92 51.971V46.971ZM122.92 48.971C123.793 48.971 124.5 48.2636 124.5 47.391H129.5C129.5 51.025 126.554 53.971 122.92 53.971V48.971ZM124.5 47.391V35H129.5V47.391H124.5ZM124.5 35C124.5 33.6193 123.381 32.5 122 32.5V27.5C126.142 27.5 129.5 30.8579 129.5 35H124.5ZM122 32.5H98V27.5H122V32.5ZM98 32.5C96.6193 32.5 95.5 33.6193 95.5 35H90.5C90.5 30.8579 93.8579 27.5 98 27.5V32.5ZM95.5 35V46.471H90.5V35H95.5ZM95.5 46.471C95.5 47.8517 96.6193 48.971 98 48.971V53.971C93.8579 53.971 90.5 50.6131 90.5 46.471H95.5ZM115.596 49.2646L122.625 53.0103L120.274 57.423L113.244 53.6773L115.596 49.2646ZM122.625 53.0103C121.626 52.4779 120.42 53.202 120.42 54.3341H125.42C125.42 56.9757 122.605 58.6652 120.274 57.423L122.625 53.0103ZM118.42 52.6682V49.471H123.42V52.6682H118.42ZM116.536 47.4995L122.096 50.4618L119.744 54.8745L114.185 51.9122L116.536 47.4995ZM98 46.971H114.42V51.971H98V46.971ZM98 48.971H114.42V53.971H98V48.971ZM120.42 54.3341V51.471H125.42V54.3341H120.42ZM120.92 46.971H122.92V51.971H120.92V46.971Z" fill="#0758E4" mask="url(#path-33-inside-2_66_2544)"/>
<defs>
<clipPath id="clip0_66_2544">
<rect width="64" height="82" fill="white" transform="translate(19 25)"/>
</clipPath>
<clipPath id="clip1_66_2544">
<rect width="64" height="79" fill="white" transform="translate(119 28)"/>
</clipPath>
</defs>
</svg>
