<svg width="200" height="120" viewBox="0 0 200 120" fill="none" xmlns="http://www.w3.org/2000/svg">
<rect width="200" height="120" fill="white"/>
<g clip-path="url(#clip0_1822_27037)">
<path d="M48.1551 81.8773C46.8106 81.309 46.3157 73.9069 46.8592 72.8168L47.7591 71.0119C46.7512 70.8153 45.7794 70.5115 44.8435 70.0826L43.4937 72.8347L44.7895 81.8952C46.6973 82.7351 50.1888 83.4856 50.7827 83.4856C51.3587 83.432 51.9346 83.3427 52.4925 83.1997C51.1787 82.878 49.4995 82.4456 48.1551 81.8773Z" fill="#E6EFFE"/>
<path d="M24.0203 102.053V89.1328C24.0203 85.5587 27.7818 81.9488 34.261 79.143C34.081 78.7678 33.9551 78.3746 33.9011 77.9636C25.5681 80.9123 20.6367 85.0225 20.6367 89.1328V102.053C20.6367 103.143 22.1845 104.645 23.3004 104.645H26.666C25.5861 104.645 24.0203 103.143 24.0203 102.053Z" fill="#E6EFFE"/>
<path d="M48.1735 67.4556C43.962 64.8643 43.4761 59.7354 43.4221 58.7346C43.4041 58.0913 42.8821 57.5909 42.2342 57.5909H42.2162C40.7584 57.6088 38.6167 55.3392 37.7888 51.908C37.5368 50.8358 37.8788 50.0137 38.3467 49.7814C38.7787 49.5491 39.2646 49.9601 39.4986 50.2282C39.9125 50.7107 40.6864 50.7643 41.1724 50.3533C41.6043 49.9601 41.6943 49.3346 41.3883 48.8521C40.9924 47.8335 40.4704 41.4536 40.4704 40.3278C40.4704 35.2703 44.16 30.9813 49.1814 30.1593C48.6234 30.0699 48.0475 30.0342 47.4896 30.0342C41.7663 30.0342 37.1049 34.6449 37.1049 40.3456C37.1049 41.4894 37.5908 47.8513 38.0228 48.87C38.3827 49.424 38.2027 50.1388 37.6448 50.4962C37.1589 50.8 36.5109 50.7107 36.133 50.2818C35.899 50.0137 35.4491 49.6206 34.9811 49.835C34.5132 50.0673 34.1712 50.8715 34.4232 51.9616C35.2511 55.3928 37.3748 57.6624 38.8507 57.6445H38.8686C39.5166 57.6445 40.0385 58.1449 40.0565 58.7883C40.1105 59.789 40.5784 64.9179 44.8079 67.5092C46.4457 68.5099 48.4794 69.0103 50.8552 69.0103C51.4131 69.0103 51.971 68.9746 52.5289 68.9031C50.9811 68.7423 49.5053 68.2598 48.1735 67.4556Z" fill="#E6EFFE"/>
<path d="M47.2014 106.986C47.3274 107.004 47.4534 107.004 47.5794 106.986H77.4196C79.8133 106.986 82.333 104.448 82.333 102.053V89.1328C82.333 83.8431 76.9517 78.8214 67.9348 75.6583C67.4669 74.6754 66.603 73.8354 65.4691 73.2457C65.1272 73.067 62.6615 72.1913 60.4657 71.4229L59.1159 68.7959C62.6795 66.0438 63.7053 61.8263 64.0113 59.8069C66.495 59.1635 68.7627 56.2685 69.6806 52.4441C70.1485 50.4783 69.4826 48.6019 67.9888 47.8156C67.6108 47.619 67.1969 47.4939 66.783 47.4582C67.5029 44.9742 67.9564 42.5938 68.0248 41.8468C68.6187 35.3454 63.1564 30.0342 51.1699 30.0342C39.1834 30.0342 34.6264 36.8858 35.0349 41.2213C35.0853 41.7556 34.9809 43.0084 35.1969 45.1171C35.2869 46.0464 35.3589 46.797 35.4489 47.4046C34.9449 47.3867 34.459 47.5118 34.009 47.7441C32.4792 48.5304 31.7593 50.4426 32.2453 52.4799C33.1632 56.3042 35.4309 59.1814 37.9146 59.8426C38.1845 61.8799 39.1564 66.151 42.8279 68.9031L41.4241 71.7267C38.6345 72.6024 37.0687 73.1206 36.7987 73.2636C35.8808 73.7103 35.0889 74.4252 34.549 75.283C24.2543 78.6248 18.333 83.6644 18.333 89.1328V102.053C18.333 104.466 20.9067 106.986 23.3544 106.986H47.2014ZM48.3893 104.645L45.2036 84.5222C47.3994 85.2549 50.045 85.791 50.8009 85.791C51.6108 85.791 54.3825 85.237 56.6502 84.4685L53.5186 104.645H48.3893ZM44.7897 81.8773L43.4939 72.8168L44.8437 70.0647C46.6075 70.8868 48.6772 71.2978 50.9629 71.2978C53.2486 71.2978 55.3364 70.8689 57.1362 70.0111L58.432 72.5487L57.0642 81.7701C55.1024 82.6636 51.4849 83.432 50.8189 83.432C50.171 83.4499 46.6975 82.6815 44.7897 81.8773ZM67.8268 79.4111C68.0248 79.0537 68.1868 78.6784 68.2588 78.2674C75.5299 81.0373 79.9753 85.1298 79.9753 89.1328V102.053C79.9753 103.179 78.5175 104.645 77.4196 104.645H56.6502L67.2869 87.9176C68.0968 86.756 68.4567 85.4336 68.2228 84.3256C68.0968 83.6107 67.7008 82.9853 67.1069 82.5742C66.711 82.324 66.261 82.1096 65.8291 81.9309C66.603 81.1803 67.2869 80.3225 67.8268 79.4111ZM59.3319 82.5742L60.6097 73.9605C62.4455 74.6039 64.1373 75.2115 64.4252 75.3366C65.1992 75.7297 65.7571 76.3373 65.9371 76.9628C66.063 77.4096 66.009 77.8742 65.7751 78.2853C64.8212 80.0008 62.8234 81.4841 62.8055 81.502C62.2835 81.8951 62.1575 82.6278 62.5715 83.1461C62.7335 83.3605 62.9674 83.5214 63.2374 83.575C63.9393 83.7537 65.2891 84.1647 65.8291 84.5222C65.9011 84.5936 65.9371 84.6651 65.9371 84.7545C66.009 85.1298 65.9011 85.8446 65.3611 86.5952C65.3431 86.613 65.3431 86.6309 65.3251 86.6488L56.5602 100.427L59.3319 82.5742ZM40.1463 58.7525C40.1283 58.1092 39.6063 57.6088 38.9584 57.6088C37.5006 57.6267 35.3589 55.3571 34.531 51.9259C34.279 50.8536 34.621 50.0316 35.0889 49.7993C35.5209 49.5669 36.0068 49.978 36.2408 50.246C36.6547 50.7285 37.4286 50.7822 37.9146 50.3711C38.3465 49.978 38.4365 49.3525 38.1305 48.87C37.7346 47.8513 37.3926 43.0799 37.3926 41.954C37.3926 36.2711 44.7231 32.268 50.8099 32.268C61.9092 32.268 65.8237 36.9734 65.6671 41.8825C65.6401 42.7582 64.3713 47.9407 63.8673 48.8342C63.4894 49.3525 63.6153 50.0852 64.1373 50.4783C64.6052 50.8179 65.2711 50.7464 65.6671 50.3354C65.8651 50.1388 66.369 49.6742 66.8729 49.9422C67.2869 50.1745 67.6468 50.9072 67.3769 51.9795C66.549 55.4107 64.4252 57.6803 62.9494 57.6624C62.3015 57.6445 61.7616 58.1449 61.7616 58.7883C61.6896 59.789 61.1317 64.9001 56.9922 67.4913C55.3544 68.5099 53.3386 69.0282 50.9629 69.0282C48.5872 69.0282 46.5535 68.5278 44.9157 67.5271C40.6862 64.8643 40.2003 59.7354 40.1463 58.7525ZM36.3128 76.9449C36.4927 76.3195 37.0507 75.7297 37.8426 75.3187C38.1305 75.1936 39.6423 74.6932 41.2981 74.175L42.594 83.2176C42.594 83.2533 42.594 83.2712 42.612 83.3069L45.3116 100.266L36.9427 86.7917C36.9247 86.7739 36.9247 86.756 36.9067 86.7381C36.4027 86.0233 36.2408 85.2727 36.3308 84.826C36.3308 84.7366 36.3848 84.6472 36.4387 84.5758C36.9967 84.2005 38.3465 83.7716 39.0484 83.5929C39.6783 83.432 40.0563 82.7887 39.8943 82.1453C39.8223 81.8951 39.6783 81.6628 39.4624 81.502C38.9044 81.091 37.3026 79.7149 36.4927 78.2495C36.2408 77.8921 36.1688 77.4096 36.3128 76.9449ZM20.6547 102.053V89.1328C20.6547 85.0404 25.5681 80.8944 33.9191 77.9636C33.9911 78.4818 34.153 78.9822 34.423 79.429C34.9809 80.3583 35.6468 81.2339 36.4207 81.9845C35.9708 82.1453 35.5209 82.3777 35.1069 82.6457C34.495 83.0567 34.099 83.7001 33.9911 84.3971C33.7751 85.5408 34.117 86.8811 34.9269 88.0427L45.2576 104.645H23.3184C22.2025 104.645 20.6547 103.143 20.6547 102.053Z" fill="#02C9E8"/>
<path d="M46.3553 52.6282C47.3002 52.6282 48.0651 51.8687 48.0651 50.9305C48.0651 49.9923 47.3002 49.2328 46.3553 49.2328C45.4104 49.2328 44.6455 49.9923 44.6455 50.9305C44.6455 51.8687 45.4104 52.6282 46.3553 52.6282Z" fill="#02C9E8"/>
<path d="M55.2645 52.6282C56.2094 52.6282 56.9743 51.8687 56.9743 50.9305C56.9743 49.9923 56.2094 49.2328 55.2645 49.2328C54.3196 49.2328 53.5547 49.9923 53.5547 50.9305C53.5547 51.8687 54.3196 52.6282 55.2645 52.6282Z" fill="#02C9E8"/>
<path fill-rule="evenodd" clip-rule="evenodd" d="M57.9784 60.2108C58.1908 60.5432 58.0918 60.9863 57.757 61.1972C55.4461 62.6555 53.1064 63.4346 50.7541 63.4472C48.3982 63.4597 46.0891 62.7019 43.8466 61.1847C43.5172 60.9631 43.4326 60.5181 43.6558 60.1911C43.879 59.8641 44.3271 59.7801 44.6565 60.0017C46.6974 61.3813 48.7258 62.0264 50.7469 62.0157C52.7717 62.005 54.8504 61.3366 56.9849 59.9892C57.3215 59.7783 57.766 59.8766 57.9784 60.209V60.2108Z" fill="#02C9E8"/>
<path d="M35.1341 44.4202C33.9606 39.1286 35.2583 34.4465 37.9939 31.7123C42.4124 27.6216 52.7881 24.5318 59.2061 30.4381C59.8756 30.3612 60.4389 30.3862 61.067 30.4256C65.3037 30.6883 69.9471 35.2292 67.8774 42.8368L65.3865 43.4891C65.3865 43.4891 65.2299 40.8925 62.8506 39.3431C60.4713 37.7937 57.9642 37.2826 57.9642 37.2826C57.9642 37.2826 54.9046 39.4932 52.7089 40.5082C50.5132 41.5233 47.6335 41.5305 47.6335 41.5305C47.6335 41.5305 49.2677 40.1133 49.9228 39.4646C50.5779 38.8159 51.0351 37.8973 51.0351 37.8973C51.0351 37.8973 46.4403 40.6226 43.0369 42.0344C39.6335 43.4462 35.1341 44.4202 35.1341 44.4202Z" fill="#02C9E8"/>
<path d="M48.3892 104.645L45.2036 84.5222C47.3993 85.2549 50.045 85.791 50.8009 85.791C51.6108 85.791 54.3825 85.237 56.6502 84.4685L53.5186 104.645H48.3892Z" fill="#02C9E8"/>
<path d="M54.9043 25C54.9043 25 57.7479 25.1126 58.8926 27.1177C59.7133 28.5563 59.2058 30.7955 59.2058 30.7955L56.1551 29.6768C56.1551 29.6768 56.4467 28.1989 56.1551 27.1391C55.8636 26.0794 54.9043 24.9982 54.9043 24.9982V25Z" fill="#02C9E8"/>
</g>
<g clip-path="url(#clip1_1822_27037)">
<path d="M148.155 77.8133C146.967 76.9721 146.517 73.3529 146.859 72.666L147.759 70.8547C146.751 70.6574 145.779 70.3525 144.843 69.9221L143.494 72.684L144.789 78.9073C146.697 79.7502 150.189 80.5035 150.783 80.5035C151.359 80.4497 152.493 80.2165 152.493 80.2165C152.493 80.2165 149.343 78.6544 148.155 77.8133Z" fill="#E6EFFE"/>
<path d="M124.02 102.007V89.0403C124.02 85.4534 127.782 81.8306 134.261 79.0149C134.081 78.6383 133.955 78.2437 133.901 77.8312C125.568 80.7904 120.637 84.9154 120.637 89.0403V102.007C120.637 103.101 122.185 104.608 123.3 104.608H126.666C125.586 104.608 124.02 103.101 124.02 102.007Z" fill="#E6EFFE"/>
<path d="M148.173 67.2857C143.962 64.6852 143.476 59.5379 143.422 58.5336C143.404 57.888 142.882 57.3858 142.234 57.3858H142.216C140.758 57.4037 138.617 55.126 137.789 51.6826C137.537 50.6065 137.879 49.7815 138.347 49.5484C138.779 49.3152 139.265 49.7277 139.499 49.9968C139.913 50.481 140.686 50.5348 141.172 50.1223C141.604 49.7277 141.694 49.1 141.388 48.6158C140.992 47.5935 140.47 41.1909 140.47 40.061C140.47 34.9855 144.16 30.6812 149.181 29.8562C148.623 29.7666 148.048 29.7307 147.49 29.7307C141.766 29.7307 137.105 34.3578 137.105 40.0789C137.105 41.2267 137.591 47.6115 138.023 48.6337C138.383 49.1897 138.203 49.9071 137.645 50.2658C137.159 50.5707 136.511 50.481 136.133 50.0506C135.899 49.7815 135.449 49.387 134.981 49.6022C134.513 49.8353 134.171 50.6424 134.423 51.7364C135.251 55.1798 137.375 57.4575 138.851 57.4396H138.869C139.517 57.4396 140.039 57.9418 140.056 58.5874C140.11 59.5917 140.578 64.739 144.808 67.3395C146.446 68.3438 148.479 68.846 150.855 68.846C151.413 68.846 151.971 68.8101 152.529 68.7384C150.981 68.577 149.505 68.0927 148.173 67.2857Z" fill="#E6EFFE"/>
<path d="M172.038 99.9266C172.362 99.9983 172.686 100.034 172.992 100.034C175.638 100.034 177.779 97.8821 177.779 95.2457C177.779 93.0935 176.322 91.1925 174.234 90.6365C174.036 85.7583 172.884 80.7545 171.102 77.06C170.814 76.4682 170.112 76.235 169.537 76.5041C168.961 76.7731 168.709 77.4905 168.979 78.0644C170.616 81.454 171.678 86.0632 171.876 90.5827C169.303 91.2104 167.719 93.775 168.313 96.3397C168.745 98.1511 170.202 99.55 172.038 99.9266ZM170.58 94.7435C170.814 93.6136 171.804 92.7886 172.956 92.7886C173.118 92.7886 173.28 92.8066 173.442 92.8424C174.756 93.1115 175.62 94.3848 175.35 95.694C175.08 97.0033 173.802 97.8641 172.488 97.5951C171.174 97.344 170.328 96.0527 170.58 94.7435Z" fill="#02C9E8"/>
<path d="M124.434 99.5141C125.1 99.5679 125.64 99.0837 125.694 98.4201C125.748 97.7744 125.262 97.2185 124.596 97.1647C124.254 97.1467 123.966 96.8598 123.948 96.519L126.396 88.0539C126.414 87.9642 126.432 87.8925 126.45 87.8208C126.486 87.4262 126.81 87.1572 127.188 87.1751L131.381 87.48C131.777 87.5159 132.047 87.8387 132.029 88.2153C132.029 88.305 132.029 88.3767 132.047 88.4664L133.271 97.1826C133.199 97.5234 132.875 97.7565 132.551 97.7206C131.885 97.6668 131.345 98.169 131.291 98.8147C131.237 99.4603 131.723 100.016 132.389 100.052H132.605C134.207 100.052 135.539 98.8147 135.647 97.2364C135.647 97.1467 135.647 97.075 135.629 96.9853L134.405 88.2153C134.441 86.5833 133.199 85.2203 131.579 85.1126L131.003 85.0768C131.741 82.261 132.803 79.4094 133.847 77.5801C134.171 77.0062 133.973 76.3068 133.397 75.9839C132.821 75.6611 132.119 75.8584 131.795 76.4323C130.391 78.9252 129.276 82.3507 128.628 84.9333L127.386 84.8436C125.748 84.7181 124.344 85.9018 124.128 87.5338L121.662 96.0348C121.644 96.1245 121.627 96.1962 121.609 96.2679C121.501 97.9359 122.76 99.4065 124.434 99.5141Z" fill="#02C9E8"/>
<path d="M147.201 106.987C147.327 107.005 147.453 107.005 147.579 106.987H177.42C179.813 106.987 182.333 104.441 182.333 102.037V89.0708C182.333 83.7622 176.952 78.7225 167.935 75.5481C167.467 74.5617 166.603 73.7188 165.469 73.127C165.127 72.9476 162.661 72.0688 160.466 71.2976L159.116 68.6613C162.679 65.8993 163.705 61.6668 164.011 59.6402C166.495 58.9945 168.763 56.0891 169.681 52.2511C170.149 50.2783 169.483 48.3952 167.989 47.6061C167.611 47.4088 167.197 47.2832 166.783 47.2474C167.503 44.7545 167.776 42.3656 167.845 41.6159C168.439 35.0913 163.156 29.7612 151.17 29.7612C139.183 29.7612 134.626 36.6373 135.035 40.9882C135.085 41.5245 134.981 42.7817 135.197 44.8979C135.287 45.8305 135.359 46.5838 135.449 47.1936C134.945 47.1756 134.459 47.3012 134.009 47.5343C132.479 48.3235 131.759 50.2425 132.245 52.287C133.163 56.125 135.431 59.0125 137.915 59.676C138.185 61.7206 139.156 66.0069 142.828 68.7689L141.424 71.6025C138.634 72.4813 137.069 73.0014 136.799 73.1449C135.881 73.5933 135.089 74.3106 134.549 75.1715C124.254 78.5253 118.333 83.5828 118.333 89.0708V102.037C118.333 104.459 120.907 106.987 123.354 106.987H147.201ZM148.389 104.638L145.204 78.884L150.801 81.054L156.65 78.8302L153.519 104.638H148.389ZM144.79 76.2296L143.494 72.6965L144.844 69.9346C146.607 70.7596 148.677 71.1721 150.963 71.1721C153.249 71.1721 155.336 70.7417 157.136 69.8808L158.432 72.4275L157.064 76.122L150.819 78.6867L144.79 76.2296ZM167.827 79.3144C168.025 78.9557 168.187 78.5791 168.259 78.1666C175.53 80.9464 179.975 85.0535 179.975 89.0708V102.037C179.975 103.167 178.517 104.638 177.42 104.638H156.65L167.287 87.8512C168.097 86.6855 168.457 85.3583 168.223 84.2464C168.097 83.529 167.701 82.9013 167.107 82.4888C166.711 82.2377 166.261 82.0225 165.829 81.8432C166.603 81.0899 167.287 80.2291 167.827 79.3144ZM159.332 82.4888L160.61 73.8443C162.445 74.49 164.137 75.0998 164.425 75.2253C165.199 75.6199 165.757 76.2296 165.937 76.8574C166.063 77.3057 166.009 77.772 165.775 78.1845C164.821 79.9062 162.823 81.3948 162.805 81.4127C162.284 81.8073 162.158 82.5426 162.571 83.0627C162.733 83.2779 162.967 83.4393 163.237 83.4931C163.939 83.6725 165.289 84.085 165.829 84.4437C165.901 84.5154 165.937 84.5872 165.937 84.6768C166.009 85.0535 165.901 85.7708 165.361 86.5241C165.343 86.542 165.343 86.56 165.325 86.5779L156.56 100.405L159.332 82.4888ZM140.146 58.582C140.128 57.9364 139.606 57.4342 138.958 57.4342C137.501 57.4521 135.359 55.1745 134.531 51.731C134.279 50.6549 134.621 49.83 135.089 49.5968C135.521 49.3637 136.007 49.7762 136.241 50.0452C136.655 50.5294 137.429 50.5832 137.915 50.1707C138.347 49.7762 138.436 49.1484 138.131 48.6642C137.735 47.6419 137.393 42.8534 137.393 41.7235C137.393 36.0203 144.723 32.003 150.81 32.003C161.909 32.003 165.644 36.7252 165.487 41.6518C165.46 42.5306 164.371 47.7316 163.867 48.6283C163.489 49.1484 163.615 49.8838 164.137 50.2783C164.605 50.6191 165.271 50.5473 165.667 50.1348C165.865 49.9376 166.369 49.4713 166.873 49.7403C167.287 49.9734 167.647 50.7087 167.377 51.7848C166.549 55.2283 164.425 57.506 162.949 57.488C162.302 57.4701 161.762 57.9723 161.762 58.6179C161.69 59.6222 161.132 64.7515 156.992 67.352C155.354 68.3743 153.339 68.8944 150.963 68.8944C148.587 68.8944 146.553 68.3922 144.916 67.3879C140.686 64.7156 140.2 59.5684 140.146 58.582ZM136.313 76.8394C136.493 76.2117 137.051 75.6199 137.843 75.2074C138.131 75.0818 139.642 74.5797 141.298 74.0596L142.594 83.1345C142.594 83.1703 142.594 83.1883 142.612 83.2241L145.312 100.244L136.943 86.7214C136.925 86.7034 136.925 86.6855 136.907 86.6676C136.403 85.9502 136.241 85.1969 136.331 84.7486C136.331 84.6589 136.385 84.5692 136.439 84.4975C136.997 84.1209 138.347 83.6904 139.048 83.5111C139.678 83.3497 140.056 82.704 139.894 82.0584C139.822 81.8073 139.678 81.5742 139.462 81.4127C138.904 81.0002 137.303 79.6193 136.493 78.1486C136.241 77.79 136.169 77.3057 136.313 76.8394ZM120.655 102.037V89.0708C120.655 84.9638 125.568 80.803 133.919 77.8617C133.991 78.3818 134.153 78.884 134.423 79.3323C134.981 80.2649 135.647 81.1437 136.421 81.897C135.971 82.0584 135.521 82.2915 135.107 82.5606C134.495 82.973 134.099 83.6187 133.991 84.3181C133.775 85.466 134.117 86.811 134.927 87.9768L145.258 104.638H123.318C122.203 104.638 120.655 103.132 120.655 102.037Z" fill="#0758E4"/>
<path d="M146.355 52.4359C147.3 52.4359 148.065 51.6736 148.065 50.7321C148.065 49.7905 147.3 49.0283 146.355 49.0283C145.41 49.0283 144.646 49.7905 144.646 50.7321C144.646 51.6736 145.41 52.4359 146.355 52.4359Z" fill="#0758E4"/>
<path d="M155.264 52.4359C156.209 52.4359 156.974 51.6736 156.974 50.7321C156.974 49.7905 156.209 49.0283 155.264 49.0283C154.32 49.0283 153.555 49.7905 153.555 50.7321C153.555 51.6736 154.32 52.4359 155.264 52.4359Z" fill="#0758E4"/>
<path d="M150.696 63.2647C148.369 63.2647 146.08 62.5061 143.845 60.9906C143.515 60.7683 143.431 60.3217 143.654 59.9935C143.877 59.6653 144.325 59.581 144.655 59.8034C148.655 62.5169 152.687 62.5115 156.983 59.7908C157.318 59.5774 157.764 59.6778 157.976 60.0114C158.189 60.345 158.09 60.7898 157.755 61.0014C155.376 62.5115 153.016 63.2647 150.696 63.2647Z" fill="#0758E4"/>
<path d="M135.051 41.8311C134.402 38.047 135.507 34.4026 137.605 32.6522C140.161 30.5198 141.984 29.9047 144.358 29.9477C147.279 26.9777 156.065 27.6969 161.004 30.1378C165.943 32.5787 168.34 36.2158 167.888 40.5345C167.03 40.9864 165.487 41.6518 165.487 41.6518C165.487 41.6518 165.073 38.576 164.024 37.3995C161.353 38.4021 156.917 38.1761 153.881 37.8461C150.844 37.5161 146.071 35.6652 144.646 34.4152C141.989 36.3683 137.953 40.9649 135.051 41.8311Z" fill="#0758E4"/>
<path d="M146.355 55.126C144.023 55.126 142.126 53.2357 142.126 50.9114C142.126 48.5871 144.023 46.6968 146.355 46.6968C148.688 46.6968 150.585 48.5871 150.585 50.9114C150.585 53.2357 148.688 55.126 146.355 55.126ZM146.355 47.9522C144.718 47.9522 143.386 49.2794 143.386 50.9114C143.386 52.5435 144.718 53.8706 146.355 53.8706C147.993 53.8706 149.325 52.5435 149.325 50.9114C149.325 49.2794 147.993 47.9522 146.355 47.9522Z" fill="#0758E4"/>
<path d="M155.354 55.126C153.022 55.126 151.125 53.2357 151.125 50.9114C151.125 48.5871 153.022 46.6968 155.354 46.6968C157.687 46.6968 159.584 48.5871 159.584 50.9114C159.584 53.2357 157.687 55.126 155.354 55.126ZM155.354 47.9522C153.717 47.9522 152.385 49.2794 152.385 50.9114C152.385 52.5435 153.717 53.8706 155.354 53.8706C156.992 53.8706 158.324 52.5435 158.324 50.9114C158.324 49.2794 156.992 47.9522 155.354 47.9522Z" fill="#0758E4"/>
<path d="M142.756 52.0772C142.666 52.0772 142.574 52.0574 142.488 52.0162L136.642 49.2668C136.327 49.118 136.192 48.7449 136.342 48.4311C136.491 48.1172 136.865 47.9827 137.18 48.1316L143.026 50.8809C143.341 51.0298 143.476 51.4028 143.327 51.7167C143.219 51.9427 142.994 52.0772 142.756 52.0772Z" fill="#0758E4"/>
<path d="M159.23 52.0772C158.994 52.0772 158.767 51.9445 158.659 51.7167C158.51 51.4028 158.645 51.0298 158.96 50.8809L164.805 48.1316C165.12 47.9827 165.495 48.1172 165.644 48.4311C165.793 48.7449 165.658 49.118 165.343 49.2668L159.498 52.0162C159.411 52.0574 159.32 52.0772 159.23 52.0772Z" fill="#0758E4"/>
<path d="M145.646 86.5833C145.355 86.5833 145.063 86.4829 144.826 86.2802C144.298 85.8282 144.237 85.0355 144.691 84.51L149.305 79.1602C149.759 78.6347 150.554 78.5737 151.082 79.0257C151.609 79.4776 151.67 80.2703 151.217 80.7958L146.602 86.1457C146.354 86.4344 146.001 86.5833 145.646 86.5833Z" fill="#0758E4"/>
<path d="M155.84 86.5833C155.486 86.5833 155.133 86.4344 154.885 86.1457L150.27 80.7958C149.816 80.2703 149.876 79.4776 150.405 79.0256C150.932 78.5737 151.728 78.6329 152.181 79.1602L156.796 84.51C157.249 85.0355 157.19 85.8282 156.661 86.2802C156.423 86.4846 156.132 86.5833 155.84 86.5833Z" fill="#0758E4"/>
<path d="M146.536 95.9702L148.89 88.2135L147.061 83.6582L150.801 79.7986L154.512 83.7299L152.846 88.3319L155.175 96.0994L153.704 105.425H147.97L146.536 95.9702Z" fill="#0758E4"/>
<path d="M156.985 56.7491C155.394 55.3287 151.312 56.5411 150.727 56.7258C150.142 56.5411 146.06 55.3287 144.469 56.7491C142.754 58.2807 142.844 59.4985 142.844 59.4985L150.583 59.5308H150.873L158.612 59.4985C158.612 59.4985 158.702 58.2825 156.987 56.7491H156.985Z" fill="#0758E4"/>
</g>
<path d="M77.333 19C77.333 16.2386 79.5716 14 82.333 14H110.333C113.094 14 115.333 16.2386 115.333 19V33.8C115.333 36.5614 113.094 38.8 110.333 38.8H96.333H91.393L83.3732 43.1898C82.7067 43.5546 81.893 43.0723 81.893 42.3126V38.8C79.3746 38.8 77.333 36.7584 77.333 34.24V19Z" fill="white"/>
<path d="M83.2557 41.7006C83.2949 41.7238 83.335 41.7447 83.3759 41.7633L83.143 41.8908V41.6253C83.179 41.6522 83.2166 41.6774 83.2557 41.7006Z" fill="#02C9E8" stroke="#02C9E8" stroke-width="2.5" stroke-linejoin="round"/>
<path d="M126.333 35C126.333 32.2386 124.094 30 121.333 30H97.333C94.5716 30 92.333 32.2386 92.333 35V46.471C92.333 49.2324 94.5716 51.471 97.333 51.471H109.333H113.753L120.783 55.2166C121.449 55.5715 122.253 55.0888 122.253 54.3341V51.471C124.506 51.471 126.333 49.6443 126.333 47.391V35Z" fill="white"/>
<path d="M120.896 53.7399C120.859 53.7621 120.821 53.7822 120.783 53.8003L121.003 53.9176V53.6682C120.969 53.6937 120.933 53.7177 120.896 53.7399ZM121.371 54.1134C121.37 54.1133 121.37 54.1133 121.37 54.1132L121.371 54.1134Z" fill="#0758E4" stroke="#0758E4" stroke-width="2.5" stroke-linejoin="round"/>
<defs>
<clipPath id="clip0_1822_27037">
<rect width="64" height="82" fill="white" transform="translate(18.333 25)"/>
</clipPath>
<clipPath id="clip1_1822_27037">
<rect width="64" height="79" fill="white" transform="translate(118.333 28)"/>
</clipPath>
</defs>
</svg>
