<svg width="200" height="120" viewBox="0 0 200 120" fill="none" xmlns="http://www.w3.org/2000/svg">
<rect width="200" height="120" fill="white"/>
<mask id="path-1-inside-1_1822_27050" fill="white">
<path d="M51 30C51 28.3431 52.3431 27 54 27H153C154.657 27 156 28.3431 156 30V93H51V30Z"/>
</mask>
<path d="M49.5 30C49.5 27.5147 51.5147 25.5 54 25.5H153C155.485 25.5 157.5 27.5147 157.5 30H154.5C154.5 29.1716 153.828 28.5 153 28.5H54C53.1716 28.5 52.5 29.1716 52.5 30H49.5ZM156 93H51H156ZM49.5 93V30C49.5 27.5147 51.5147 25.5 54 25.5V28.5C53.1716 28.5 52.5 29.1716 52.5 30V93H49.5ZM153 25.5C155.485 25.5 157.5 27.5147 157.5 30V93H154.5V30C154.5 29.1716 153.828 28.5 153 28.5V25.5Z" fill="#0758E4" mask="url(#path-1-inside-1_1822_27050)"/>
<mask id="path-3-inside-2_1822_27050" fill="white">
<path d="M47 28C47 25.2386 49.2386 23 52 23H155C157.761 23 160 25.2386 160 28V95C160 95.5523 159.552 96 159 96H48C47.4477 96 47 95.5523 47 95V28Z"/>
</mask>
<path d="M45 28C45 24.134 48.134 21 52 21H155C158.866 21 162 24.134 162 28H158C158 26.3431 156.657 25 155 25H52C50.3431 25 49 26.3431 49 28H45ZM160 96H47H160ZM48 96C46.3431 96 45 94.6569 45 93V28C45 24.134 48.134 21 52 21V25C50.3431 25 49 26.3431 49 28V95C49 95.5523 49 96 49 96H48ZM155 21C158.866 21 162 24.134 162 28V93C162 94.6569 160.657 96 159 96H158C158 96 158 95.5523 158 95V28C158 26.3431 156.657 25 155 25V21Z" fill="#0758E4" mask="url(#path-3-inside-2_1822_27050)"/>
<g clip-path="url(#clip0_1822_27050)">
<path d="M108.822 70.8133C107.634 69.9721 107.184 66.3529 107.526 65.666L108.426 63.8547C107.418 63.6574 106.446 63.3525 105.51 62.9221L104.161 65.684L105.456 71.9073C107.364 72.7502 110.856 73.5035 111.45 73.5035C112.026 73.4497 113.16 73.2165 113.16 73.2165C113.16 73.2165 110.01 71.6544 108.822 70.8133Z" fill="#E6EFFE"/>
<path d="M84.6873 95.007V82.0403C84.6873 78.4534 88.4488 74.8306 94.928 72.0149C94.748 71.6383 94.622 71.2437 94.5681 70.8312C86.2351 73.7904 81.3037 77.9154 81.3037 82.0403V95.007C81.3037 96.101 82.8515 97.6075 83.9674 97.6075H87.333C86.2531 97.6075 84.6873 96.101 84.6873 95.007Z" fill="#E6EFFE"/>
<path d="M108.84 60.2857C104.629 57.6852 104.143 52.5379 104.089 51.5336C104.071 50.888 103.549 50.3858 102.901 50.3858H102.883C101.425 50.4037 99.2837 48.126 98.4558 44.6826C98.2038 43.6065 98.5458 42.7815 99.0137 42.5484C99.4457 42.3152 99.9316 42.7277 100.166 42.9968C100.58 43.481 101.353 43.5348 101.839 43.1223C102.271 42.7277 102.361 42.1 102.055 41.6158C101.659 40.5935 101.137 34.1909 101.137 33.061C101.137 27.9855 104.827 23.6812 109.848 22.8562C109.29 22.7666 108.714 22.7307 108.157 22.7307C102.433 22.7307 97.7719 27.3578 97.7719 33.0789C97.7719 34.2267 98.2578 40.6115 98.6897 41.6337C99.0497 42.1897 98.8697 42.9071 98.3118 43.2658C97.8259 43.5707 97.1779 43.481 96.8 43.0506C96.566 42.7815 96.1161 42.387 95.6481 42.6022C95.1802 42.8353 94.8382 43.6424 95.0902 44.7364C95.9181 48.1798 98.0418 50.4575 99.5176 50.4396H99.5356C100.184 50.4396 100.705 50.9418 100.723 51.5874C100.777 52.5917 101.245 57.739 105.475 60.3395C107.113 61.3438 109.146 61.846 111.522 61.846C112.08 61.846 112.638 61.8101 113.196 61.7384C111.648 61.577 110.172 61.0927 108.84 60.2857Z" fill="#E6EFFE"/>
<path d="M132.705 92.9266C133.029 92.9983 133.353 93.0342 133.659 93.0342C136.305 93.0342 138.446 90.8821 138.446 88.2457C138.446 86.0935 136.989 84.1925 134.901 83.6365C134.703 78.7583 133.551 73.7545 131.769 70.06C131.481 69.4682 130.779 69.235 130.204 69.5041C129.628 69.7731 129.376 70.4905 129.646 71.0644C131.283 74.454 132.345 79.0632 132.543 83.5827C129.97 84.2104 128.386 86.775 128.98 89.3397C129.412 91.1511 130.869 92.55 132.705 92.9266ZM131.247 87.7435C131.481 86.6136 132.471 85.7886 133.623 85.7886C133.785 85.7886 133.947 85.8066 134.109 85.8424C135.423 86.1115 136.287 87.3848 136.017 88.694C135.747 90.0033 134.469 90.8641 133.155 90.5951C131.841 90.344 130.995 89.0527 131.247 87.7435Z" fill="#02C9E8"/>
<path d="M85.1011 92.5141C85.7671 92.5679 86.307 92.0837 86.361 91.4201C86.415 90.7744 85.929 90.2185 85.2631 90.1647C84.9212 90.1467 84.6332 89.8598 84.6152 89.519L87.0629 81.0539C87.0809 80.9642 87.0989 80.8925 87.1169 80.8208C87.1529 80.4262 87.4768 80.1572 87.8548 80.1751L92.0483 80.48C92.4442 80.5159 92.7142 80.8387 92.6962 81.2153C92.6962 81.305 92.6962 81.3767 92.7142 81.4664L93.938 90.1826C93.866 90.5234 93.5421 90.7565 93.2181 90.7206C92.5522 90.6668 92.0123 91.169 91.9583 91.8147C91.9043 92.4603 92.3902 93.0163 93.0561 93.0521H93.2721C94.8739 93.0521 96.2058 91.8147 96.3137 90.2364C96.3137 90.1467 96.3137 90.075 96.2957 89.9853L95.0719 81.2153C95.1079 79.5833 93.866 78.2203 92.2463 78.1126L91.6703 78.0768C92.4082 75.261 93.4701 72.4094 94.514 70.5801C94.8379 70.0062 94.64 69.3068 94.064 68.9839C93.4881 68.6611 92.7862 68.8584 92.4622 69.4323C91.0584 71.9252 89.9425 75.3507 89.2946 77.9333L88.0528 77.8436C86.415 77.7181 85.0112 78.9018 84.7952 80.5338L82.3295 89.0348C82.3115 89.1245 82.2935 89.1962 82.2755 89.2679C82.1675 90.9359 83.4274 92.4065 85.1011 92.5141Z" fill="#02C9E8"/>
<path d="M107.868 99.9874C107.994 100.005 108.12 100.005 108.246 99.9874H138.087C140.48 99.9874 143 97.4407 143 95.0375V82.0708C143 76.7622 137.619 71.7225 128.602 68.5481C128.134 67.5617 127.27 66.7188 126.136 66.127C125.794 65.9476 123.328 65.0688 121.133 64.2976L119.783 61.6613C123.346 58.8993 124.372 54.6668 124.678 52.6402C127.162 51.9945 129.43 49.0891 130.348 45.2511C130.816 43.2783 130.15 41.3952 128.656 40.6061C128.278 40.4088 127.864 40.2832 127.45 40.2474C128.17 37.7545 128.443 35.3656 128.512 34.6159C129.106 28.0913 123.823 22.7612 111.837 22.7612C99.8504 22.7612 95.2934 29.6373 95.7019 33.9882C95.7523 34.5245 95.6479 35.7817 95.8639 37.8979C95.9539 38.8305 96.0259 39.5838 96.1159 40.1936C95.6119 40.1756 95.126 40.3012 94.676 40.5343C93.1462 41.3235 92.4263 43.2425 92.9123 45.287C93.8301 49.125 96.0979 52.0125 98.5816 52.676C98.8515 54.7206 99.8234 59.0069 103.495 61.7689L102.091 64.6025C99.3015 65.4813 97.7357 66.0014 97.4657 66.1449C96.5478 66.5933 95.7559 67.3106 95.216 68.1715C84.9213 71.5253 79 76.5828 79 82.0708V95.0375C79 97.4587 81.5737 99.9874 84.0214 99.9874H107.868ZM109.056 97.638L105.871 71.884L111.468 74.054L117.317 71.8302L114.186 97.638H109.056ZM105.457 69.2296L104.161 65.6965L105.511 62.9346C107.274 63.7596 109.344 64.1721 111.63 64.1721C113.916 64.1721 116.003 63.7417 117.803 62.8808L119.099 65.4275L117.731 69.122L111.486 71.6867L105.457 69.2296ZM128.494 72.3144C128.692 71.9557 128.854 71.5791 128.926 71.1666C136.197 73.9464 140.642 78.0535 140.642 82.0708V95.0375C140.642 96.1674 139.184 97.638 138.087 97.638H117.317L127.954 80.8512C128.764 79.6855 129.124 78.3583 128.89 77.2464C128.764 76.529 128.368 75.9013 127.774 75.4888C127.378 75.2377 126.928 75.0225 126.496 74.8432C127.27 74.0899 127.954 73.2291 128.494 72.3144ZM119.999 75.4888L121.277 66.8443C123.112 67.49 124.804 68.0998 125.092 68.2253C125.866 68.6199 126.424 69.2296 126.604 69.8574C126.73 70.3057 126.676 70.772 126.442 71.1845C125.488 72.9062 123.49 74.3948 123.472 74.4127C122.951 74.8073 122.825 75.5426 123.238 76.0627C123.4 76.2779 123.634 76.4393 123.904 76.4931C124.606 76.6725 125.956 77.085 126.496 77.4437C126.568 77.5154 126.604 77.5872 126.604 77.6768C126.676 78.0535 126.568 78.7708 126.028 79.5241C126.01 79.542 126.01 79.56 125.992 79.5779L117.227 93.4054L119.999 75.4888ZM100.813 51.582C100.795 50.9364 100.273 50.4342 99.6254 50.4342C98.1676 50.4521 96.0259 48.1745 95.198 44.731C94.946 43.6549 95.288 42.83 95.7559 42.5968C96.1879 42.3637 96.6738 42.7762 96.9078 43.0452C97.3217 43.5294 98.0956 43.5832 98.5816 43.1707C99.0135 42.7762 99.1035 42.1484 98.7975 41.6642C98.4016 40.6419 98.0596 35.8534 98.0596 34.7235C98.0596 29.0203 105.39 25.003 111.477 25.003C122.576 25.003 126.311 29.7252 126.154 34.6518C126.127 35.5306 125.038 40.7316 124.534 41.6283C124.156 42.1484 124.282 42.8838 124.804 43.2783C125.272 43.6191 125.938 43.5473 126.334 43.1348C126.532 42.9376 127.036 42.4713 127.54 42.7403C127.954 42.9734 128.314 43.7087 128.044 44.7848C127.216 48.2283 125.092 50.506 123.616 50.488C122.969 50.4701 122.429 50.9723 122.429 51.6179C122.357 52.6222 121.799 57.7515 117.659 60.352C116.021 61.3743 114.006 61.8944 111.63 61.8944C109.254 61.8944 107.22 61.3922 105.583 60.3879C101.353 57.7156 100.867 52.5684 100.813 51.582ZM96.9798 69.8394C97.1597 69.2117 97.7177 68.6199 98.5096 68.2074C98.7975 68.0818 100.309 67.5797 101.965 67.0596L103.261 76.1345C103.261 76.1703 103.261 76.1883 103.279 76.2241L105.979 93.244L97.6097 79.7214C97.5917 79.7034 97.5917 79.6855 97.5737 79.6676C97.0697 78.9502 96.9078 78.1969 96.9978 77.7486C96.9978 77.6589 97.0517 77.5692 97.1057 77.4975C97.6637 77.1209 99.0135 76.6904 99.7154 76.5111C100.345 76.3497 100.723 75.704 100.561 75.0584C100.489 74.8073 100.345 74.5742 100.129 74.4127C99.5714 74.0002 97.9696 72.6193 97.1597 71.1486C96.9078 70.79 96.8358 70.3057 96.9798 69.8394ZM81.3217 95.0375V82.0708C81.3217 77.9638 86.2351 73.803 94.5861 70.8617C94.658 71.3818 94.82 71.884 95.09 72.3323C95.6479 73.2649 96.3138 74.1437 97.0877 74.897C96.6378 75.0584 96.1879 75.2915 95.7739 75.5606C95.162 75.973 94.766 76.6187 94.658 77.3181C94.4421 78.466 94.784 79.811 95.5939 80.9768L105.925 97.638H83.9854C82.8695 97.638 81.3217 96.1315 81.3217 95.0375Z" fill="#0758E4"/>
<path d="M107.022 45.4359C107.967 45.4359 108.732 44.6736 108.732 43.7321C108.732 42.7905 107.967 42.0283 107.022 42.0283C106.077 42.0283 105.312 42.7905 105.312 43.7321C105.312 44.6736 106.077 45.4359 107.022 45.4359Z" fill="#0758E4"/>
<path d="M115.931 45.4359C116.876 45.4359 117.641 44.6736 117.641 43.7321C117.641 42.7905 116.876 42.0283 115.931 42.0283C114.987 42.0283 114.222 42.7905 114.222 43.7321C114.222 44.6736 114.987 45.4359 115.931 45.4359Z" fill="#0758E4"/>
<path d="M111.363 56.2647C109.036 56.2647 106.747 55.5061 104.512 53.9906C104.182 53.7683 104.098 53.3217 104.321 52.9935C104.544 52.6653 104.992 52.581 105.322 52.8034C109.322 55.5169 113.354 55.5115 117.65 52.7908C117.985 52.5774 118.431 52.6778 118.643 53.0114C118.856 53.345 118.757 53.7898 118.422 54.0014C116.043 55.5115 113.683 56.2647 111.363 56.2647Z" fill="#0758E4"/>
<path d="M95.7183 34.8311C95.0686 31.047 96.1736 27.4026 98.2722 25.6522C100.828 23.5198 102.651 22.9047 105.025 22.9477C107.946 19.9777 116.732 20.6969 121.671 23.1378C126.61 25.5787 129.007 29.2158 128.555 33.5345C127.697 33.9864 126.154 34.6518 126.154 34.6518C126.154 34.6518 125.74 31.576 124.691 30.3995C122.02 31.4021 117.584 31.1761 114.548 30.8461C111.511 30.5161 106.738 28.6652 105.313 27.4152C102.656 29.3683 98.6195 33.9649 95.7183 34.8311Z" fill="#0758E4"/>
<path d="M107.022 48.126C104.69 48.126 102.793 46.2357 102.793 43.9114C102.793 41.5871 104.69 39.6968 107.022 39.6968C109.355 39.6968 111.252 41.5871 111.252 43.9114C111.252 46.2357 109.355 48.126 107.022 48.126ZM107.022 40.9522C105.385 40.9522 104.053 42.2794 104.053 43.9114C104.053 45.5435 105.385 46.8706 107.022 46.8706C108.66 46.8706 109.992 45.5435 109.992 43.9114C109.992 42.2794 108.66 40.9522 107.022 40.9522Z" fill="#0758E4"/>
<path d="M116.021 48.126C113.689 48.126 111.792 46.2357 111.792 43.9114C111.792 41.5871 113.689 39.6968 116.021 39.6968C118.354 39.6968 120.251 41.5871 120.251 43.9114C120.251 46.2357 118.354 48.126 116.021 48.126ZM116.021 40.9522C114.384 40.9522 113.052 42.2794 113.052 43.9114C113.052 45.5435 114.384 46.8706 116.021 46.8706C117.659 46.8706 118.991 45.5435 118.991 43.9114C118.991 42.2794 117.659 40.9522 116.021 40.9522Z" fill="#0758E4"/>
<path d="M103.423 45.0772C103.333 45.0772 103.241 45.0574 103.155 45.0162L97.3092 42.2668C96.9943 42.118 96.8593 41.7449 97.0087 41.4311C97.158 41.1172 97.5324 40.9827 97.8473 41.1316L103.693 43.8809C104.008 44.0298 104.143 44.4028 103.994 44.7167C103.886 44.9427 103.661 45.0772 103.423 45.0772Z" fill="#0758E4"/>
<path d="M119.897 45.0772C119.661 45.0772 119.434 44.9445 119.326 44.7167C119.177 44.4028 119.312 44.0298 119.627 43.8809L125.472 41.1316C125.787 40.9827 126.162 41.1172 126.311 41.4311C126.46 41.7449 126.325 42.118 126.01 42.2668L120.165 45.0162C120.078 45.0574 119.987 45.0772 119.897 45.0772Z" fill="#0758E4"/>
<path d="M106.313 79.5833C106.022 79.5833 105.73 79.4829 105.493 79.2802C104.965 78.8282 104.904 78.0355 105.358 77.51L109.972 72.1602C110.426 71.6347 111.221 71.5737 111.749 72.0257C112.276 72.4776 112.337 73.2703 111.884 73.7958L107.269 79.1457C107.021 79.4344 106.668 79.5833 106.313 79.5833Z" fill="#0758E4"/>
<path d="M116.507 79.5833C116.153 79.5833 115.8 79.4344 115.552 79.1457L110.937 73.7958C110.483 73.2703 110.543 72.4776 111.072 72.0256C111.599 71.5737 112.395 71.6329 112.848 72.1602L117.463 77.51C117.916 78.0355 117.857 78.8282 117.328 79.2802C117.09 79.4846 116.799 79.5833 116.507 79.5833Z" fill="#0758E4"/>
<path d="M107.203 88.9702L109.557 81.2135L107.728 76.6582L111.468 72.7986L115.179 76.7299L113.513 81.3319L115.842 89.0994L114.371 98.4254H108.637L107.203 88.9702Z" fill="#0758E4"/>
<path d="M117.652 49.7491C116.061 48.3287 111.979 49.5411 111.394 49.7258C110.809 49.5411 106.727 48.3287 105.136 49.7491C103.421 51.2807 103.511 52.4985 103.511 52.4985L111.25 52.5308H111.54L119.279 52.4985C119.279 52.4985 119.369 51.2825 117.654 49.7491H117.652Z" fill="#0758E4"/>
</g>
<path d="M88 19.7941C88 15.4896 84.5105 12 80.2059 12H42.7941C38.4895 12 35 15.4895 35 19.7941V37.6753C35 41.9799 38.4895 45.4695 42.7941 45.4695H61.5H68.39L79.3482 51.3083C80.3865 51.8615 81.64 51.1091 81.64 49.9325V45.4695C85.1525 45.4695 88 42.622 88 39.1094V19.7941Z" fill="white"/>
<path fill-rule="evenodd" clip-rule="evenodd" d="M69.856 42.718C69.4048 42.4776 68.9013 42.3518 68.39 42.3518H42.7941C40.2114 42.3518 38.1176 40.2581 38.1176 37.6753V19.7941C38.1176 17.2114 40.2114 15.1176 42.7941 15.1176H80.2059C82.7886 15.1176 84.8824 17.2114 84.8824 19.7941V39.1094C84.8824 40.9002 83.4307 42.3518 81.64 42.3518V45.4695C85.1525 45.4695 88 42.622 88 39.1094V19.7941C88 15.4896 84.5105 12 80.2059 12H42.7941C38.4895 12 35 15.4895 35 19.7941V37.6753C35 41.9799 38.4895 45.4695 42.7941 45.4695H68.39L79.3482 51.3083C80.3865 51.8615 81.64 51.1091 81.64 49.9325V45.4695V42.3518H78.5224V47.3357L69.856 42.718Z" fill="#0758E4"/>
<defs>
<clipPath id="clip0_1822_27050">
<rect width="64" height="79" fill="white" transform="translate(79 21)"/>
</clipPath>
</defs>
</svg>
